<svg xmlns="http://www.w3.org/2000/svg" viewBox="0 0 1000 700">
	<title>Flag of Andorra (simplified version)</title>
  <g class="flagindex-field">
		<path fill="#D50032" d="M680 .787h320v700H680v-700Z"/>
		<path fill="#FEDD00" d="M320 .787h360v700H320v-700Z"/>
		<path fill="#10069F" d="M0 .787h320v700H0v-700Z"/>
  </g>
  <g class="flagindex-emblem">
		<path fill="#C6AA76" fill-rule="evenodd" d="M430.023 228.675a6.416 6.416 0 0 0 5.682-2.52 7.446 7.446 0 0 0 .896-6.771l-.002-.005a7.838 7.838 0 0 0-2.508-3.433c-.3-.308-.63-.591-.986-.845l-.279-.189c-1.65-1.25-3.668-1.932-5.68-2.011l-.432-.64c-2.817-4.14-7.796-5.195-11.436-2.449-.442.334-.851.692-1.226 1.072-4.168-1.844-7.602-1.376-10.201 1.716a2.849 2.849 0 0 0-.052.062c-4.966-3.037-10.262-1.565-13.202 2.79a17.906 17.906 0 0 0-1.015 1.686 11.144 11.144 0 0 0-8.659 6.832c-4.115.45-8.071 4.029-8.071 8.377 0 6.105 2.398 8.951 7.275 15.025 2.471 3.076 7.647 7.485 11.324 12.383 2.381 3.171 4.14 6.543 4.019 9.892-.034.947-.251 1.958-.596 2.893a4.968 4.968 0 0 0-2.995-3.064c-.682-.275-1.496-.37-2.432-.2-1.853.337-3.258 1.655-3.981 3.386-.64 1.529-.744 3.38-.152 5.124-6.673-4.437-16.409-2.484-23.062 2.809l-.006.005a33.93 33.93 0 0 0-11.208 18.435 34.828 34.828 0 0 0-.924 8.041v.005a35.94 35.94 0 0 0 5.639 18.536l.002.003a18.68 18.68 0 0 0 2.087 2.624l.121.138c.015.03.034.059.056.087a25.866 25.866 0 0 0 3.696 3.702 26.723 26.723 0 0 0 8.51 4.935 5.692 5.692 0 0 0-.722.391l-.003.002a8.242 8.242 0 0 0-2.124 2.006 8.166 8.166 0 0 0-1.406 2.739 8.026 8.026 0 0 0-.255 3.522 7.857 7.857 0 0 0 .975 2.976l.017.026a9.296 9.296 0 0 0 4.974 3.76l.012.004c2.316.604 5.175.178 6.938-1.571.089-.089.176-.18.259-.276 2.409 3.024 4.267 8.561 4.237 14.006a23.796 23.796 0 0 1-8.693 18.233 7.274 7.274 0 0 0-2.187-2.711 6.216 6.216 0 0 0-9.948 3.834 6.598 6.598 0 0 0-2.446 6.055 7.035 7.035 0 0 0-1.796 2.459c-.171.398-.315.79-.433 1.176-1.73 5.447 1.986 9.827 6.59 11.207l.006.002c1.364.371 2.778.481 4.17.33-3.908 3.329-6.562 7.352-8.561 13.121l-.002.004a27.387 27.387 0 0 0-1.328 9.191c.142 5.686 1.595 11.9 3.146 14.906.835 1.617 2.503 6.655 8.245 12.147 3.549 3.63 8.837 7.539 16.834 10.832 11.209 4.614 28.419 5.688 40.287 6.156 7.827.309 15.346.622 22.006 2.071 6.375 1.388 11.958 3.818 16.248 8.322a9.131 9.131 0 0 0-5.97 5.431c-.5 1.227-.78 2.534-.83 3.859a9.621 9.621 0 0 0 2.35 6.819l.45.481.34.406a12.378 12.378 0 0 0 7.89 3.963c.04.06.09.119.14.179a10.128 10.128 0 0 0 6.86 4.011h.01c2.19.246 4.41-.02 6.47-.778 1.86-.68 3.55-1.738 4.97-3.104.61.768 1.35 1.58 2.17 2.39l.54.541c2.45 2.488 5.78 5.02 9.21 6.287l.17.063.17-.063c4.92-1.815 9.62-6.224 11.84-9.382.25.258.52.505.8.74a13.382 13.382 0 0 0 5.04 2.842c1.86.571 3.83.729 5.77.462a9.056 9.056 0 0 0 6.64-4.151 12.25 12.25 0 0 0 8.15-3.997v-.004a9.631 9.631 0 0 0 2.35-6.822 11.39 11.39 0 0 0-.83-3.862v-.01a12.583 12.583 0 0 0-3.75-4.73l-.01.011c-.15-.118-1.31-.764-1.79-1.04 5.67-6.142 11.78-7.608 16.33-8.621 6.76-1.506 14.42-1.806 22.39-2.121 11.89-.469 29.12-1.549 40.35-6.171 19.4-7.987 22.94-19.562 24.29-22.184 1.56-3.021 3.02-9.268 3.17-14.985a27.61 27.61 0 0 0-1.34-9.244 29.117 29.117 0 0 0-7.66-12.393l-.03.03a30.8 30.8 0 0 0-1.92-1.746c1.96.516 4.02.514 5.98-.012l.01-.002c2.4-.722 4.36-2.212 5.41-4.238 1.06-2.027 1.23-4.601-.02-7.512v-.01a9.416 9.416 0 0 0-1.93-2.732 6.833 6.833 0 0 0-.32-2.655 6.728 6.728 0 0 0-1.81-2.803 6.995 6.995 0 0 0-.49-.516c-.22-2.61-2.17-4.573-4.72-5.373a6.23 6.23 0 0 0-2.69-.359 6.195 6.195 0 0 0-4.1 2.055 6.146 6.146 0 0 0-1.22 2.071c-.6-.484-1.18-.995-1.72-1.53a24.049 24.049 0 0 1-6.24-15.948c-.04-6.051 2.26-12.216 5.06-14.918 1.72 2.046 4.79 2.59 7.23 1.952a6.68 6.68 0 0 0 2.44-1.201 6.625 6.625 0 0 0 1.77-2.069c.51-.94.84-1.972.95-3.037a8.066 8.066 0 0 0-.3-3.166 8.111 8.111 0 0 0-1.41-2.739c-.57-.804-1.25-1.53-2.01-2.156-.29-.254-.59-.491-.9-.708 3.97-1.094 10.38-3.228 15.07-9.473 3.41-4.542 5.91-11.268 5.85-21.383-.05-8.051-2.24-14.154-5.44-18.733-5.19-9.19-13.77-13.023-22.15-12.659v.017l-.89.019a16.17 16.17 0 0 0-1.04-.015v.088c-2.33.227-4.57.882-6.56 2.024.86-4.17-.9-8.221-4.91-8.144-1.3-.224-4.53.152-4.86 4.388-3.24-4.882 1.85-11.035 3.34-12.933 3.88-4.952 9.32-9.429 11.79-12.506 4.88-6.074 6.93-8.65 7-14.849.05-4.356-3.73-8.789-7.84-9.242-.72-1.748-1.8-3.316-3.1-4.519-1.66-1.526-3.68-2.463-5.81-2.463v.134c-.13-.03-.26-.059-.39-.085-.24-.426-.51-.858-.81-1.299a11.284 11.284 0 0 0-2.38-2.63c-3.02-2.561-7.23-3.051-11.22-.625-.07-.067-.13-.133-.2-.199-1.26-1.677-2.75-2.611-4.44-2.856-1.66-.239-3.54.186-5.65 1.284a1.694 1.694 0 0 1-.13-.109c-.34-.333-.7-.65-1.1-.947-3.64-2.746-8.62-1.691-11.43 2.449l-.46.674c-2 .083-4 .762-5.64 2.005l-.27.179-.01.011a7.279 7.279 0 0 0-2.18 9.381l-.01.004c.3.628.7 1.197 1.2 1.68a6.906 6.906 0 0 0 2.35 1.817c.58.275 1.19.469 1.82.578-4.96 3.794-10.33 5.151-17.56 5.385-2.54.082-7.13-.691-10.36-2.447v-.003l-.06-.031c-.38-.209-.74-.433-1.08-.67a7.138 7.138 0 0 1-.78-.699 5.912 5.912 0 0 1-1.14-6.323l.01-.034c1-2.986 5.77-11.367 6.01-17.163.36-8.953-3.09-14.256-8.42-16.399-.36-.162-.73-.309-1.11-.442-5.01-1.77-10.21-.209-14.96 2.096-4.62 2.237-8.8 5.171-11.95 6.22v.002a20.867 20.867 0 0 1-7.83 1.216h-.04c-2.68.099-5.35-.313-7.88-1.215v-.001c-3.16-1.051-7.34-3.985-11.95-6.222-4.76-2.306-9.96-3.867-14.97-2.097-5.46 1.929-9.009 6.876-8.641 15.958.236 5.797 5.011 14.178 6.001 17.163 1.38 4.142-.81 6.528-2.77 7.923-3.18 2.266-8.653 3.26-11.515 3.168-7.179-.232-12.52-1.571-17.447-5.3Z" clip-rule="evenodd"/>
		<path fill="#FEDD00" d="M585.551 403.389a20.728 20.728 0 0 1-2.163 6.608c-1.477 2.333-.932 2.27-4.275 6.001a23.963 23.963 0 0 1-6.228 4.495 26.907 26.907 0 0 1-6.841 2.495 50.944 50.944 0 0 1-16.574 1.599 98.69 98.69 0 0 1-10.25-1.062 108.633 108.633 0 0 0-11.117-1.01c-2.133-.09-4.15-.11-6.142 0-2.458.162-4.9.499-7.309 1.01a82.398 82.398 0 0 0-11.033 3.188l.057-85.655 82.193-.023v58.543s-.168 2.86-.318 3.81v.001Z"/>
		<path fill="#FEDD00" d="M413.041 403.411a20.742 20.742 0 0 0 2.163 6.609c1.477 2.332.932 2.269 4.276 6a23.918 23.918 0 0 0 6.227 4.495 26.955 26.955 0 0 0 6.842 2.496 50.943 50.943 0 0 0 16.574 1.598 98.699 98.699 0 0 0 10.249-1.062c3.686-.527 7.397-.864 11.118-1.01 2.133-.09 4.149-.11 6.142 0 2.457.162 4.899.499 7.308 1.01a79.587 79.587 0 0 1 10.962 3.188l.014-85.655-82.193-.023v58.544s.168 2.86.318 3.81Z"/>
		<path fill="#D52B1E" stroke="#D52B1E" stroke-width=".513" d="m422.581 418.43 3.852 2.241 5.278 1.9-.005-81.528h-9.126l.001 77.387Zm45.66 3.71.011-81.099h-9.143v82.396l9.131-.988.001-.309Zm18.24-81.09h-9.113v81.381c3.082.326 6.134.889 9.13 1.683l-.017-83.064Zm-36.49 0v83.331a80.663 80.663 0 0 1-9.173-.003l.002-83.314 9.171-.014Z"/>
		<path fill="#FEDD00" d="M503.671 250.25h82.179v82.023h-82.179V250.25Z"/>
		<path fill="#D52B1E" d="M515.181 250.25h12.253v82.023h-12.253V250.25Zm23.48 0h12.253v82.023h-12.253V250.25Zm23.48 0h12.253v82.023h-12.253V250.25Z"/>
		<path fill="#D52B1E" d="M412.731 250.25h82.179v82.023h-82.179V250.25Z"/>
	</g>
</svg>