<svg xmlns="http://www.w3.org/2000/svg" viewBox="0 0 1000 700">
	<title>Flag of Andorra</title>
  <g class="flagindex-field">
		<path fill="#D50032" d="M680 .787h320v700H680v-700Z"/>
		<path fill="#FEDD00" d="M320 .787h360v700H320v-700Z"/>
		<path fill="#10069F" d="M0 .787h320v700H0v-700Z"/>
  </g>
  <g class="flagindex-emblem">
		<g>
			<path fill="#C6AA76" fill-rule="evenodd" d="M430.023 228.675a6.416 6.416 0 0 0 5.682-2.52 7.446 7.446 0 0 0 .896-6.771l-.002-.005a7.838 7.838 0 0 0-2.508-3.433c-.3-.308-.63-.591-.986-.845l-.279-.189c-1.65-1.25-3.668-1.932-5.68-2.011l-.432-.64c-2.817-4.14-7.796-5.195-11.436-2.449-.442.334-.851.692-1.226 1.072-4.168-1.844-7.602-1.376-10.201 1.716a2.849 2.849 0 0 0-.052.062c-4.966-3.037-10.262-1.565-13.202 2.79a17.906 17.906 0 0 0-1.015 1.686 11.144 11.144 0 0 0-8.659 6.832c-4.115.45-8.071 4.029-8.071 8.377 0 6.105 2.398 8.951 7.275 15.025 2.471 3.076 7.647 7.485 11.324 12.383 2.381 3.171 4.14 6.543 4.019 9.892-.034.947-.251 1.958-.596 2.893a4.968 4.968 0 0 0-2.995-3.064c-.682-.275-1.496-.37-2.432-.2-1.853.337-3.258 1.655-3.981 3.386-.64 1.529-.744 3.38-.152 5.124-6.673-4.437-16.409-2.484-23.062 2.809l-.006.005a33.93 33.93 0 0 0-11.208 18.435 34.828 34.828 0 0 0-.924 8.041v.005a35.94 35.94 0 0 0 5.639 18.536l.002.003a18.68 18.68 0 0 0 2.087 2.624l.121.138c.015.03.034.059.056.087a25.866 25.866 0 0 0 3.696 3.702 26.723 26.723 0 0 0 8.51 4.935 5.692 5.692 0 0 0-.722.391l-.003.002a8.242 8.242 0 0 0-2.124 2.006 8.166 8.166 0 0 0-1.406 2.739 8.026 8.026 0 0 0-.255 3.522 7.857 7.857 0 0 0 .975 2.976l.017.026a9.296 9.296 0 0 0 4.974 3.76l.012.004c2.316.604 5.175.178 6.938-1.571.089-.089.176-.18.259-.276 2.409 3.024 4.267 8.561 4.237 14.006a23.796 23.796 0 0 1-8.693 18.233 7.274 7.274 0 0 0-2.187-2.711 6.216 6.216 0 0 0-9.948 3.834 6.598 6.598 0 0 0-2.446 6.055 7.035 7.035 0 0 0-1.796 2.459c-.171.398-.315.79-.433 1.176-1.73 5.447 1.986 9.827 6.59 11.207l.006.002c1.364.371 2.778.481 4.17.33-3.908 3.329-6.562 7.352-8.561 13.121l-.002.004a27.387 27.387 0 0 0-1.328 9.191c.142 5.686 1.595 11.9 3.146 14.906.835 1.617 2.503 6.655 8.245 12.147 3.549 3.63 8.837 7.539 16.834 10.832 11.209 4.614 28.419 5.688 40.287 6.156 7.827.309 15.346.622 22.006 2.071 6.375 1.388 11.958 3.818 16.248 8.322a9.131 9.131 0 0 0-5.97 5.431c-.5 1.227-.78 2.534-.83 3.859a9.621 9.621 0 0 0 2.35 6.819l.45.481.34.406a12.378 12.378 0 0 0 7.89 3.963c.04.06.09.119.14.179a10.128 10.128 0 0 0 6.86 4.011h.01c2.19.246 4.41-.02 6.47-.778 1.86-.68 3.55-1.738 4.97-3.104.61.768 1.35 1.58 2.17 2.39l.54.541c2.45 2.488 5.78 5.02 9.21 6.287l.17.063.17-.063c4.92-1.815 9.62-6.224 11.84-9.382.25.258.52.505.8.74a13.382 13.382 0 0 0 5.04 2.842c1.86.571 3.83.729 5.77.462a9.056 9.056 0 0 0 6.64-4.151 12.25 12.25 0 0 0 8.15-3.997v-.004a9.631 9.631 0 0 0 2.35-6.822 11.39 11.39 0 0 0-.83-3.862v-.01a12.583 12.583 0 0 0-3.75-4.73l-.01.011c-.15-.118-1.31-.764-1.79-1.04 5.67-6.142 11.78-7.608 16.33-8.621 6.76-1.506 14.42-1.806 22.39-2.121 11.89-.469 29.12-1.549 40.35-6.171 19.4-7.987 22.94-19.562 24.29-22.184 1.56-3.021 3.02-9.268 3.17-14.985a27.61 27.61 0 0 0-1.34-9.244 29.117 29.117 0 0 0-7.66-12.393l-.03.03a30.8 30.8 0 0 0-1.92-1.746c1.96.516 4.02.514 5.98-.012l.01-.002c2.4-.722 4.36-2.212 5.41-4.238 1.06-2.027 1.23-4.601-.02-7.512v-.01a9.416 9.416 0 0 0-1.93-2.732 6.833 6.833 0 0 0-.32-2.655 6.728 6.728 0 0 0-1.81-2.803 6.995 6.995 0 0 0-.49-.516c-.22-2.61-2.17-4.573-4.72-5.373a6.23 6.23 0 0 0-2.69-.359 6.195 6.195 0 0 0-4.1 2.055 6.146 6.146 0 0 0-1.22 2.071c-.6-.484-1.18-.995-1.72-1.53a24.049 24.049 0 0 1-6.24-15.948c-.04-6.051 2.26-12.216 5.06-14.918 1.72 2.046 4.79 2.59 7.23 1.952a6.68 6.68 0 0 0 2.44-1.201 6.625 6.625 0 0 0 1.77-2.069c.51-.94.84-1.972.95-3.037a8.066 8.066 0 0 0-.3-3.166 8.111 8.111 0 0 0-1.41-2.739c-.57-.804-1.25-1.53-2.01-2.156-.29-.254-.59-.491-.9-.708 3.97-1.094 10.38-3.228 15.07-9.473 3.41-4.542 5.91-11.268 5.85-21.383-.05-8.051-2.24-14.154-5.44-18.733-5.19-9.19-13.77-13.023-22.15-12.659v.017l-.89.019a16.17 16.17 0 0 0-1.04-.015v.088c-2.33.227-4.57.882-6.56 2.024.86-4.17-.9-8.221-4.91-8.144-1.3-.224-4.53.152-4.86 4.388-3.24-4.882 1.85-11.035 3.34-12.933 3.88-4.952 9.32-9.429 11.79-12.506 4.88-6.074 6.93-8.65 7-14.849.05-4.356-3.73-8.789-7.84-9.242-.72-1.748-1.8-3.316-3.1-4.519-1.66-1.526-3.68-2.463-5.81-2.463v.134c-.13-.03-.26-.059-.39-.085-.24-.426-.51-.858-.81-1.299a11.284 11.284 0 0 0-2.38-2.63c-3.02-2.561-7.23-3.051-11.22-.625-.07-.067-.13-.133-.2-.199-1.26-1.677-2.75-2.611-4.44-2.856-1.66-.239-3.54.186-5.65 1.284a1.694 1.694 0 0 1-.13-.109c-.34-.333-.7-.65-1.1-.947-3.64-2.746-8.62-1.691-11.43 2.449l-.46.674c-2 .083-4 .762-5.64 2.005l-.27.179-.01.011a7.279 7.279 0 0 0-2.18 9.381l-.01.004c.3.628.7 1.197 1.2 1.68a6.906 6.906 0 0 0 2.35 1.817c.58.275 1.19.469 1.82.578-4.96 3.794-10.33 5.151-17.56 5.385-2.54.082-7.13-.691-10.36-2.447v-.003l-.06-.031c-.38-.209-.74-.433-1.08-.67a7.138 7.138 0 0 1-.78-.699 5.912 5.912 0 0 1-1.14-6.323l.01-.034c1-2.986 5.77-11.367 6.01-17.163.36-8.953-3.09-14.256-8.42-16.399-.36-.162-.73-.309-1.11-.442-5.01-1.77-10.21-.209-14.96 2.096-4.62 2.237-8.8 5.171-11.95 6.22v.002a20.867 20.867 0 0 1-7.83 1.216h-.04c-2.68.099-5.35-.313-7.88-1.215v-.001c-3.16-1.051-7.34-3.985-11.95-6.222-4.76-2.306-9.96-3.867-14.97-2.097-5.46 1.929-9.009 6.876-8.641 15.958.236 5.797 5.011 14.178 6.001 17.163 1.38 4.142-.81 6.528-2.77 7.923-3.18 2.266-8.653 3.26-11.515 3.168-7.179-.232-12.52-1.571-17.447-5.3Z" clip-rule="evenodd"/>
			<path fill="#713F2A" fill-rule="evenodd" d="M430.023 228.675a6.416 6.416 0 0 0 5.682-2.52 7.446 7.446 0 0 0 .896-6.771l-.002-.005a7.838 7.838 0 0 0-2.508-3.433c-.3-.308-.63-.591-.986-.845l-.279-.189c-1.65-1.25-3.668-1.932-5.68-2.011l-.432-.64c-2.817-4.14-7.796-5.195-11.436-2.449-.442.334-.851.692-1.226 1.072-4.168-1.844-7.602-1.376-10.201 1.716a2.849 2.849 0 0 0-.052.062c-4.966-3.037-10.262-1.565-13.202 2.79a17.906 17.906 0 0 0-1.015 1.686 11.144 11.144 0 0 0-8.659 6.832c-4.115.45-8.071 4.029-8.071 8.377 0 6.105 2.398 8.951 7.275 15.025 2.471 3.076 7.647 7.485 11.324 12.383 2.381 3.171 4.14 6.543 4.019 9.892-.034.947-.251 1.958-.596 2.893a4.968 4.968 0 0 0-2.995-3.064c-.682-.275-1.496-.37-2.432-.2-1.853.337-3.258 1.655-3.981 3.386-.64 1.529-.744 3.38-.152 5.124-6.673-4.437-16.409-2.484-23.062 2.809l-.006.005a33.93 33.93 0 0 0-11.208 18.435 34.828 34.828 0 0 0-.924 8.041v.005a35.94 35.94 0 0 0 5.639 18.536l.002.003a18.68 18.68 0 0 0 2.087 2.624l.121.138c.015.03.034.059.056.087a25.866 25.866 0 0 0 3.696 3.702 26.723 26.723 0 0 0 8.51 4.935 5.692 5.692 0 0 0-.722.391l-.003.002a8.242 8.242 0 0 0-2.124 2.006 8.166 8.166 0 0 0-1.406 2.739 8.026 8.026 0 0 0-.255 3.522 7.857 7.857 0 0 0 .975 2.976l.017.026a9.296 9.296 0 0 0 4.974 3.76l.012.004c2.316.604 5.175.178 6.938-1.571.089-.089.176-.18.259-.276 2.409 3.024 4.267 8.561 4.237 14.006a23.796 23.796 0 0 1-8.693 18.233 7.274 7.274 0 0 0-2.187-2.711 6.216 6.216 0 0 0-9.948 3.834 6.598 6.598 0 0 0-2.446 6.055 7.035 7.035 0 0 0-1.796 2.459c-.171.398-.315.79-.433 1.176-1.73 5.447 1.986 9.827 6.59 11.207l.006.002c1.364.371 2.778.481 4.17.33-3.908 3.329-6.562 7.352-8.561 13.121l-.002.004a27.387 27.387 0 0 0-1.328 9.191c.142 5.686 1.595 11.9 3.146 14.906.835 1.617 2.503 6.655 8.245 12.147 3.549 3.63 8.837 7.539 16.834 10.832 11.209 4.614 28.419 5.688 40.287 6.156 7.827.309 15.346.622 22.006 2.071 6.375 1.388 11.958 3.818 16.248 8.322a9.131 9.131 0 0 0-5.97 5.431c-.5 1.227-.78 2.534-.83 3.859a9.621 9.621 0 0 0 2.35 6.819l.45.481.34.406a12.378 12.378 0 0 0 7.89 3.963c.04.06.09.119.14.179a10.128 10.128 0 0 0 6.86 4.011h.01c2.19.246 4.41-.02 6.47-.778 1.86-.68 3.55-1.738 4.97-3.104.61.768 1.35 1.58 2.17 2.39l.54.541c2.45 2.488 5.78 5.02 9.21 6.287l.17.063.17-.063c4.92-1.815 9.62-6.224 11.84-9.382.25.258.52.505.8.74a13.382 13.382 0 0 0 5.04 2.842c1.86.571 3.83.729 5.77.462a9.056 9.056 0 0 0 6.64-4.151 12.25 12.25 0 0 0 8.15-3.997v-.004a9.631 9.631 0 0 0 2.35-6.822 11.39 11.39 0 0 0-.83-3.862v-.01a12.583 12.583 0 0 0-3.75-4.73l-.01.011a9.109 9.109 0 0 0-1.69-1.046c4.23-4.681 9.82-7.189 16.23-8.615 6.76-1.506 14.42-1.806 22.39-2.121 11.89-.469 29.12-1.549 40.35-6.171 19.4-7.987 22.94-19.562 24.29-22.184 1.56-3.021 3.02-9.268 3.17-14.985a27.61 27.61 0 0 0-1.34-9.244 29.117 29.117 0 0 0-7.66-12.393l-.03.03a30.8 30.8 0 0 0-1.92-1.746c1.96.516 4.02.514 5.98-.012l.01-.002c2.4-.722 4.36-2.212 5.41-4.238 1.06-2.027 1.23-4.601-.02-7.512v-.01a9.416 9.416 0 0 0-1.93-2.732 6.833 6.833 0 0 0-.32-2.655 6.728 6.728 0 0 0-1.81-2.803 6.995 6.995 0 0 0-.49-.516c-.22-2.61-2.17-4.573-4.72-5.373a6.23 6.23 0 0 0-2.69-.359 6.195 6.195 0 0 0-4.1 2.055 6.146 6.146 0 0 0-1.22 2.071c-.6-.484-1.18-.995-1.72-1.53a24.049 24.049 0 0 1-6.24-15.948c-.04-6.051 2.26-12.216 5.06-14.918 1.72 2.046 4.79 2.59 7.23 1.952a6.68 6.68 0 0 0 2.44-1.201 6.625 6.625 0 0 0 1.77-2.069c.51-.94.84-1.972.95-3.037a8.066 8.066 0 0 0-.3-3.166 8.111 8.111 0 0 0-1.41-2.739c-.57-.804-1.25-1.53-2.01-2.156-.29-.254-.59-.491-.9-.708 3.97-1.094 10.38-3.228 15.07-9.473 3.41-4.542 5.91-11.268 5.85-21.383-.05-8.051-2.24-14.154-5.44-18.733-5.19-9.19-13.77-13.023-22.15-12.659v.017l-.89.019a16.17 16.17 0 0 0-1.04-.015v.088c-2.33.227-4.57.882-6.56 2.024.86-4.17-.9-8.221-4.91-8.144-3.18-.55-4.94 1.963-4.92 4.23a8.038 8.038 0 0 1-.87-2.837c-.11-3.35 1.76-6.74 4.27-9.938 3.88-4.952 9.32-9.429 11.79-12.506 4.88-6.074 6.93-8.65 7-14.849.05-4.356-3.73-8.789-7.84-9.242-.72-1.748-1.8-3.316-3.1-4.519-1.66-1.526-3.68-2.463-5.81-2.463v.134c-.13-.03-.26-.059-.39-.085-.24-.426-.51-.858-.81-1.299a11.284 11.284 0 0 0-2.38-2.63c-3.02-2.561-7.23-3.051-11.22-.625-.07-.067-.13-.133-.2-.199-1.26-1.677-2.75-2.611-4.44-2.856-1.66-.239-3.54.186-5.65 1.284a1.694 1.694 0 0 1-.13-.109c-.34-.333-.7-.65-1.1-.947-3.64-2.746-8.62-1.691-11.43 2.449l-.46.674c-2 .083-4 .762-5.64 2.005l-.27.179.27.907-.28-.896a7.279 7.279 0 0 0-2.18 9.381l-.01.004c.3.628.7 1.197 1.2 1.68a6.906 6.906 0 0 0 2.35 1.817c.58.275 1.19.469 1.82.578-4.96 3.794-10.33 5.151-17.56 5.385-2.54.082-7.13-.691-10.36-2.447v-.003l-.06-.031c-.38-.209-.74-.433-1.08-.67a7.138 7.138 0 0 1-.78-.699 5.912 5.912 0 0 1-1.14-6.323l.01-.034c1-2.986 5.77-11.367 6.01-17.163.36-8.953-3.09-14.256-8.42-16.399-.36-.162-.73-.309-1.11-.442-5.01-1.77-10.21-.209-14.96 2.096-4.62 2.237-8.8 5.171-11.95 6.22v.002a20.867 20.867 0 0 1-7.83 1.216h-.04c-2.68.099-5.35-.313-7.88-1.215v-.001c-3.16-1.051-7.34-3.985-11.95-6.222-4.76-2.306-9.96-3.867-14.97-2.097-5.46 1.929-9.009 6.876-8.641 15.958.236 5.797 5.011 14.178 6.001 17.163 1.38 4.142-.81 6.528-2.77 7.923-3.18 2.266-8.653 3.26-11.515 3.168-7.179-.232-12.52-1.571-17.447-5.3Zm69.642 262.687c-1.03 2.408-3.57 4.872-8.34 5.839l-.2.042a15.988 15.988 0 0 1-2.73 4.652l.16.244c.61.941 1.49 2.027 2.55 3.133 2.23 2.145 5.09 4.239 8.05 5.369 4.78-1.825 9.31-6.161 11.34-9.168a16.333 16.333 0 0 1-3-5.236c-4.13-.839-6.58-2.797-7.83-4.875Zm-112.616-68.953a6.6 6.6 0 0 0-.02.535c.002.4.037.832.113 1.296.028.172.105.462.254.814l.042-.015c.058.159.154.401.302.693.821 1.381 2.634 3.116 6.365 3.071a8.88 8.88 0 0 0 7.056-4.416c1.11-2.06 1.545-6.505.141-9.166-2.944-5.577-7.867-8.011-13.491-7.198h-.002a21.91 21.91 0 0 0-15.819 10.338l-.003.005c-4.511 7.029-3.684 16.532-1.904 21.332 2.075 5.59 4.646 8.486 9.128 12.555a42.075 42.075 0 0 0 19.368 9.836l.005.002a93.968 93.968 0 0 0 14.006 2.151h.006c6.154.638 10.248.48 15.837.791 14.027.779 19.342 1.561 28.072 3.644 4.3 1.026 12.52 3.832 18.41 8.54a24.96 24.96 0 0 1 2.3 2.067c3.01 2.92 5.07 6.477 5.07 10.627 0 6.426-5.16 12.711-11.83 12.709l.01.009c.22.254.48.51.78.759 1.14.94 2.78 1.755 4.49 1.923l.01.001c3.63.502 7.3-.62 10.02-3.065a15.372 15.372 0 0 0 5.05-11.53v-.006c.04-2.567-.58-5.103-1.8-7.371-2.67-4.205-5.62-6.808-9.06-8.89l-1-.584c-2.28-1.286-4.78-2.397-7.55-3.626v-.011c-6.74-2.955-5.94-2.268-7.12-2.731a.488.488 0 0 1-.28-.639c.1-.254.38-.38.64-.28 1.25.488.3-.296 8.21 3.211 7.68 3.402 13.11 6.392 17.88 13.923l.02.029a15.853 15.853 0 0 1 1.92 7.86c0 1.06-.1 2.118-.3 3.159 4.21-1.358 6.03-4.106 6.28-6.392-.01-.178-.02-.353-.02-.523-.01-.489-.01-.977.02-1.466a16.14 16.14 0 0 0-.09-.98c-.61-3.652-2.96-6.462-5.48-9.018-.09-.084-.17-.168-.26-.252v-.003l-.89-.882c-.64-.639-1.32-1.099-2.11-1.891a23.619 23.619 0 0 0-3.78-2.639l-.01-.004a62.057 62.057 0 0 0-15.14-6.471l-1.89-.576c-.93-.281-1.86-.448-2.77-.652-3.08-.691-6.02-1.093-8.52-1.51-3.829-.638-7.239-.754-11.77-1.083a109.51 109.51 0 0 0-11.229-.154l-6.302.064c-2.631.032-5.425.085-8.659-.065-4.015-.186-6.283-.263-10.284-.624-8.716-.785-15.78-2.053-22.691-6.45a22.617 22.617 0 0 1-2.936-2.237l-.029.029a25.447 25.447 0 0 1-.585-.599c-6.174-5.919-10.225-15.85-6.911-25.28a19.772 19.772 0 0 1 1.747-3.985l.012-.022 1.813-2.522a12.121 12.121 0 0 1 4.133-3.405 8.51 8.51 0 0 1 9.744 1.49l.003.003c.239.24.456.5.648.776l.209.214c1.478 1.854 2.177 4.808.756 6.701-.504.673-.977.986-1.428 1.124a1.966 1.966 0 0 1-.462.081 4.168 4.168 0 0 0 1.869-3.468l-.003.002a.026.026 0 0 0 .003-.011 4.168 4.168 0 0 0-4.168-4.16 4.17 4.17 0 0 0-4.159 4.167v.002l.041.042-.004.023-.006.058a.24.24 0 0 1-.031-.123c0 .107.004.213.013.319Zm133.706 76.663c-2.6-2.431-4.23-5.993-4.23-9.601 0-4.97 2.93-9.052 6.93-12.254 5.89-4.708 14.11-7.514 18.41-8.54 8.74-2.083 14.05-2.865 28.08-3.644 5.59-.311 9.68-.153 15.84-.791l.01-.001a93.801 93.801 0 0 0 14-2.152 42.106 42.106 0 0 0 19.37-9.836c4.48-4.069 7.05-6.965 9.13-12.555 1.78-4.8 2.6-14.303-1.91-21.337v-.005c-1.7-2.793-4-5.171-6.74-6.959a21.954 21.954 0 0 0-9.08-3.374c-5.63-.813-10.55 1.621-13.49 7.198-1.41 2.662-.97 7.11.14 9.168a8.912 8.912 0 0 0 2.98 3.089 8.878 8.878 0 0 0 4.09 1.325c5.47.06 6.81-3.71 6.95-4.563.07-.471.11-.909.11-1.315 0-2.947-1.84-4.215-2.9-4.588l-.01-.002a4.513 4.513 0 0 0-.66-.119 5.409 5.409 0 0 0-1.67.157c-.82.214-1.63.658-1.97 1.524a4.33 4.33 0 0 0 .04 2.174l-.1.027c.07.256.17.505.3.743a.53.53 0 0 1 .05.118.501.501 0 0 1-.24.555.494.494 0 0 1-.67-.198c-.17-.306-.3-.628-.39-.958l-.03.008c-.51-1.865-.07-3.66 1.41-5.687 1.95-2.682 6.11-3.656 9.89-1.565a12.2 12.2 0 0 1 4.15 3.426l1.81 2.519.01.024a19.581 19.581 0 0 1 1.75 3.984c3.94 11.192-2.32 23.322-10.5 28.187-6.27 3.727-13.74 5.401-22.69 6.45-4 .47-6.28.439-10.3.626-3.24.15-6.03.097-8.66.065l-6.32-.065c-3.73-.14-7.48-.088-11.21.154-4.53.33-7.94.445-11.77 1.083-2.5.417-5.43.819-8.51 1.509-.91.204-1.83.371-2.77.651l-1.89.578a61.622 61.622 0 0 0-15.12 6.465l-.01.002c-1.33.77-2.6 1.654-3.78 2.637-.66.622-1.46 1.246-2.1 1.883-2.91 2.857-5.91 5.934-6.61 10.13-.1.795-.14 1.597-.12 2.407v.008c0 2.533 2.05 5.884 7.36 7.168a16.592 16.592 0 0 1-.53-4.286c-.04-2.741.62-5.447 1.92-7.857l.02-.029c4.77-7.53 10.38-10.095 18.06-13.497a.492.492 0 1 1 .4.902c-7.48 3.314-12.97 5.781-17.62 13.116a14.868 14.868 0 0 0-1.79 7.361v.007a15.358 15.358 0 0 0 5.04 11.523 12.462 12.462 0 0 0 10.03 3.064l.01-.001c1.7-.167 3.35-.982 4.48-1.922.32-.265.6-.538.83-.809a11.116 11.116 0 0 1-7.21-3.497v-.008Zm-133.89-194.037a12.472 12.472 0 0 0 1.832-.372c9.668-2.72 13.642-10.37 13.642-15.081v-.007a10.613 10.613 0 0 0-2.757-7.43 10.665 10.665 0 0 1-2.366 1.386c-2.252 1.015-4.767.598-6.695-.276 2.497 4.258 2.164 9.056.164 12.419-1.591 2.673-4.23 4.443-7.351 4.385-2.758-.053-4.86-.907-6.331-2.279-1.354-1.261-2.181-2.966-2.482-4.921a7.941 7.941 0 0 1-.019-2.632c.048-.292.112-.58.193-.86a14.139 14.139 0 0 0-6.351 4.884c-1.816 2.574-2.867 6.153-3.525 9.292a30.531 30.531 0 0 0 .252 10.221 24.102 24.102 0 0 0 3.527 8.627c.452.665.97 1.283 1.555 1.852a16.91 16.91 0 0 0 1.693 1.31c1.006.524 2.121.756 3.508.562-.427-1.01-.499-2.157-.302-3.258.286-1.598 1.153-3.087 2.306-3.901 1.367-.965 2.976-1.281 4.549-1.048 1.156.102 2.523.711 3.784 1.713 1.886 1.5 3.536 3.873 3.889 6.623v.001c.714 5.568-2.564 10.399-8.544 11.721 1.86.928 3.66 2.26 5.327 3.897 4.093 4.019 7.397 9.882 8.876 16.057v.002a46.521 46.521 0 0 1 .4 19.019v.002a35.541 35.541 0 0 1-9.291 17.834l-.002.002a26.251 26.251 0 0 1-3.379 2.904 18.871 18.871 0 0 1 5.759-.261c4.735.505 7.686 2.094 9.251 5.406l.017.008.231.112-.231-.112a17.61 17.61 0 0 0-1.496-.629l-.004-.001c-1.536-2.293-4.097-3.4-7.873-3.803-4.559-.486-8.503.777-12.542 2.949-7.936 4.268-12.366 8.852-15.316 17.363a26.389 26.389 0 0 0-1.277 8.851c.138 5.522 1.53 11.562 3.036 14.48.802 1.553 2.39 6.328 7.755 11.584l.002-.002.077.079c3.463 3.374 8.488 6.94 15.861 9.976 11.114 4.575 28.182 5.619 39.95 6.083 8.16.322 16.005.638 22.902 2.216 6.899 1.579 12.856 4.419 17.266 9.745l.04.05c.37-.058.74-.093 1.12-.106l.57.02c1.54.118 3 .719 4.17 1.701a7.505 7.505 0 0 1 2.28 2.675c.62 1.225.89 2.596.78 3.964l-.49.454.49-.446-.03.344c-.08.706-.3 1.389-.64 2.01v.002c-.35.62-.81 1.167-1.36 1.609a5.39 5.39 0 0 1-1.88.967c-.68.196-1.39.256-2.1.176v-.001c-1.53-.178-3.05-1.05-3.65-2.569-.39-.995-.39-2.284.32-3.861a.49.49 0 0 1 .65-.248c.24.109.35.39.26.634l.08.043c-.71 1.463-.72 2.557-.24 3.32.47.75 1.37 1.146 2.34 1.259 3.01.349 4.61-2.047 4.82-4.217a6.397 6.397 0 0 0-1.52-4.628 6.02 6.02 0 0 0-.72-.708 9.558 9.558 0 0 0-.36-.245.48.48 0 0 1-.16-.153 6.343 6.343 0 0 0-3.11-1.097l-.49-.018a8.193 8.193 0 0 0-7.3 5.166v.002a10.184 10.184 0 0 0-.75 3.533v.004a8.623 8.623 0 0 0 2.1 6.121c.11.122.22.241.33.357l.03-.014c.03.045.06.091.1.136a11.217 11.217 0 0 0 7.61 3.221h.01c6.32.254 11.22-5.679 11.22-11.713 0-3.675-1.73-6.815-4.3-9.453-.26-.251-.52-.497-.8-.738l.02-.02c-.47-.439-.96-.863-1.48-1.272-5.76-4.609-13.81-7.347-18.01-8.351-8.685-2.07-13.967-2.844-27.907-3.619-5.604-.311-9.709-.154-15.877-.793a94.793 94.793 0 0 1-14.136-2.172 43.069 43.069 0 0 1-19.815-10.067l-.001-.001c-4.618-4.193-7.253-7.185-9.391-12.944-1.854-4.996-2.697-14.885 1.995-22.203a22.885 22.885 0 0 1 16.522-10.793c4.63-.668 8.825.702 11.955 4.077l.002-.002a16.527 16.527 0 0 1 2.981 4.085c.966 1.833 1.144 4.433.844 6.679a15.017 15.017 0 0 0 .76-11.486c-1.187-3.116-3.296-5.019-6.429-6.565a14.94 14.94 0 0 0-.53-.25l-.02.008-.009-.021c-8.456-3.794-17.669.442-22.576 3.661a.493.493 0 0 1-.667-.119l1.273-1.019 1.915-1.287 1.676-.983 1.426-.654c4.736-1.919 10.594-3.029 16.222-.962l1.727.741c2.03 1.001 3.654 2.148 4.906 3.635a33.415 33.415 0 0 1-.563-3.272v-.004a38.348 38.348 0 0 1-.215-3.938v-21.405a27.517 27.517 0 0 1-1.607 3.883l-.002.004a28.349 28.349 0 0 1-5.65 7.381.494.494 0 0 1-.692-.703c.006-.1.043-.2.112-.283 5.206-6.279 7.995-12.249 7.817-20.978-.192-9.319-3.552-13.954-9.843-21.781a.493.493 0 0 1-.067-.509c.335.239.62.438.999.756l1.393 1.314.9.927c.242.314.478.624.709.93a12.567 12.567 0 0 0 5.911-11.186v-.01c0-4.792-1.606-7.871-5.404-10.975l-.097.076-.006-.011c-.601.31-1.219.585-1.852.824-.49.182-.998.31-1.515.385a.494.494 0 0 1 .297-.58c.121-.047.241-.097.359-.149a19.256 19.256 0 0 0 2.64-1.935c3.878-3.393 5.582-6.586 5.582-10.737 0-2.312-.392-4.234-1.626-5.83a19.808 19.808 0 0 1-14.051 6.403 16.49 16.49 0 0 1-9.707-2.817 15.39 15.39 0 0 1-4.609-4.569 14.634 14.634 0 0 1-2.024-4.561l.034-.009a.494.494 0 0 1 .349-.461c.111.393.233.783.366 1.17l.003.009c.387.992.891 1.921 1.504 2.778a13.49 13.49 0 0 0 2.049 2.527c.68.683 1.437 1.287 2.254 1.8l.003.002c.37.224.745.438 1.124.642a15.503 15.503 0 0 0 8.187 2.06 18.801 18.801 0 0 0 13.364-6.098c1.732-1.934 2.78-3.96 2.78-5.535l.016-.225v-.574a4.894 4.894 0 0 0-1.419-3.168 18.924 18.924 0 0 1-11.55 7.906c-3.967 1.003-9.066-.285-10.809-1.768a.493.493 0 0 1-.077-.668c.38.208.767.403 1.16.586l.008.003c.648.276 1.314.485 1.995.629.913.219 1.847.331 2.786.332a12.55 12.55 0 0 0 2.418-.136Zm244.16 102.772c-2.3-2.301-5.1-4.234-8.58-6.106-4.01-2.154-7.93-3.485-12.45-2.933-2.73.454-5.3 1.566-7.49 3.221 8.3-2.696 16.99 1.287 21.76 4.417a.49.49 0 0 1 .14.683.491.491 0 0 1-.68.142c-5.02-3.29-14.53-7.642-23.14-3.398l-.27.136c-.09.096-.18.194-.27.293l-.11-.097c-2.77 1.488-4.67 3.337-5.78 6.237a15.114 15.114 0 0 0-.54 7.577c.36 1.92 1.09 3.745 2.14 5.377-.74-2.513-.82-6.207.44-8.596 3.17-5.991 8.47-8.587 14.5-7.715a22.894 22.894 0 0 1 16.53 10.793c4.69 7.318 3.84 17.207 1.99 22.203-2.14 5.759-4.77 8.751-9.39 12.945a43.095 43.095 0 0 1-19.82 10.067 94.694 94.694 0 0 1-14.13 2.172c-6.17.639-10.27.482-15.88.793-13.94.775-19.22 1.549-27.9 3.619-4.21 1.004-12.25 3.742-18.02 8.351-3.76 3.008-6.56 6.814-6.56 11.483 0 6.034 4.9 11.967 11.23 11.713h.01c3.08-.075 6-1.413 8.07-3.7a8.672 8.672 0 0 0 2.1-6.125v-.005c-.05-1.211-.3-2.405-.76-3.53v-.002a8.172 8.172 0 0 0-7.3-5.164l-.49.018a6.384 6.384 0 0 0-4.34 2.203 6.354 6.354 0 0 0-1.52 4.628c.05.576.21 1.168.46 1.721.02.028.03.06.05.093 0 .013.01.026.01.04.72 1.465 2.15 2.612 4.29 2.363.98-.113 1.88-.509 2.35-1.259.47-.763.47-1.857-.25-3.32a.514.514 0 0 1 .01-.453 6.58 6.58 0 0 0-.32-.351.499.499 0 0 1 .01-.698c.2-.189.51-.184.7.012.06.058.11.116.17.175.54.444.98 1.006 1.27 1.638.24.452.42.926.56 1.417l.01.024a3.856 3.856 0 0 1-3.52 4.684 5.769 5.769 0 0 1-3.57-.73v-.001a5.823 5.823 0 0 1-2.2-2.277 5.696 5.696 0 0 1-.4-.796 6.695 6.695 0 0 1-.62-2.197v-.006a7.4 7.4 0 0 1 1.76-5.35 7.363 7.363 0 0 1 5.03-2.545l.56-.02c.45.015.88.061 1.31.138 4.43-5.32 10.39-8.164 17.3-9.745 6.91-1.58 14.76-1.897 22.93-2.219 11.75-.465 28.8-1.504 39.9-6.073 18.87-7.767 22.31-19.023 23.62-21.57 1.5-2.906 2.89-8.918 3.02-14.416.08-2.984-.35-5.962-1.27-8.803-1.48-4.278-3.34-7.559-5.83-10.306-.28-.289-.56-.572-.85-.849l.02-.021Zm-13.23 11.608-.12.077a9.225 9.225 0 0 0-3.54-3.092l-.01-.005c-1.97-1.091-4.22-.822-5.94-.116-.67.278-1.27.624-1.74.984.5-.073 1.01-.079 1.5-.02.34.03.63.087.83.159.32.085.63.198.93.338l.03.015c1.24.683 2.27 1.372 2.89 2.482.62 1.102.86 2.634.47 5.044-.17.983-1.63 5.471-7.96 5.388-3.72-.048-7.79-3.11-8.9-4.886-.4-.41-.74-.882-.99-1.4v-.018a15.927 15.927 0 0 1-2.79-7.544 29.595 29.595 0 0 1-5.77 7.331 30.976 30.976 0 0 1-9.22 6.467 39.016 39.016 0 0 1-10.38 3.463 53.072 53.072 0 0 1-10.82 1.332c-3.32.137-6.65.051-9.96-.258-4.13-.285-6.42-.859-10.55-1.222l-.01-.001a82.048 82.048 0 0 0-8.69-.562h-.01a44.42 44.42 0 0 0-8.89.636c-2.74.413-5.42 1.16-7.97 2.225l-.01.001c-4.1 1.662-8.75 4.536-9.74 5.829l-.39.513-.39-.506-.05.069-.4-.513-.05.073-.34-.45c-1.77-1.453-5.53-3.645-8.91-5.016l-.01-.001a33.83 33.83 0 0 0-7.97-2.224h-.01c-2.93-.51-5.9-.724-8.89-.636-2.9.034-5.8.221-8.7.563-4.13.362-6.42.937-10.546 1.222a74.657 74.657 0 0 1-9.965.258 52.645 52.645 0 0 1-10.809-1.332 39.147 39.147 0 0 1-10.372-3.455 31.037 31.037 0 0 1-9.2-6.436l-1.13-1.113a33.29 33.29 0 0 1-5.388-6.899 16.292 16.292 0 0 1-3.756 10.199l-.021.023c-1.378 1.461-4.396 4.227-8.127 4.275-5.079.067-7.26-2.769-8.106-4.404-.482-.813-.683-1.538-.737-1.868a9.388 9.388 0 0 1-.13-1.535c0-3.537 2.294-5.02 3.563-5.467.563-.199 1.759-.287 2.912.012.199.051.396.114.589.19a7.232 7.232 0 0 0-7.747-.667l-.003.002a11.122 11.122 0 0 0-3.792 3.12l-1.772 2.468a18.86 18.86 0 0 0-1.646 3.767l-.003.008c-3.035 8.628.375 17.682 5.832 23.428a22.065 22.065 0 0 0 3.339 2.627c6.774 4.311 13.706 5.532 22.25 6.301 3.984.359 6.242.435 10.241.62 3.212.149 5.988.096 8.602.064l6.29-.064a110.73 110.73 0 0 1 11.319.156h.002c4.568.332 8.004.451 11.861 1.094 2.52.42 5.48.826 8.57 1.521.94.209 1.89.382 2.85.67l1.87.574a62.91 62.91 0 0 1 15.37 6.567 24.29 24.29 0 0 1 3.95 2.761l.03.025c.79.794 1.47 1.255 2.12 1.895.35.348.7.698 1.05 1.054 2.21 2.178 4.42 4.502 5.72 7.3 1.25-3.294 3.78-5.937 6.29-8.402.66-.645 1.46-1.277 2.13-1.907l.03-.022a27.765 27.765 0 0 1 3.95-2.761 62.968 62.968 0 0 1 15.38-6.576l1.88-.573c.96-.288 1.91-.462 2.85-.672 3.1-.695 6.05-1.101 8.57-1.521 3.86-.643 7.3-.762 11.87-1.095h.01c3.76-.245 7.54-.297 11.32-.156l6.29.064c2.61.032 5.39.085 8.6-.064 3.99-.185 6.25-.153 10.22-.619 8.77-1.029 16.1-2.647 22.25-6.301 7.8-4.636 13.76-16.19 10.01-26.863l-.01-.01a17.9 17.9 0 0 0-1.64-3.75s-1.18-1.654-1.61-2.252Zm-67.33-178.573a56.062 56.062 0 0 1-3.67 0h-33.67c-.36.061-.75.093-1.15.093-.42 0-.84-.032-1.24-.093h-19.57l-.03.021a.559.559 0 0 1-.66-.021h-2.83c-.4.06-.81.092-1.24.092-.38 0-.75-.032-1.11-.092h-33.213c-.551.026-1.108.042-1.67.048-.97.011-1.988-.002-3.043-.048H403.34v60.445c.011.208.011.417 0 .625v97.455c.004 1.28.074 2.56.209 3.833a32.31 32.31 0 0 0 6.259 15.54l.032-.024a33.697 33.697 0 0 0 3.163 3.666l.13.129.01-.011.789.794a30.204 30.204 0 0 0 8.232 5.562l.008.004a37.963 37.963 0 0 0 10.142 3.379l.011.002a51.89 51.89 0 0 0 10.632 1.309h.006c3.283.135 6.572.052 9.849-.253h.006c4.127-.286 6.407-.86 10.527-1.222 2.91-.344 5.84-.534 8.78-.568 3.04-.089 6.08.13 9.07.651a34.65 34.65 0 0 1 8.19 2.285c3.89 1.573 8.22 4.225 9.77 5.715 1.55-1.49 5.88-4.142 9.76-5.715a34.766 34.766 0 0 1 8.2-2.285c2.99-.521 6.03-.74 9.07-.651 2.94.035 5.87.225 8.78.568 4.12.363 6.4.936 10.53 1.222l.01.001c3.27.303 6.56.386 9.85.252 3.58-.068 7.14-.507 10.64-1.312l.01-.002a37.975 37.975 0 0 0 10.14-3.38l.01-.003a30.172 30.172 0 0 0 8.95-6.277l.01-.005a32.386 32.386 0 0 0 9.65-19.371c.11-1.109.18-2.223.2-3.338h-.06v-159.02h-44.44Zm54.73 176.791.01-.004v-.004l-.01.008Zm-5.55-136.317a10.628 10.628 0 0 0-3.31 5.491v.07h-.02c-.2.882-.29 1.791-.27 2.706v.006c0 1.135.23 2.442.72 3.81h.01v.033c.35.964.82 1.957 1.43 2.941a.52.52 0 0 0 .03-.02l.56.81c-.02.012-.03.024-.05.035 2.17 3.099 5.73 5.999 10.94 7.466 2.25.633 4.44.854 6.3.62 1.27-.287 2.5-.788 3.62-1.495a.495.495 0 0 1 .68.156.49.49 0 0 1-.16.68c-.21.136-.43.265-.65.388l.08.131c-.91.552-2.03.914-3.28 1.088-2.1.486-4.3.435-6.41-.182a21.606 21.606 0 0 1-9.84-5.635l-.01-.004c-.89-.933-1.62-1.467-2.14-2.482-.95.979-1.31 2.156-1.36 3.914v.025a7.718 7.718 0 0 0 2.07 5.892c2.9 3.016 8.57 5.633 14.07 5.702h.01c3.24.094 6.44-.834 9.13-2.654v-.002a13.66 13.66 0 0 0 5.78-8.104l.96.241a14.663 14.663 0 0 1-6.19 8.687 16.509 16.509 0 0 1-9.71 2.819c-5.54-.071-11.24-2.622-14.38-5.629-2.27 2.788-2.3 6.447-1.31 9.706.9 2.981 2.64 5.646 4.37 7.023.05-.017.09-.034.14-.05l.07.213c.2.142.39.267.58.375l.03.018.03.022c.74.579 1.23.622 1.72.693.42.062.84.141 1.36.445a.49.49 0 0 1 .18.676.498.498 0 0 1-.68.176c-.49-.29-.88-.297-1.29-.362-.52-.083-1.09-.224-1.87-.826a6.29 6.29 0 0 1-.4-.252c-1.08.533-2.04 1.499-2.82 2.717-1.45 2.234-2.32 5.318-2.32 8.323v.01c-.04 1.013.04 2.013.23 2.981h.06v.284c.12.512.26 1.015.44 1.506v.003a12.525 12.525 0 0 0 5.18 6.403c.95-1.272 2.01-2.602 3.16-4.035a.5.5 0 0 1 .7-.075c.21.17.24.481.07.693-6.29 7.827-9.65 12.462-9.84 21.781-.18 8.729 2.61 14.699 7.82 20.978.17.21.14.521-.07.695a.487.487 0 0 1-.69-.065c-2.84-3.416-4.97-6.745-6.33-10.45v21.822l.07.002v.247a41.367 41.367 0 0 1-.22 3.69l-.18 1.17c.79-.701 1.69-1.321 2.71-1.888l-.06-.054a18.31 18.31 0 0 1 10.73-5.911l.01-.002c2.48-.304 4.79-.083 7.03.516a39.533 39.533 0 0 1-3.97-3.325l-.01-.008a35.52 35.52 0 0 1-9.29-17.847v-.003a46.567 46.567 0 0 1 .4-19.028v-.002c1.56-6.515 4.97-12.879 9.36-16.932 1.76-1.623 3.68-2.877 5.69-3.632-6.5-1.048-10.11-6.059-9.37-11.878.81-6.274 6.87-8.892 11.31-6.434 3.42 1.899 3.92 5.898 2.01 8.217 3.56-1.435 6.01-3.375 7.67-5.581 3.35-4.425 3.59-9.89 3.59-14.365 0-8.419-3.14-17.233-11.97-20.387.22.24.42.499.6.773.1.03.19.091.26.182 2.87 3.931 1.03 11.707-6.78 11.855a8.579 8.579 0 0 1-6.45-2.917.215.215 0 0 1-.05-.05c-3.07-3.042-4.3-8.414-1.69-13.407a8.354 8.354 0 0 1-5.68-.148l-.01-.004a11.345 11.345 0 0 1-2.84-1.781ZM367.376 397.857a4.486 4.486 0 0 0 1.258-.537 4.161 4.161 0 0 0 1.362-3.231l-.014-.334-.107-.135.086-.069a4.621 4.621 0 0 0-.53-1.642c-1.055-1.83-2.614-2.665-4.223-2.778l-.123-.007c-2.514-.119-5.124 1.5-6.121 3.826-.124.288-.232.573-.325.853l.002.001-.066.198c-.295.956-.416 1.864-.384 2.712.029.671.153 1.312.357 1.918.1.286.22.562.358.826.915 1.756 2.625 3.028 4.704 3.654a10.46 10.46 0 0 0 5.87-.14h.002a38.326 38.326 0 0 0 6.414-2.649 38.71 38.71 0 0 0 8.877-6.355 34.556 34.556 0 0 0 9.017-17.32 45.551 45.551 0 0 0-.392-18.61c-1.513-6.315-4.812-12.493-9.068-16.421-2.783-2.57-5.973-4.175-9.338-4.175-2.227 0-3.653.055-4.956.886a7.25 7.25 0 0 0-1.874 1.774l-.004.006a7.166 7.166 0 0 0-1.242 2.417v.002a7.059 7.059 0 0 0-.296 2.368h.03c.001.248.016.496.044.741.125.818.393 1.608.792 2.335a5.721 5.721 0 0 0 3.587 2.79c1.986.519 4.461.168 5.981-1.357 1.006-1.009 1.572-2.532 1.321-4.637-.074-.619-.501-1.193-1.082-1.606a3.51 3.51 0 0 0-1.113-.526 9.024 9.024 0 0 0-1.04-.08v-.023c-.322.023-.644.1-.956.241-.728.329-1.383 1.005-1.846 2.124a.492.492 0 0 1-.547.296c.045-.514.158-1.02.336-1.505.273-.72.782-1.32 1.436-1.709.071-.038.142-.073.214-.106.832-.376 1.726-.414 2.549-.217 2.751.372 4.233 1.857 5.904 4.15a32.099 32.099 0 0 1 6.467 14.351 40.522 40.522 0 0 1 .973 9.835v.005a26.312 26.312 0 0 1-.794 5.309 29.902 29.902 0 0 1-2.715 7.104c-4.494 8.438-9.294 12.047-13.331 14.34-1.134.645-2.104 1.225-2.951 1.6-.365.163-.696.3-1.003.413a5.214 5.214 0 0 1-.9.278 4.18 4.18 0 0 1-1.4.107c-.856-.049-1.686-.315-2.35-.825-.907-.639-1.537-1.778-1.462-3.566a.494.494 0 0 1 .284-.427l-.002.148c0 2.089 1.369 3.756 3.016 3.756.469 0 .916-.135 1.314-.377Zm255.029-55.246c-.48.096-.93.299-1.31.57-.57.409-1 .976-1.07 1.589-.25 2.095.31 3.612 1.31 4.616 1.52 1.519 3.98 1.867 5.96 1.35a5.68 5.68 0 0 0 2.07-1.019 5.579 5.579 0 0 0 1.5-1.758c.45-.822.74-1.724.83-2.656.1-.93.01-1.871-.26-2.767a7.862 7.862 0 0 0-3.12-4.192c-1.29-.824-2.72-.877-4.93-.877-3.36 0-6.55 1.603-9.32 4.168-4.26 3.926-7.55 10.098-9.06 16.409a45.359 45.359 0 0 0-.39 18.599 34.466 34.466 0 0 0 9.01 17.317 38.842 38.842 0 0 0 8.2 5.984c.4.202.81.413 1.22.633.07.037.13.073.2.109 1.82.902 3.71 1.658 5.65 2.261 1.92.538 3.95.584 5.9.132 2.4-.522 4.17-1.888 5.03-3.708.86-1.822.79-4.084-.42-6.373a7.275 7.275 0 0 0-1.72-2.111.196.196 0 0 1-.05-.041v-.002c-2.58-2.138-6.55-2.602-8.67 1.077-.28.51-.46 1.066-.53 1.643.03.019.05.038.08.057l-.1.113-.01.362c-.02.608.09 1.213.33 1.772.23.546.58 1.035 1.03 1.437 1.17.726 2.74.924 3.78.205.69-.476 1.11-1.358 1.06-2.711a.42.42 0 0 1 .06-.27.49.49 0 0 1 .32-.499c.25-.095.54.034.63.289.36.956.33 1.794.06 2.493-.41 1.035-1.36 1.778-2.47 2.134-.66.212-1.37.286-2.04.213-.75-.051-1.55-.314-2.66-.808-.85-.375-1.82-.955-2.95-1.6-1.65-.939-3.43-2.098-5.27-3.72l-.02.025c-.25-.237-.5-.477-.74-.72-2.41-2.286-4.9-5.416-7.3-9.923a30.136 30.136 0 0 1-2.72-7.106 26.444 26.444 0 0 1-.79-5.314v-.006c-.08-3.304.25-6.604.97-9.818a32.031 32.031 0 0 1 6.47-14.359c1.62-2.225 3.06-3.69 5.66-4.116.89-.265 1.88-.258 2.79.157.92.416 1.78 1.245 2.37 2.659a.518.518 0 0 1-.29.677.512.512 0 0 1-.67-.28c-.46-1.112-1.11-1.784-1.84-2.112-.31-.14-.63-.216-.95-.239-.28.007-.56.025-.82.055Zm-3.44 2.287a17.27 17.27 0 0 0-1.58 1.931l-.01.021a32.04 32.04 0 0 0-6.28 13.945l-.01.009a40.212 40.212 0 0 0-.95 9.597c.08 1.724.34 3.435.77 5.109v.003a28.854 28.854 0 0 0 2.63 6.88v.005a36.678 36.678 0 0 0 6.6 9.15c2.06 1.967 4.06 3.298 5.91 4.345.82.465 1.55.897 2.2 1.238a5.362 5.362 0 0 1-.46-.855 5.235 5.235 0 0 1-.42-2.209v-.137a6.536 6.536 0 0 1-1.8-3.246 26.184 26.184 0 0 1-9.77-9.328.488.488 0 0 1 .16-.679.495.495 0 0 1 .68.164 25.268 25.268 0 0 0 8.53 8.476 6.377 6.377 0 0 1-1.42-4.042c-.01-.393.01-.784.08-1.167-.62-.467-1.22-.967-1.78-1.499l-.38-.408a24.74 24.74 0 0 1-7.4-17.504c-.04-6.415 2.48-12.927 5.46-15.73-.6-1.052-.91-2.397-.76-4.069Zm-240.026 41.146a26.293 26.293 0 0 1-5.547 4.319 6.587 6.587 0 0 1-1.967 4.038l.002.106c.02.759-.14 1.5-.455 2.168.428-.241.883-.506 1.37-.783 3.924-2.229 8.58-5.745 12.948-13.946v-.001a28.832 28.832 0 0 0 2.628-6.878l.001-.003a25.4 25.4 0 0 0 .765-5.107 39.583 39.583 0 0 0-.955-9.606l-.002-.011a31.11 31.11 0 0 0-6.283-13.937l-.006-.008c-.455-.625-.893-1.187-1.351-1.675.084.265.135.542.15.823.212 1.799-.107 3.225-.752 4.32 2.598 3.143 4.661 9.028 4.629 14.834a24.782 24.782 0 0 1-9.311 19.198 6.42 6.42 0 0 1-.385 4.654 25.332 25.332 0 0 0 7.333-7.708.494.494 0 0 1 .602-.202l-.873 1.713c-.294.546-.444.867-.779 1.391a16.68 16.68 0 0 1-1.039 1.425l-.723.876Zm258.656 3.482a5.615 5.615 0 0 0-4.57-5.816c-3.04-.57-5.97 1.436-6.55 4.481-.3 1.597.12 3.22 1.08 4.47.12-.432.29-.851.51-1.248v-.004c2.31-4.023 6.52-3.909 9.53-1.883Zm-271.079-5.912a5.613 5.613 0 0 0-5.733 5.776c1.332-.873 2.929-1.347 4.489-1.246 2.058.011 4.119 1.385 5.463 3.72l.003.005c.098.179.186.363.264.55a5.612 5.612 0 0 0-.837-7.347 6.354 6.354 0 0 0-3.649-1.458Zm264.349-3.65c-.45-.079-.91-.1-1.36-.06a5.208 5.208 0 0 0-3.45 1.729 5.255 5.255 0 0 0-1.33 3.63v.008c0 .994.27 1.962.77 2.803l.01-.065a6.598 6.598 0 0 1 9.34-4.734 5.226 5.226 0 0 0-3.06-3.06c-.3-.093-.61-.167-.93-.223l.01-.028Zm-262.223-.077a5.232 5.232 0 0 0-5.116 3.393 6.6 6.6 0 0 1 3.005-.654l.022.001a6.597 6.597 0 0 1 4.26 1.7 7.338 7.338 0 0 1 2.268 3.371 5.445 5.445 0 0 0 .565-2.437v-.007a5.225 5.225 0 0 0-2.853-4.802 4.818 4.818 0 0 0-2.151-.52v-.045Zm33.711-35.187a13.278 13.278 0 0 1-4.89 5.439c2.203 3.006 3.837 5.736 4.89 8.826V344.7Zm194.422.168v12.806c1.05-2.745 2.59-5.245 4.59-7.976a13.58 13.58 0 0 1-4.59-4.83Zm-217.651-1.03.017.039.016-.013-.033-.026Zm241.961-67.537c-.59.038-1.19.104-1.78.202-.97.163-1.94.412-2.86.755-.98.359-1.91.822-2.78 1.386-.44.286-.87.598-1.27.933-.23.193-.46.394-.68.603-.22.27-.47.529-.75.777l-.01.011c-4.13 4.629-3.9 10.216-1.43 13.754.13.027.25.106.32.229.23.384.5.744.78 1.076 1.42 1.369 3.25 2.197 5.29 2.159 5.38-.101 7.56-4.327 6.99-7.799-.23-1.458-.95-2.783-2.13-3.584-1.41-.961-2.63-1.208-3.64-1.019-1.48.279-2.48 1.485-2.94 2.522-1.03 2.311 1.29 4.55 3.15 3.202a.494.494 0 0 1 .58.8c-2.64 1.906-6.05-1.08-4.66-4.346 1.3-5.715 6.17-6.312 10.14-6.254 4.26.063 7.99 2.107 10.95 5.334 4.36 4.765 7 12.12 7.07 19.332.16 15.265-6.55 24.199-17.71 24.676-1.78.077-4.33-.406-6.1-1.582-1.21-.801-2.07-1.918-2.17-3.368-.2-.861-.01-1.787.74-2.572.19-.197.5-.203.7-.015.2.189.2.502.01.698-.49.514-.62 1.111-.49 1.67l.01-.001c0 .03.01.059.01.088.07.252.19.495.35.718.57.795 1.64 1.343 2.82 1.203 4.17-.496 4.78-5.951.91-8.097-3.88-2.149-9.14.209-9.85 5.696-.74 5.784 3.29 10.646 10.26 10.951h.01c.48.025.97.036 1.45.034.34-.029.67-.043 1.01-.043l.38.001a26.439 26.439 0 0 0 13.37-4.542c11.2-8.224 11.36-21.589 9.73-32.442-1.25-8.32-6.77-14.798-10.05-17.667v-.004a30.895 30.895 0 0 0-5.53-3.047 32.153 32.153 0 0 0-5.85-1.867 27.144 27.144 0 0 0-2.89-.465c-.48-.049-.96-.082-1.44-.096h-.02Zm-234.535 3.737c-6.248-6.009-16.733-4.197-23.682 1.329A32.94 32.94 0 0 0 352 299.256v.002a33.785 33.785 0 0 0-.899 7.811 34.95 34.95 0 0 0 5.482 18.014c.584.887 1.247 1.72 1.988 2.495l.007.008a38.759 38.759 0 0 0 2.913 2.991c4.135 3.437 9.457 6.137 15.975 5.86 6.971-.296 11.003-5.166 10.261-10.951-.462-3.601-2.991-6.045-5.698-6.57a3.355 3.355 0 0 0-.259-.028.496.496 0 0 1-.155-.037c-1.277-.154-2.572.123-3.688.912-.963.679-1.665 1.934-1.904 3.268-.352 1.969.336 4.135 2.847 4.873 1.102.324 2.134-.223 2.701-1.042.168-.242.295-.51.37-.787a3.18 3.18 0 0 0 .014-.198l.03.002a1.87 1.87 0 0 0-.501-1.669.494.494 0 0 1 .712-.683c.773.805.953 1.811.717 2.743-.173 1.456-1.019 2.557-2.182 3.339-1.781 1.197-4.318 1.622-6.099 1.445-7.367-.728-10.983-6.23-12.435-8.637l-.002-.004a29.618 29.618 0 0 1-3.533-9.815c-.249-1.288-.395-2.689-.572-4.213l-.003-.031a32.248 32.248 0 0 1 1.034-9.921 20.21 20.21 0 0 1 1.508-4.237 28.584 28.584 0 0 1 2.222-3.867l.002-.004a14.36 14.36 0 0 1 2.33-2.57 24.842 24.842 0 0 1 2.503-1.9l.004-.002c6.346-4.014 12.729-3.37 16.01-.599a4.949 4.949 0 0 1 1.935 2.907l.007.033c.282 1.765-.295 3.159-1.252 3.944a3.169 3.169 0 0 1-1.798.715 2.83 2.83 0 0 1-1.98-.444l-.009-.005a.502.502 0 0 1-.097-.066l-.043-.031a.494.494 0 0 1 .579-.8c.022.017.045.033.068.048.527.265 1.055.357 1.538.297 1.328-.323 2.348-2.056 1.673-3.818-.401-1.046-1.453-2.141-2.971-2.346-1.052-.142-2.314.145-3.74 1.114-1.178.802-1.896 2.126-2.134 3.584a6.846 6.846 0 0 0-.047 1.822h.004c.011.106.023.211.037.315.441 2.862 2.695 5.581 7.002 5.662 2.759.052 5.077-1.539 6.484-3.902 2.146-3.607 2.178-9.003-1.532-13.319l-.008-.007a7.758 7.758 0 0 1-.866-.919Zm15.803 40.971c-.961 1.753-2.433 3.341-4.446 5.182a15.069 15.069 0 0 1 4.446 5.383v-10.565Zm194.422-.115v9.302c.23-.47.49-.918.76-1.337.79-1.227 1.75-2.215 2.81-2.847-1.32-1.181-2.62-3.003-3.57-5.118Zm-216.019-36.227c-3.249-1.243-7.901-.912-12.533 2.017a23.593 23.593 0 0 0-2.394 1.818 13.371 13.371 0 0 0-2.168 2.39 27.686 27.686 0 0 0-2.142 3.732l-.001.003a19.134 19.134 0 0 0-1.439 4.045l-.002.007a31.252 31.252 0 0 0-1.005 9.608c.174 1.494.316 2.866.561 4.135l.001.006a28.628 28.628 0 0 0 3.413 9.488c1.367 2.265 4.749 7.471 11.682 8.156 1.502.149 3.608-.172 5.178-1.109-.422.051-.865.02-1.316-.112-1.247-.367-2.134-1.016-2.72-1.82-3.213.592-5.177-.693-7.297-2.812l-.006-.006a14.748 14.748 0 0 1-1.675-2.156 25.125 25.125 0 0 1-3.671-8.981 31.485 31.485 0 0 1-.256-10.576l.005-.03c.683-3.261 1.796-6.985 3.689-9.668a14.458 14.458 0 0 1 5.7-4.738 20.767 20.767 0 0 1 3.827-1.344c.262-.272.551-.519.868-.734 1.368-.93 2.615-1.302 3.701-1.319Zm238.699 44.654c1.41.567 3.01.795 4.22.743 10.66-.456 16.91-9.098 16.77-23.68-.07-6.965-2.61-14.074-6.82-18.676-2.76-3.019-6.25-4.955-10.23-5.013-2.76-.04-6.05.2-7.93 2.697.44-.27.94-.474 1.49-.578.8-.151 1.72-.092 2.74.302l.01-.036.48.107c11.12 2.47 15.06 12.457 15.06 22.013 0 4.665-.3 10.348-3.79 14.96-2.31 3.057-6.02 5.655-12 7.161Zm-1.02-.501c.08.049.17.096.25.142l-.02-.103a4.6 4.6 0 0 1-.23-.039Zm-216.082-22.204c-.292.474-.612.93-.959 1.366.359.379.68.791.959 1.23v-2.596Zm194.422 2.579c.23-.377.5-.743.79-1.096a8.637 8.637 0 0 1-.79-1.093v2.189Zm-194.422-13.548a18.8 18.8 0 0 1-.869 1.636c.317.262.608.554.869.871v-2.507Zm194.422.203v1.823c.19-.239.41-.467.65-.688-.23-.377-.45-.756-.65-1.135Zm-194.422-16.913a10.702 10.702 0 0 1-2 2.55 12.62 12.62 0 0 1 2 2.734v-5.284Zm194.422-1.134v5.404a11.89 11.89 0 0 1 2.15-2.574c-.87-.808-1.59-1.75-2.15-2.83Zm21.97-52.505c.36 1.178.56 2.414.56 3.656 0 6.754-3.58 10.897-6.21 14.023-1.61 1.911-3.32 3.668-5.25 5.613-1.62 1.698-3.39 3.58-5.05 5.609-2.56 3.11-4.89 6.569-6.02 10.25v.255h-.08c-.41 1.423-.65 2.878-.65 4.358 0 1.407.09 2.705.27 3.897h.02v.165c.66 4.171 2.53 7.008 6.11 8.627 2.88 1.302 6.24-.097 7.81-1.483l.01-.012c.24-.259.48-.508.73-.746 1.63-1.972 1.83-4.52 1.01-6.468-.59-1.418-1.72-2.519-3.24-2.795-2.23-.404-3.55 1.146-3.77 2.739-.13.926.1 1.876.78 2.432.16.131.34.238.55.318.21.067.43.11.64.125v.025c.23.024.48.023.74-.006l.11.981c-.74.079-1.36-.009-1.88-.215-.75-.252-1.5-.723-2.18-1.359-1.4-1.319-2.48-3.338-2.56-5.426-.12-3.557 1.81-7.189 4.48-10.592 3.89-4.955 9.33-9.435 11.8-12.515 4.69-5.834 6.35-8.367 6.35-14.232v-.003a7.567 7.567 0 0 0-5.08-7.221ZM388.129 280.27c1.573 1.385 4.932 2.782 7.812 1.481 4.646-2.098 6.396-6.245 6.396-12.689 0-5.41-3.146-10.482-6.746-14.862-3.679-4.477-7.844-8.236-9.796-10.891-3.962-5.388-5.686-8.244-5.686-15.301v-.003c.014-1.019.167-2.023.45-2.987-3.478.603-6.72 3.639-6.72 7.329 0 5.867 2.371 8.57 7.058 14.407 2.475 3.081 7.659 7.501 11.343 12.408 2.528 3.366 4.345 6.966 4.216 10.521-.064 1.802-.733 3.814-1.684 5.25l.001.028h-.02a7.111 7.111 0 0 1-.409.555c-.691.845-1.496 1.375-2.31 1.454a5.165 5.165 0 0 1-1.588.091.493.493 0 1 1 .085-.983c.221.019.432.022.632.011.605-.069 1.092-.377 1.45-.671.444-.364.695-.899.78-1.482.222-1.51-.658-3.351-2.456-3.696a4.027 4.027 0 0 0-.607-.058c-.224 0-.46.021-.706.065-1.519.276-2.654 1.377-3.248 2.795-.796 1.905-.624 4.384.911 6.337.288.279.566.573.835.883l.007.008Zm2.75-46.128-.089-.139a18.492 18.492 0 0 1-1.648-3.245.49.49 0 0 1-.033-.166 18.062 18.062 0 0 1-1.084-5.278v-.004c-.107-2.782.136-4.932 1.036-7.072a10.155 10.155 0 0 0-7.965 9.777c0 6.785 1.682 9.525 5.494 14.71 1.945 2.644 6.098 6.387 9.764 10.848 2.499 3.042 4.767 6.414 5.999 9.994v-23.712h37.31c-3.85-.856-7.831-2.354-11.552-4.885-2.966-2.017-6.052-4.37-8.033-7.105-2.053-2.835-2.941-6.074-1.408-9.775 1.344-3.243 4.23-4.924 7.3-5.166l-.073-.109c-2.472-3.634-6.829-4.626-10.024-2.215-3.97 2.997-4.932 8.106-3.856 13.503a13.08 13.08 0 0 0 6.09 8.193c.235.138.314.44.176.675l-.011.018a22.17 22.17 0 0 1-2.726-1.635 10.993 10.993 0 0 1-2.002-1.966l-.006-.008a10.32 10.32 0 0 1-1.238-1.81 19.781 19.781 0 0 1-.97-2.351.533.533 0 0 0-.064-.126 14.023 14.023 0 0 1-.215-.786l-.002-.01c-.959-4.799-.356-9.377 2.307-12.638-3.559-1.484-6.509-1.089-8.75 1.576-2.77 3.294-2.859 8.142-2.304 10.864.83 4.077 2.014 5.765 5.256 8.722a.494.494 0 0 1 .121.558c-1.067-.701-1.98-1.228-3.005-2.354l-.005-.005a11.696 11.696 0 0 1-2.133-3.052 22.314 22.314 0 0 1-.914-2.407 26.93 26.93 0 0 1-.287-1.265c-.551-2.704-.484-7.351 1.87-10.84-4.441-2.661-9.162-1.344-11.79 2.548-2.034 3.013-2.547 5.535-2.404 9.265a17.06 17.06 0 0 0 2.592 8.173 17.445 17.445 0 0 0 6.098 5.802l-.001.001.006.004c.237.134.32.436.185.673l-.012.02-2.242-1.31a18.556 18.556 0 0 1-2.837-2.302l-.005-.006a14.157 14.157 0 0 1-1.916-2.182Zm191.916-23.31a5.353 5.353 0 0 0-.29-.232c-3.2-2.411-7.56-1.419-10.03 2.215l-.09.14c1.46.113 2.89.555 4.12 1.337l.02-.034a9.981 9.981 0 0 1 3.6 4.278v.005c1.53 3.69.64 6.921-1.41 9.748-1.97 2.733-5.06 5.084-8.02 7.1l-.01.002a33.74 33.74 0 0 1-9.8 4.464h35v.163h.89v21.675c1.3-2.886 3.2-5.615 5.26-8.121a80.145 80.145 0 0 1 3.4-3.863l-.05-.049c.67-.668 1.3-1.306 1.92-1.926 1.84-1.935 3.47-3.624 4.49-5.01 3.57-4.85 5.88-7.367 5.88-14.15a11.072 11.072 0 0 0-8.06-10.225c1.01 2.251 1.28 4.475 1.17 7.4-.19 5.257-3.16 9.271-6.51 12.144-.41.363-.84.708-1.29 1.035-.56.42-1.11.812-1.66 1.173a.512.512 0 0 1-.4.066.495.495 0 0 1-.25-.924c.62-.351 1.22-.737 1.79-1.157.34-.256.67-.523 1-.801a17.047 17.047 0 0 0 5.9-12.017c.14-3.73-.37-6.252-2.41-9.264v-.001a9.462 9.462 0 0 0-1.93-2.117c-.55-.422-1.15-.789-1.78-1.094a.148.148 0 0 1-.05-.031c-2.38-1.065-5.21-.959-7.94.642 2.72 3.54 2.92 8.543 2.23 11.358-1.07 4.349-2.51 6.226-6.04 8.828a.496.496 0 0 1-.69-.104.501.501 0 0 1 .07-.664c3.24-2.956 4.43-4.644 5.26-8.715.65-3.8-.18-7.707-2.33-10.906-.03-.037-.06-.073-.08-.109-.13-.127-.27-.25-.4-.369a.483.483 0 0 1-.17-.325c-.73-.792-1.53-1.336-2.41-1.63-1.61-.541-3.48-.236-5.64.832 3.05 3.305 3.88 8.168 2.65 13.163-1.01 4.098-3.58 6.564-6.79 8.52a.496.496 0 0 1-.68-.164.504.504 0 0 1 .13-.655l-.1-.167a12.932 12.932 0 0 0 3.88-3.485 13.14 13.14 0 0 0 2.22-4.721c.97-4.888.27-9.548-2.84-12.607-.19-.163-.38-.32-.58-.471a.526.526 0 0 1-.15-.18Zm-35.98 29.023h3.65c5.83-.199 12.91-1.425 19.23-5.718 2.87-1.951 5.86-4.215 7.78-6.86 1.85-2.551 2.67-5.463 1.29-8.792-2.13-5.132-8.61-5.8-12.62-2.75l1.21-.916-1.24.937-.26.181a6.285 6.285 0 0 0-2.55 4.074 6.3 6.3 0 0 0 1.08 4.684 5.395 5.395 0 0 0 5.46 1.985c3.28-1.04 4.4-4.637 2.78-6.747-.37-.483-.99-.695-1.62-.662-.99.052-2.02.719-2.26 2.007a.492.492 0 1 1-.97-.18c.34-1.809 1.78-2.74 3.18-2.813l.16-.01c1.14-.06 2.22.509 2.82 1.476 1.91 2.515.65 6.798-3.13 8.177-5.62 5.038-11.54 6.764-19.87 7.033-2.66.086-7.46-.731-10.85-2.564a7.755 7.755 0 0 1-1.26-.776l-.01-.009c-2.23-1.591-4.71-4.318-3.14-9.04.98-2.94 5.73-11.18 5.96-16.891.32-7.915-2.45-12.522-6.96-14.574-.05-.021-.1-.041-.16-.061l.01-.008c-.29-.124-.58-.239-.88-.343-4.76-1.681-9.69-.136-14.2 2.053-4.66 2.257-8.88 5.206-12.06 6.266-2.61.94-5.39 1.372-8.16 1.271-2.8.102-5.6-.329-8.24-1.271-3.17-1.06-7.4-4.009-12.05-6.266-4.52-2.19-9.45-3.735-14.21-2.054-5.11 1.805-8.33 6.489-7.98 14.987.23 5.71 4.97 13.951 5.95 16.891 1.57 4.721-.9 7.449-3.14 9.039-3.346 2.386-9.103 3.447-12.117 3.35-8.651-.279-14.71-2.132-20.528-7.637l-1.822-1.852a37.728 37.728 0 0 0 1.822 1.852l.001.001a9.79 9.79 0 0 1-1.475-1.417c-1.748-1.881-2.04-4.624-.622-6.473.433-.565 1.069-.907 1.766-1.015 1.556-.241 3.429.691 3.824 2.823a.522.522 0 0 1-.417.607.522.522 0 0 1-.607-.417c-.235-1.273-1.215-1.947-2.175-2.005-.604-.037-1.202.167-1.565.64-.729.952-.871 2.183-.503 3.34l.026-.008c.144.5.426 1.022.796 1.521.61.756 1.484 1.381 2.588 1.731a5.373 5.373 0 0 0 5.427-1.988 6.263 6.263 0 0 0-.58-7.942 6.99 6.99 0 0 0-.277-.201l.03-.043a6.028 6.028 0 0 0-.642-.526l-.265-.18.284.084-.315-.106c-3.996-3.039-10.457-2.376-12.577 2.739-1.376 3.32-.553 6.222 1.289 8.766 1.914 2.643 4.909 4.905 7.775 6.854 7.24 4.923 15.493 5.808 21.705 5.74 14.204-.154 24.994-6.961 32.024-10.819 1.14-.631 2.31-.777 3.27-.531.77.143 1.43.485 1.85.992a3.8 3.8 0 0 1 .85 2.592 3.69 3.69 0 0 1-1.12 2.491.488.488 0 0 1-.68.007.53.53 0 0 1-.51-.165.526.526 0 0 1 .05-.735 2.597 2.597 0 0 0 .33-3.557c-.72-.865-2.15-.944-3.54-.182-.14.077-.28.155-.43.234l.07.057a6.083 6.083 0 0 0-1.26 2.673c-.2.978-.16 1.99.12 2.955.78 2.354 2.5 3.952 4.98 3.952 5.8 0 8.97-6.694 6.58-11.229-.55-1.055-1.19-1.895-1.9-2.549-.01-.011-.03-.022-.04-.032a.573.573 0 0 1-.1-.088c-2.03-1.787-4.62-2.1-7.47-1.624-4.12.688-8.77 2.975-13.15 5.013l-1.01.467.22-1.085c.42-2.085 1.16-2.76 1.08-5.344-.09-3.167-1.32-5.464-2.75-7.704-1.51-2.362-3.24-4.663-4.23-7.746-1.22-3.839-1.63-7.163 1.17-9.889 2.49-2.407 5.36-2.413 8.59-1.145 2.43.951 5.06 2.611 8.16 4.276 4.55 2.444 10.15 4.899 17.67 5.011 7.52-.114 13.09-2.568 17.63-5.011 3.09-1.665 5.71-3.325 8.13-4.276 3.24-1.268 6.11-1.263 8.59 1.145 2.81 2.726 2.4 6.05 1.17 9.889-.99 3.082-2.71 5.384-4.22 7.745-1.43 2.241-2.66 4.538-2.76 7.706-.07 2.583.67 3.258 1.09 5.344l.22 1.085-1.01-.467c-4.38-2.037-8.93-4.22-13.01-4.856-3.89-.607-7.32.236-9.67 4.162-1.3 2.175-1.08 4.971.16 7.224 1.25 2.257 3.54 3.979 6.43 3.979 2.48 0 4.22-1.495 4.99-3.96.69-2.237-.01-3.543-1.2-5.705l.05-.03-.35-.195c-1.4-.77-2.85-.685-3.58.189a2.625 2.625 0 0 0 .33 3.595c.21.179.23.491.05.696a.497.497 0 0 1-.7.046 3.624 3.624 0 0 1-.45-4.959l.01-.004c.98-1.183 2.92-1.468 4.81-.427 6.84 3.754 17.24 10.298 30.88 10.795h-.01.03c.37.014.75.023 1.14.028l-1.14-.028h-.02Zm-86.89-.046c-.08.015-.15.031-.22.046h.23l-.01-.046Zm20.21-6.968a155.54 155.54 0 0 1-3.26 1.757c-1.29.673-2.6 1.319-3.93 1.927a66.194 66.194 0 0 1-4.94 2.044c-.85.31-1.7.602-2.57.872-.45.143-.91.28-1.37.412l-.01.002h18.85c-1.17-.833-2.04-2.106-2.55-3.669v-.008a7.346 7.346 0 0 1-.18-3.36l-.04.023Zm10.46 6.93c-.04.029-.09.057-.14.084h.17l.03-.023a.87.87 0 0 1-.06-.061Zm42.52-40.638c-2.02-1.57-4.3-1.421-6.86-.416-2.4.937-4.98 2.58-8.03 4.223-4.66 2.511-10.39 5.023-18.12 5.137v-.447l-.01.001v.446c-7.73-.114-13.48-2.626-18.16-5.137-3.06-1.642-5.66-3.285-8.05-4.223-2.81-1.102-5.31-1.172-7.47.919v.001c-2.5 2.424-1.99 5.397-.9 8.811.96 2.987 2.65 5.211 4.11 7.5 1.53 2.394 2.82 4.857 2.92 8.24.04 1.014-.08 2.025-.34 3.002 3.76-1.742 7.61-3.424 11.08-4.005 3.34-.556 6.34-.131 8.66 2.102 2.43 1.921 4.11 4.302 3.81 8.088-.16 2.122-.52 3.433-1.23 4.501-.47.712-1.11 1.318-1.98 1.979h15.38c-1.42-.823-2.57-2.055-3.36-3.478-1.44-2.601-1.65-5.83-.15-8.342 2.63-4.393 6.46-5.373 10.82-4.694 3.83.599 8.09 2.525 12.24 4.454-.41-1.414-.89-2.298-.83-4.485.1-3.398 1.4-5.872 2.94-8.276 1.46-2.285 3.14-4.503 4.09-7.484 1.04-3.236 1.55-6.072-.56-8.417Zm-14.92 32.311c1 1.735 1.06 3.357.67 5.54-.22 1.233-.84 2.046-1.69 2.871h21.59l-.02-.006a53.596 53.596 0 0 1-5.83-1.581 64.38 64.38 0 0 1-6.08-2.385 85.372 85.372 0 0 1-4.67-2.282c-.72-.374-1.43-.756-2.14-1.144-.61-.329-1.21-.663-1.81-.998l-.02-.015Zm106.72 4.996-.17.858c.07-.279.12-.565.17-.858Z" clip-rule="evenodd"/>
			<path fill="#713F2A" stroke="#713F2A" stroke-width=".28" d="M520.661 212.678c-.08-2.649-2.69-2.924-3.69-2.924-2.885 0-3.666 1.8-7.265 3.732-4.512 2.424-6.455 2.962-10.466 2.998-4.01-.036-6.005-.575-10.517-2.998-3.6-1.932-4.205-3.674-7.091-3.674a3.64 3.64 0 0 0-3.516 3.757l.003.075c-.016.451.015.903.093 1.347.047.204.296.14.374.32a3.64 3.64 0 0 1 .8-2.633 3.415 3.415 0 0 1 2.54-1.313c2.885 0 3.953 1.851 7.553 3.784 4.512 2.423 6.453 2.962 10.464 2.998 4.01-.036 6.007-.575 10.519-2.998 3.6-1.933 4.634-3.938 7.52-3.938a2.121 2.121 0 0 1 2.032 1.667c.103.423.15.858.14 1.293.026.121.174.109.207.24.225-.549.327-1.14.3-1.733Z"/>
			<g>
				<path fill="#713F2A" d="M479.388 459.502c.472-.246 1.084-.564 1.094-1.734l.061-7.089c.021-2.388-.813-2.653-1.369-2.829a1.243 1.243 0 0 1-.342-.143 4.468 4.468 0 0 1-.082.049c-.253.151-.609.362-.918.972l-5.433 10.82c-.222.469-.315.574-.499.56-.167-.013-.32-.212-.56-1.017l-3.316-11.154a1.476 1.476 0 0 0-1.118-1.21c-.048-.022-.258-.152-.247-.282.029-.365.372-.306.633-.261.06.011.115.02.161.024l1.685.207c.723.058 1.181.06 1.486.062.146.001.257.001.344.008l.084.006c.461.035.535.041.512.34-.018.223-.222.276-.449.336-.283.073-.601.156-.635.589.007.89.153 1.773.435 2.617l1.704 6.16.014.049c.041.142.101.355.19.361.082.005.155-.164.212-.295l.036-.079 2.739-5.474a5.763 5.763 0 0 0 .708-2.152c.086-1.087-.555-1.284-1.041-1.434-.296-.091-.534-.165-.515-.411.025-.315.41-.274.636-.25l.074.007c.243.019.48.056.717.094.237.037.474.075.716.094.233.018.467.018.702.017.237 0 .474 0 .71.019l.137.008c.078.005.148.008.208.018a.284.284 0 0 1 .117-.022c.157.001.31.021.462.041.158.021.316.042.478.042.179.002.357-.01.566-.023.304-.019.672-.042 1.198-.036.36.003.387.062.457.208.034.071.078.165.177.283l6.678 8.286c.217.263.417.489.517.49.1.001.135-.223.14-.689l.053-6.213c.01-1.06-.785-1.334-1.383-1.541-.36-.124-.649-.224-.647-.455.001-.13.053-.314.271-.314l1.914.091c.78.007 1.306-.029 1.588-.048.1-.006.17-.011.209-.011.317.002.317.187.317.244-.002.195-.176.267-.403.36-.424.174-1.032.423-1.042 1.699l-.092 10.466c-.003.411-.004.558-.206.558a.493.493 0 0 1-.434-.265l-7.992-9.772c-.117-.15-.216-.245-.3-.245-.101-.001-.137.13-.137.298l-.055 6.342c-.021 2.397.938 2.631 1.573 2.786.315.076.55.134.547.424-.001.242-.36.239-.588.237h-.052l-1.98-.092-1.444.062c-.033 0-.07.002-.11.005-.183.012-.411.028-.409-.233.002-.288.243-.413.538-.566Z"/>
				<path fill="#713F2A" d="M497.616 447.999c-.369.111-.864.259-.874 1.368l-.077 8.9c-.013 1.52.81 1.664 1.366 1.761.284.05.498.087.496.289-.001.205-.153.275-.54.275l-2.55-.097c-.386-.003-.773.016-1.116.034-.298.015-.563.029-.766.024-.151-.001-.183-.132-.182-.225.002-.247.175-.33.391-.433.355-.17.825-.394.834-1.497l-.015-8.955c.009-1.048-.677-1.257-1.201-1.416-.325-.099-.589-.179-.587-.429.003-.282.333-.267.513-.258l.06.002c.329.002.657.025.977.047.318.022.627.043.92.043a15 15 0 0 0 .824-.024c.377-.018.804-.038 1.342-.032.505.005.587.043.585.267-.001.237-.178.29-.4.356Z"/>
				<path fill="#713F2A" d="M502.471 459.723c.558-.116 1.324-.274 1.311-1.686l-.075-8.658c-.008-.894-.176-.99-.866-.98l-1.41.014c-1.163.01-1.416.929-1.611 1.642-.124.449-.225.816-.517.82-.318.003-.27-.332-.234-.576l.01-.075.247-2.465.003-.044c.013-.181.029-.406.262-.406.7-.006 1.312.003 1.995.014.842.012 1.791.027 3.144.016l5.137-.12c.234-.002.253.221.269.402l.004.044.2 1.715.016.091c.054.285.162.862-.226.862-.248.002-.334-.28-.441-.632-.182-.6-.426-1.403-1.642-1.346l-1.427.011c-.688.006-.855.101-.848.996l.073 8.433c.014 1.553 1.001 1.798 1.639 1.957.305.076.529.131.531.3.004.407-.273.404-.687.4l-.133-.001-2.351-.054-2.35.095h-.033c-.29.005-.553.009-.559-.386-.002-.265.249-.317.569-.383Z"/>
				<path fill="#713F2A" fill-rule="evenodd" d="M517.636 456.845c-.666-1.407-.764-1.587-1.2-1.553l-3.297.26c-.285.022-.631.124-.919 1.382-.143.487-.223.99-.236 1.497.066.83.777.977 1.317 1.088.331.068.598.122.613.313.024.314-.312.318-.627.322-.077 0-.154.001-.223.007l-1.58.05c-.254.02-.502.058-.748.097-.24.037-.479.074-.719.093a2.753 2.753 0 0 0-.086.008c-.208.02-.414.04-.432-.173-.014-.18.131-.277.328-.409.272-.18.643-.428.837-1.049l3.651-11.61.046-.159c.072-.26.141-.51.321-.525.151-.012.187.023.449.563l5.415 11.028c.375.75.822.786 1.137.812.222.017.378.03.398.284.022.284-.099.293-.453.317l-.127.009-2.166.096-1.835.22-.101.009c-.247.022-.418.038-.436-.192-.017-.22.173-.332.398-.464.328-.192.728-.427.675-1.099a3.494 3.494 0 0 0-.4-1.222Zm-4.148-2.331.074-.006 2.276-.179.075-.006c.265-.019.46-.034.448-.204a1.921 1.921 0 0 0-.238-.673l-1.638-3.259c-.043-.053-.062-.087-.074-.108-.019-.035-.02-.036-.072-.03-.033.002-.099.026-.166.238l-1.03 3.393a1.922 1.922 0 0 0-.13.703c.014.17.21.154.475.131Z" clip-rule="evenodd"/>
				<path fill="#713F2A" d="M531.322 445.989c-2.014.265-2.078.293-1.91 1.569l.341 2.59c.105.796.122.925.837.831l1.05-.139c.965-.127 1.2-.945 1.353-1.478.074-.257.129-.448.237-.462l.022-.003c.116-.018.278-.044.355.424l.55 3.277.017.079c.062.279.181.816-.181.864-.19.025-.285-.216-.408-.526-.222-.56-.534-1.345-1.648-1.198l-1.232.162c-.705.093-.68.281-.56 1.152l.032.235.36 2.738c.181 1.374 1.057 1.51 1.636 1.6.285.045.498.078.52.243.042.315-.212.341-.546.376a7.252 7.252 0 0 0-.181.021l-1.99.186-2.122.355c-.216.028-.327-.051-.343-.162-.043-.324.133-.404.351-.503.355-.162.821-.374.637-1.772l-1.14-8.658c-.131-.998-.833-1.095-1.394-1.173-.375-.052-.687-.095-.726-.391l-.001-.026a.332.332 0 0 1 .326-.337l4.438-.509 3.793-.575a.343.343 0 0 1 .373.309l.307 1.822.013.061c.058.267.169.782-.184.828-.258.034-.321-.199-.404-.509-.17-.631-.426-1.584-2.578-1.301Z"/>
				<path fill="#713F2A" fill-rule="evenodd" d="M542.249 456.97c-3.319.615-6.007-1.448-6.697-5.172-.745-4.018.89-7.452 4.829-8.219 3.213-.634 6.112 1.276 6.833 5.166.475 2.568.302 7.249-4.965 8.225Zm-2.217-12.511c-2.78.572-3.136 3.257-2.643 5.917.496 2.678 2.247 6.32 5.192 5.717 2.83-.581 3.299-3.211 2.734-6.256-.751-4.055-3.16-5.809-5.283-5.378Z" clip-rule="evenodd"/>
				<path fill="#713F2A" fill-rule="evenodd" d="M549.908 454.922c.352-.257.878-.642.513-2.162l-1.916-7.983c-.311-1.297-1.084-1.318-1.642-1.334-.317-.009-.565-.016-.622-.252-.043-.182.098-.312.294-.359l1.928-.386 3.281-.864c3.576-.858 4.517 1.621 4.717 2.456a2.955 2.955 0 0 1-.403 2.494c-.164.234-.34.418-.482.567-.181.19-.307.322-.282.423l3.77 4.41a.622.622 0 0 0 .657.149c.082-.02.158-.067.233-.113a.798.798 0 0 1 .231-.113l.02-.004a.246.246 0 0 1 .286.199c.135.562-.847 1.22-1.5 1.378-1.264.303-2.055-.669-2.8-1.585l-.045-.055-2.06-2.537a1.356 1.356 0 0 0-1.717-.605c-.779.187-.753.29-.628.773l.044.174.753 3.138c.295 1.228.979 1.226 1.481 1.224.291-.001.522-.001.579.239.04.163-.064.303-.44.393-.108.026-.244.047-.409.073-.26.04-.594.091-1.012.192l-2.498.676c-.019.005-.041.01-.063.017-.185.05-.455.124-.533-.2-.047-.195.087-.293.265-.423Zm1.352-12.399c-.603.145-1.109.266-.848 1.355l.88 3.665c.109.453.712.308 1.202.19 2.483-.595 2.337-1.635 2.08-2.705-.427-1.778-1.664-2.901-3.314-2.505Z" clip-rule="evenodd"/>
				<path fill="#713F2A" d="M563.027 451.7c.514-.246 1.219-.586.865-1.953l-2.168-8.381c-.224-.867-.41-.915-1.077-.743l-1.365.353c-1.126.291-1.149 1.246-1.166 1.984-.011.467-.02.847-.303.92-.307.08-.342-.256-.367-.501a1.617 1.617 0 0 0-.008-.076l-.356-2.452-.007-.041c-.032-.179-.071-.401.155-.459l4.993-1.214 4.956-1.36c.225-.058.298.153.357.325l.015.042.609 1.615.039.087c.121.264.362.791-.012.889-.24.062-.392-.191-.58-.507-.322-.538-.753-1.259-1.92-.909l-1.382.358c-.666.172-.805.305-.581 1.172l2.112 8.164c.389 1.504 1.406 1.503 2.063 1.503.314 0 .545-.001.587.163.1.388-.161.452-.556.549l-.142.036-2.295.517-2.257.66-.037.01c-.279.073-.532.139-.63-.242-.066-.256.165-.367.458-.509Z"/>
				<path fill="#713F2A" d="M572.945 436.733c-.325.208-.76.487-.463 1.555l2.378 8.575c.407 1.465 1.237 1.376 1.799 1.317.287-.031.503-.054.557.141.055.198-.071.31-.442.413l-2.48.61-1.793.575c-.145.04-.213-.077-.238-.167-.066-.238.078-.365.257-.523.295-.261.685-.607.39-1.67l-2.394-8.63c-.28-1.01-1.03-1.011-1.605-1.012-.356-.001-.644-.001-.711-.242-.075-.272.246-.349.421-.39l.059-.015 1.848-.435 2.068-.651c.486-.134.576-.12.636.095.064.229-.092.329-.287.454Z"/>
				<path fill="#713F2A" fill-rule="evenodd" d="M583.414 446.647c-3.202 1.071-6.15-.598-7.352-4.19-1.296-3.875-.155-7.502 3.638-8.812 3.094-1.074 6.23.415 7.485 4.166.829 2.476 1.309 7.136-3.771 8.836Zm-3.937-12.081c-2.673.954-2.652 3.662-1.794 6.227.864 2.583 3.105 5.945 5.938 4.939 2.721-.97 2.819-3.639 1.836-6.576-1.308-3.91-3.937-5.313-5.98-4.59Z" clip-rule="evenodd"/>
				<path fill="#713F2A" fill-rule="evenodd" d="M590.639 443.335c.313-.305.78-.759.208-2.213l-3.009-7.638c-.489-1.241-1.256-1.155-1.811-1.093-.315.036-.562.063-.651-.163-.069-.174.053-.321.241-.396l1.855-.65 3.129-1.313c3.422-1.347 4.698.976 5.012 1.776.36.808.342 1.734-.05 2.527a4.77 4.77 0 0 1-.399.626c-.153.214-.259.362-.221.459l4.347 3.843a.621.621 0 0 0 .672.056.817.817 0 0 0 .213-.144c.068-.057.136-.114.215-.145l.02-.007a.246.246 0 0 1 .31.158c.212.538-.669 1.326-1.294 1.572-1.209.476-2.127-.375-2.992-1.177l-.054-.05-2.393-2.225a1.354 1.354 0 0 0-1.784-.36c-.745.294-.705.391-.514.853l.067.165 1.183 3.004c.463 1.175 1.14 1.077 1.638 1.005.288-.042.516-.075.606.155.062.157-.022.31-.382.452a5.103 5.103 0 0 1-.397.129c-.251.076-.574.173-.974.331l-2.378 1.017a2.031 2.031 0 0 0-.06.025c-.176.076-.435.187-.556-.123-.073-.186.045-.302.203-.456Zm-.385-12.467c-.578.228-1.062.419-.652 1.46l1.381 3.505c.171.435.749.208 1.218.023 2.375-.935 2.086-1.944 1.683-2.968-.67-1.702-2.052-2.642-3.63-2.02Z" clip-rule="evenodd"/>
				<path fill="#713F2A" d="M413.002 435.187c.465-.5.865-.605 1.15-.68.2-.052.343-.09.412-.238.029.171.233.305.475.463.481.314 1.11.724.795 1.723l-2.693 8.542c-.332 1.052-.847 1.129-1.236 1.187-.236.035-.426.064-.5.299-.028.09-.036.224.109.27l1.816.494 2.412.839c.368.116.534.09.596-.106.061-.193-.133-.291-.39-.422-.504-.256-1.249-.634-.792-2.083l2.676-8.487c.334-1.058.849-1.055 1.236-1.052.231.001.416.002.487-.224.067-.214-.001-.275-.482-.426l-2.088-.58-1.788-.642-.03-.011-.027-.009c-.155-.055-.43-.153-.54.038-.02-.128-.161-.177-.355-.244l-.13-.047a8.716 8.716 0 0 0-.677-.213c-.225-.065-.45-.129-.669-.211-.23-.085-.448-.187-.667-.289-.216-.1-.433-.202-.66-.287l-.042-.016-.029-.012c-.211-.084-.568-.228-.679.068-.086.231.122.368.382.537.426.277.987.643.606 1.663a5.79 5.79 0 0 1-1.274 1.875l-4.141 4.507-.059.07c-.091.109-.207.25-.283.22-.084-.032-.083-.253-.083-.4v-.05l.06-6.39a8.468 8.468 0 0 1 .303-2.636c.153-.407.481-.399.773-.391.234.006.445.011.524-.199.105-.281.035-.307-.398-.468l-.079-.03a5.408 5.408 0 0 0-.338-.105c-.292-.086-.73-.215-1.402-.466l-1.563-.664a1.724 1.724 0 0 1-.148-.066c-.24-.115-.553-.266-.68.076-.046.123.119.304.16.339.524.294.816.876.74 1.472l.114 11.635c.009.84.1 1.073.258 1.132.173.065.29-.011.633-.4l8.205-8.905Z"/>
				<path fill="#713F2A" fill-rule="evenodd" d="M419.178 446.394c-.444 1.499-1.092 1.569-1.526 1.616-.219.024-.383.042-.44.234-.094.318.175.39.361.439l.064.018 2.5.663c.414.122.729.244.974.339.156.061.284.11.39.142.37.11.53.04.579-.12.07-.237-.13-.351-.383-.496-.436-.25-1.03-.59-.671-1.801l.917-3.095.049-.173c.133-.48.162-.582.93-.354.805.238 1.047.485 1.184 1.382l.515 3.227.011.071c.189 1.165.388 2.401 1.634 2.771.644.19 1.824.112 1.988-.443a.248.248 0 0 0-.149-.316.899.899 0 0 0-.282-.024c-.088.002-.173.004-.251-.018a.617.617 0 0 1-.495-.458l-1.06-5.704c.03-.1.204-.151.454-.225.198-.058.443-.129.702-.25a2.963 2.963 0 0 0 1.596-1.959c.244-.823.67-3.44-2.856-4.485l-3.274-.892-1.862-.63c-.193-.056-.381-.015-.434.164-.069.233.143.363.412.529.476.293 1.133.697.755 1.976l-2.332 7.872Zm4.434-7.696c.318-1.073.817-.926 1.413-.75 1.626.483 2.135 2.073 1.616 3.827-.313 1.055-.706 2.028-3.153 1.303-.483-.143-1.079-.32-.946-.766l1.07-3.614Z" clip-rule="evenodd"/>
				<path fill="#713F2A" d="M432.342 450.247c-.329 1.373-1.111 1.341-1.68 1.318-.326-.013-.582-.024-.644.234-.092.382.162.443.442.51l.038.009 2.303.476 2.269.622c.049.011.096.023.141.035h.002c.393.099.655.165.748-.225.039-.164-.165-.272-.441-.419-.581-.308-1.48-.785-1.117-2.296l1.968-8.2c.21-.87.395-.922 1.064-.761l1.388.333c1.194.238 1.236 1.077 1.268 1.703.018.368.033.662.274.72.378.09.412-.492.429-.781l.006-.093.22-1.712.007-.042c.028-.18.064-.402-.163-.456l-5.014-1.127-4.978-1.272c-.226-.055-.295.157-.352.329l-.014.043-.836 2.332a1.549 1.549 0 0 1-.027.066c-.094.228-.224.545.087.62.284.068.47-.263.698-.67.363-.644.831-1.477 1.962-1.205l1.372.33c.669.16.81.29.601 1.161l-2.021 8.418Z"/>
				<path fill="#713F2A" d="M452.182 445.187c.371-.575.747-.747 1.014-.87.199-.091.337-.155.371-.334.049-.27-.124-.297-.394-.341-.043-.007-.089-.014-.136-.023a8.644 8.644 0 0 0-.7-.092c-.235-.025-.47-.049-.701-.092-.24-.045-.472-.107-.705-.169a9.055 9.055 0 0 0-.773-.183c-.221-.047-.602-.128-.66.183-.045.244.185.342.47.464.467.199 1.084.462.885 1.533a5.758 5.758 0 0 1-.93 2.067l-3.295 5.158a.496.496 0 0 0-.024.041l-.02.035c-.07.124-.161.284-.242.269-.087-.017-.125-.23-.15-.375l-.01-.053-1.052-6.305a8.506 8.506 0 0 1-.158-2.648c.079-.427.404-.476.693-.52.232-.035.441-.066.482-.287.054-.295-.02-.309-.474-.392l-.083-.015c-.088-.017-.201-.029-.352-.046a18.435 18.435 0 0 1-1.461-.214l-1.654-.382c-.046-.009-.1-.024-.158-.04-.256-.073-.589-.167-.656.192-.024.129.17.279.217.306.566.199.955.722.984 1.321l2.132 11.44c.155.825.286 1.039.451 1.07.182.034.285-.061.555-.505l6.534-10.193Z"/>
				<path fill="#713F2A" d="m453.113 455.785.001.037c.003.36.004.493.361.656.848.496 1.756.884 2.702 1.152 2.169.362 3.967-1.02 4.37-3.43.391-2.338-.57-3.312-2.197-4.473-.276-.198-.53-.375-.764-.538-1.489-1.041-2.116-1.479-1.938-2.544a1.774 1.774 0 0 1 2.162-1.624c2.086.348 2.47 2.299 2.676 3.344.076.382.127.643.229.66.364.061.45-.151.486-.562l.23-2.496c.008-.085.017-.164.026-.235.036-.291.059-.47-.141-.503-.107-.018-.276.029-.446.076-.17.048-.34.095-.448.077-.187-.031-.385-.169-.632-.341-.409-.284-.952-.662-1.798-.803-1.938-.325-3.521 1-3.875 3.116-.324 1.932.533 2.813 1.84 3.75.344.246.659.466.946.666l.002.001c1.757 1.225 2.467 1.72 2.242 3.064a2.235 2.235 0 0 1-2.68 1.973c-1.838-.308-2.585-2.154-2.82-4.01l-.003-.032c-.023-.232-.038-.39-.293-.433-.369-.062-.348.378-.334.663l.003.065.001.03.091 2.607.001.087Z"/>
			</g>
		</g>
		<g>
			<path fill="#D52B1E" d="M412.731 250.25h82.179v82.023h-82.179V250.25Z"/>
			<path fill="#fff" d="M451.271 314.829a20.165 20.165 0 0 1-.855 5.287c-.933 2.721-.94 2.721-1.796 4.043a13.133 13.133 0 0 1-3.81 3.887 9.42 9.42 0 0 1-5.948 1.71c-5.49-.486-8.038-6.44-9.283-11.273-1.321-5.13-5.073-7.923-7.463-6.064-1.4 1.089-1.479 2.914-.311 4.665a9.004 9.004 0 0 0 4.099 2.8l-2.933 3.731a9.183 9.183 0 0 1-7.535-7.393c-.466-2.488.742-7.134 4.891-8.522 5.297-1.774 8.686 2.004 10.318 5.191 2.246 4.384 3.21 12.434 9.43 11.19 3.384-.677 4.976-5.598 4.976-7.852l2.467-2.644 3.654 1.167.099.078v-.001Zm5.12 0c.048 1.793.336 3.571.855 5.287.933 2.721.94 2.721 1.796 4.043a13.133 13.133 0 0 0 3.81 3.887 9.417 9.417 0 0 0 5.948 1.71c5.49-.486 8.038-6.44 9.283-11.273 1.321-5.13 5.073-7.923 7.463-6.064 1.4 1.089 1.479 2.914.311 4.665a9.014 9.014 0 0 1-4.099 2.8l2.933 3.731a9.176 9.176 0 0 0 7.535-7.393c.466-2.488-.742-7.134-4.891-8.522-5.297-1.774-8.686 2.004-10.318 5.191-2.246 4.384-3.21 12.434-9.43 11.19-3.384-.677-4.976-5.598-4.976-7.852l-2.467-2.644-3.654 1.167-.099.078v-.001Z"/>
			<path fill="#FEDD00" d="m461.191 279.95 10.76-11.643a4.7 4.7 0 0 0 1.61-3.401l-2.219.345-.497-1.142-.11-1.147 2.981-.63c.048-.484.007-.85.092-1.384.08-.494.19-.76.311-1.244l-3.265.218c.166-.571.128-.875.31-1.406.111-.391.281-.763.504-1.103l1.907-.304c.728-.073 1.143-.04 1.873-.085 1.781-3.321 9.19-6.373 14.454-.904 3.81 3.958 2.988 11.219-1.95 13.139a6.315 6.315 0 0 1-6.862-1.11l1.97-3.866c2.722 1.625 4.976-.396 4.821-2.495a4.585 4.585 0 0 0-4.354-4.51c-2.254-.197-3.872 1.093-4.898 3.11-.626 1.231-.336 2.134-.544 3.5a23.976 23.976 0 0 1-.537 3.809 8.764 8.764 0 0 1-2.37 3.592l-11.03 11.935-42.941 46.445-3.227-2.983 43.211-46.737v.001Z"/>
			<path fill="#fff" d="M429.581 284.04s2.7 13.372 11.874 33.431c4.665-1.71 7.42-2.8 12.362-2.8s7.697.934 12.362 2.8c9.174-20.059 11.874-33.431 11.874-33.431l-24.236-31.177-24.236 31.177Z"/>
			<path fill="#FEDD00" d="m456.191 263.41 16.82 21.637s-2.243 10.52-9.078 26.354a47.347 47.347 0 0 0-7.733-1.32l-.009-46.67v-.001Zm-4.74 0-16.82 21.637s2.243 10.52 9.078 26.354a47.31 47.31 0 0 1 7.733-1.32l.009-46.67v-.001Z"/>
			<path fill="none" stroke="#713F2A" stroke-width=".797" d="M412.731 250.25h82.179v82.023h-82.179V250.25Z"/>
		</g>
		<g>
			<path fill="#FEDD00" d="M503.671 250.25h82.179v82.023h-82.179V250.25Z"/>
			<path fill="#D52B1E" d="M515.181 250.25h12.253v82.023h-12.253V250.25Zm23.48 0h12.253v82.023h-12.253V250.25Zm23.48 0h12.253v82.023h-12.253V250.25Z"/>
			<path fill="none" stroke="#713F2A" stroke-width=".797" d="M503.671 250.25h82.179v82.023h-82.179V250.25Z"/>
		</g>
		<g>
			<path fill="#FEDD00" d="M413.041 403.411a20.742 20.742 0 0 0 2.163 6.609c1.477 2.332.932 2.269 4.276 6a23.918 23.918 0 0 0 6.227 4.495 26.955 26.955 0 0 0 6.842 2.496 50.943 50.943 0 0 0 16.574 1.598 98.699 98.699 0 0 0 10.249-1.062c3.686-.527 7.397-.864 11.118-1.01 2.133-.09 4.149-.11 6.142 0 2.457.162 4.899.499 7.308 1.01a79.587 79.587 0 0 1 10.962 3.188l.014-85.655-82.193-.023v58.544s.168 2.86.318 3.81Z"/>
			<path fill="#D52B1E" stroke="#D52B1E" stroke-width=".513" d="m422.581 418.43 3.852 2.241 5.278 1.9-.005-81.528h-9.126l.001 77.387Zm45.66 3.71.011-81.099h-9.143v82.396l9.131-.988.001-.309Zm18.24-81.09h-9.113v81.381c3.082.326 6.134.889 9.13 1.683l-.017-83.064Zm-36.49 0v83.331a80.663 80.663 0 0 1-9.173-.003l.002-83.314 9.171-.014Z"/>
			<path fill="none" stroke="#713F2A" stroke-width=".797" d="M413.041 403.411a20.742 20.742 0 0 0 2.163 6.609c1.477 2.332.932 2.269 4.276 6a23.918 23.918 0 0 0 6.227 4.495 26.955 26.955 0 0 0 6.842 2.496 50.943 50.943 0 0 0 16.574 1.598 98.699 98.699 0 0 0 10.249-1.062c3.686-.527 7.397-.864 11.118-1.01 2.133-.09 4.149-.11 6.142 0 2.457.162 4.899.499 7.308 1.01a79.587 79.587 0 0 1 10.962 3.188l.014-85.655-82.193-.023v58.544s.168 2.86.318 3.81Z"/>
		</g>
		<g>
			<path fill="#FEDD00" d="M585.551 403.389a20.728 20.728 0 0 1-2.163 6.608c-1.477 2.333-.932 2.27-4.275 6.001a23.963 23.963 0 0 1-6.228 4.495 26.907 26.907 0 0 1-6.841 2.495 50.944 50.944 0 0 1-16.574 1.599 98.69 98.69 0 0 1-10.25-1.062 108.633 108.633 0 0 0-11.117-1.01c-2.133-.09-4.15-.11-6.142 0-2.458.162-4.9.499-7.309 1.01a82.398 82.398 0 0 0-11.033 3.188l.057-85.655 82.193-.023v58.543s-.168 2.86-.318 3.81v.001Z"/>
			<g fill="#D52B1E">
				<path fill-rule="evenodd" d="m524.097 384.781.594-.281v-.002a9.178 9.178 0 0 1 3 .907c.754.359 1.485.766 2.187 1.218.241-.249.528-.45.844-.593a3.154 3.154 0 0 1 1.219-.344c.31-.059.627-.059.937 0a2.2 2.2 0 0 1 .937.437c-.203.209-.348.405-.49.595-.093.126-.185.25-.29.374-.179.208-.249.395-.32.581-.059.157-.118.314-.242.482-.34.519-.866.888-1.47 1.031l2.157.687 3.843-.187c2.047-.167 2.973-.411 3.808-.631.673-.177 1.287-.338 2.38-.432.667-.057 1.525.035 2.493.138 1.008.107 2.135.227 3.288.206a43.343 43.343 0 0 0 4.906-.406c.849-.098 1.54-.228 2.209-.353.902-.17 1.763-.331 2.916-.397a26.85 26.85 0 0 1 4.282.062 13.907 13.907 0 0 1 4.125.562 5.443 5.443 0 0 1 2.718 1.469c.231.25.422.534.563.844.159.291.265.609.312.937.011.153.028.296.044.434.024.206.047.4.05.598a3.441 3.441 0 0 1-.312 1.468 4.091 4.091 0 0 1-1.995 2.298l-.302.14-.078.031a1.255 1.255 0 0 0-.05.028l-.476.22a6.291 6.291 0 0 1-2.401.456l-.042.002c-1.232.093-2.232-.151-3.237-.396l-.076-.018c-1.126-.275-2.262-.543-3.685-.433-.794.061-1.371.385-1.948.757l-.153.099c-.419.274-.854.558-1.44.705l-.004.001a8.986 8.986 0 0 1-.73.16l.555-1.121-.99.203a13.13 13.13 0 0 1-2.024.254 7.458 7.458 0 0 1-.398-.004l.973-.907-.992-.162a6.742 6.742 0 0 1-1.059-.262l.425-.089c.671-.166 1.152-.393 1.616-.619l.073-.036c.581-.286 1.149-.565 2.138-.66 1.131-.109 2.981-.038 7.515.713 3.193.528 4.608.256 5.821-.296l.009-.004a2.502 2.502 0 0 0 1.383-2.228 2.62 2.62 0 0 0-1.071-2.21 2.232 2.232 0 0 0-1.422-.462.494.494 0 0 0 .026.987c.289-.008.57.084.798.26l.005.004a1.653 1.653 0 0 1 .678 1.396l-.001.01a1.505 1.505 0 0 1-.819 1.351c-1.096.497-2.374.693-5.245.218-4.688-.776-6.602-.834-7.771-.721-.999.096-1.63.348-2.221.63l-.263.128c-.424.21-.859.424-1.466.576l-2.683.56.784.654a4.42 4.42 0 0 0 1.193.709l.46.152-1.05.98.958.181a8.018 8.018 0 0 0 1.622.138h.008c.415-.019.822-.056 1.227-.11l-.465.94.86-.061a9.765 9.765 0 0 0 1.79-.296c.729-.184 1.268-.532 1.788-.869l.097-.062c.443-.286.879-.556 1.489-.603 1.295-.101 2.332.153 3.357.403l.018.005c1.121.274 2.233.542 3.607.44a7.282 7.282 0 0 0 2.565-.455v1.827a9.945 9.945 0 0 1-.083 1.524c-.049.435-.091.813-.042 1.226.084.555.322 1.074.687 1.5.191.287.386.523.567.741.625.755 1.065 1.287.496 2.915a6.576 6.576 0 0 0-.406 1.687l-.407 1.907-.625 4.5c-.018.21-.049.419-.093.625-.069.242-.258.259-.528.283a3.97 3.97 0 0 0-.254.029c-.297.046-.312.461-.329.925-.009.257-.019.53-.077.763l-.375.343-1.625-.437-1.125-.376.125-1.03a4.92 4.92 0 0 1 .23-.151c.12-.076.231-.146.364-.256a3.84 3.84 0 0 0 1.156-1.562c.252-.641.41-1.314.469-2a7.42 7.42 0 0 0 .312-2.313c-.035-.402-.15-.691-.267-.986-.105-.264-.212-.532-.264-.889-.041-.277-.017-.513.006-.741.031-.304.06-.594-.068-.946-.077-.207-.091-.35-.103-.464-.021-.204-.032-.315-.369-.527a.485.485 0 0 0-.152-.119l-.847-.429-.328-.159-.003-.001c-1.026-.489-1.589-1.022-2.14-1.582l-.141-.145-.001-.001c-.516-.53-1.074-1.101-1.99-1.614a3.443 3.443 0 0 1-.571-.411l-.129-.112a6.605 6.605 0 0 0-.446-.367 2.326 2.326 0 0 0-.794-.387c-.319-.083-.675-.098-1.093-.039a7.489 7.489 0 0 1-.777.064.494.494 0 1 0 .03.986 8.65 8.65 0 0 0 .88-.072h.005c.752-.108 1.391.4 1.98.867l.029.023a9.476 9.476 0 0 0-.502.191c-.45.184-.936.412-1.449.652l-.271.127c-1.229.573-2.648 1.225-4.351 1.654a.551.551 0 0 0-.091.023l-.001-.001s-.581.213-.75.25c-2.74.652-5.57.822-8.364.506a.456.456 0 0 0 .026-.098l.099-.617.937-3.435.355-1.336a.494.494 0 0 0-.954-.253l-.353 1.329-.001.004-.95 3.482-.108.67a.493.493 0 0 0-.003.127l-.028-.004a21.65 21.65 0 0 1-.375 2.468c-.096.415-.217.729-.335 1.039a6.297 6.297 0 0 0-.353 1.149 9.302 9.302 0 0 0-.156 1.562c-.056.92-.003 1.843.156 2.75.04.272.086.488.131.693.064.297.123.572.151.964.008.124.023.219.035.298.029.185.045.283-.067.452-.078.118-.225.097-.4.073-.156-.022-.335-.046-.505.021-.238.092-.342.284-.47.531a1.18 1.18 0 0 0-.156.625l-.688.281-1.28-.312-1.125-.469.093-1a3.36 3.36 0 0 1 .379-.231c.215-.117.408-.223.59-.457.245-.304.397-.673.437-1.062.107-.579.18-1.163.22-1.75v-1.875a1.717 1.717 0 0 0-.22-.656 3.36 3.36 0 0 0-.281-.563c-.208-.338-.184-1.315-.161-2.243.01-.428.021-.845.008-1.184l.035-.804-.082-.402a20.345 20.345 0 0 0-.244-2.115l-.003-.018-.004-.017a8.074 8.074 0 0 0-.558-1.562l-.412-.811a.494.494 0 1 0-.88.447l.404.794c.206.433.368.885.483 1.349.113.672.19 1.349.231 2.028l.002.035.072.351-.006.127a2.183 2.183 0 0 1-.76-.099c-.33-.094-.572-.178-.759-.243-.31-.108-.473-.165-.647-.132-.185.04-.375.043-.558.011a.494.494 0 0 0-.244-.4c-.172-.102-.337-.317-.486-.683-.146-.359-.249-.792-.346-1.247l-.049-.237c-.076-.364-.153-.738-.25-1.038a2.108 2.108 0 0 0-.246-.54.912.912 0 0 0-.554-.401.493.493 0 0 0-.268.948l.005.006c.033.049.076.139.124.289.078.245.142.552.217.913l.056.265c.096.455.214.965.397 1.414.155.381.378.773.725 1.043l-1.461 1.344c-.297.292-.427.446-.375.719.129.67.534.967.969 1.286.222.163.451.332.656.558.084.093.188.18.29.267.293.246.576.485.367.826-.094.154-.239.22-.374.283-.16.074-.308.143-.346.342a.775.775 0 0 0 .25.782l-.03.906-.625 1.187-.657.657-.968-.375a7.643 7.643 0 0 0-.313-1.969 8.181 8.181 0 0 0-.782-1.969 13.782 13.782 0 0 0-.942-1.509 12.362 12.362 0 0 1-.588-.898c-.757-1.275-.573-1.529-.081-2.208.116-.16.25-.345.393-.572a8.998 8.998 0 0 1 1.656-1.813c.047-.046.093-.084.138-.122a2.16 2.16 0 0 0 .206-.19c-.071-.127-.134-.254-.196-.378-.248-.493-.469-.933-.96-1.122-.309-.119-.839-1.3-1.469-3.188-.08-.423.01-.861.25-1.219l-2.062-.906h-.062v-.062c.002-.001 0-.008-.001-.015-.001-.008-.003-.016.001-.016l.03-.375a.523.523 0 0 0-.125 0 1.555 1.555 0 0 0-.295.077c-.1.033-.198.066-.33.079a3.012 3.012 0 0 1-1-.094 5.178 5.178 0 0 1-1.28-.437 4.293 4.293 0 0 1-.713-.414c-.222-.15-.441-.299-.757-.43a10.742 10.742 0 0 0-2.031-.469 3.1 3.1 0 0 1-1.312-.125c-.169-.052-.254-.235-.349-.44-.053-.113-.109-.233-.183-.341-.05-.103-.193-.348-.349-.615-.181-.31-.378-.648-.463-.822-.056-.111-.083-.205-.11-.298a1.497 1.497 0 0 0-.108-.296c.113-.066.201-.179.293-.299.126-.166.262-.342.487-.42.108-.037.196-.035.285-.033.086.002.172.004.278-.029.121-.049.236-.112.344-.187a4.973 4.973 0 0 0 1.093-1c.376-.31.731-.644 1.063-1 .266-.276.487-.593.656-.938.076-.165.084-.318.091-.465.01-.183.019-.357.159-.535.173-.177.374-.325.594-.438.433-.255.851-.537 1.25-.843.278-.253.539-.525.781-.813Zm2.625 11.625h-.062l.032.031a.1.1 0 0 0 .014-.015l.016-.016Zm-8.424-4.357a2.352 2.352 0 0 1-.918-.071 1.515 1.515 0 0 0 1.837.646.61.61 0 0 0 .051.505.712.712 0 0 0 .706.353c.364.038.7-.193.798-.545a.827.827 0 0 0-.161-.605 1.073 1.073 0 0 0-.364-.444 1.252 1.252 0 0 0-.888-.163c-.224.008-.385.084-.549.161-.151.071-.304.143-.512.163Zm5.093-3.773a2.099 2.099 0 0 1 1.523-.329l.007.002.298.069.011.192a1.814 1.814 0 0 1-.487 1.336 1.593 1.593 0 0 1-.898.591c-.29.07-.519.016-.719-.058a5.767 5.767 0 0 1-.19-.076c-.115-.047-.215-.089-.35-.119l-.394-.089.248-.319c.111-.142.184-.269.262-.405a5.84 5.84 0 0 1 .116-.199c.13-.211.29-.42.573-.596Z" clip-rule="evenodd"/>
				<path d="M553.263 405.902a8.685 8.685 0 0 0 1.74.878c-.006.101-.015.845 0 .968.012.092.012.175.012.252 0 .165 0 .306.113.468a.583.583 0 0 0 .375.28.66.66 0 0 0 .657-.156c.164-.146.187-.32.212-.518.01-.074.02-.152.038-.232a3.94 3.94 0 0 0 0-.687c.289.049.582.069.875.062.292.012.585.002.875-.031l.03.468c.011.096.002.183-.007.267-.014.131-.027.255.039.39.082.215.273.37.5.406a.654.654 0 0 0 .531-.094c.241-.151.264-.386.291-.655a4.39 4.39 0 0 1 .022-.189c.015-.11.011-.692 0-.781l.991-.361.02-.01c.853-.441 1.343-.745 1.847-1.185a9.31 9.31 0 0 1-1.16-1.034l-.139-.142c-.356-.364-.688-.704-1.116-1.023-.339.056-.729.183-1.187.371-.425.174-.885.389-1.399.629l-.001.001-.276.129c-1.086.506-2.37 1.087-3.883 1.529Z"/>
				<path d="M560.253 408.373a5.21 5.21 0 0 0 .193-.646l.359-.167a8.652 8.652 0 0 0 2.481-1.572c.125.068.257.135.396.201l.315.152.844.428a.466.466 0 0 0 .085.033l.027.056c.061.129.117.246.112.421-.008.295-.154.453-.328.641-.065.071-.135.146-.202.234-.304.397-.609.617-.932.851-.231.166-.47.339-.725.587a12.671 12.671 0 0 0-3 3.905c-.111.223-.177.453-.239.669-.093.323-.176.615-.386.801-.198.175-.444.184-.698.192-.111.004-.223.008-.333.026a1.084 1.084 0 0 0-.966.76 1.006 1.006 0 0 0-.034.397l-.437.25-1.282-.25-1.438-.532.22-1.031c.505-.393.87-.449 1.207-.501.293-.046.564-.087.886-.343.365-.304.681-.662.938-1.062.122-.165.205-.304.288-.442.087-.146.174-.291.306-.464l.563-.657c.384-.492.729-1.015 1.03-1.562.299-.43.55-.891.75-1.375Z"/>
			</g>
			<path fill="#005EB8" d="M525.201 401.761a15.473 15.473 0 0 1-1.966-.826c.323-.25.587-.265.863-.555.39-.408.373-.788.593-1.319.215-.52.184-.954.671-1.343.329-.22.74-.281 1.118-.165.389.106.703.39.848.766.137.561-.16.886-.246 1.454-.155.47-.221.965-.195 1.46.093.311.212.614.354.907a15.491 15.491 0 0 1-2.04-.38v.001Zm-.99.95a.625.625 0 1 1 1.252-.014.626.626 0 0 1-1.252.018v-.004Zm-1.76-16.51-.144-.104c-.383-.31-.42-.653-.601-1.11a4.093 4.093 0 0 1-.315-1.154 7.331 7.331 0 0 1 0-1.048c.02-.314.02-.63 0-.944a2.172 2.172 0 0 0-.21-.944c-.097-.18-.394-.337-.314-.42.094-.096.257-.02.42 0 .351.035.682.182.943.42.338.262.576.632.672 1.049l.407 1.468c.058.257.154.505.284.734.154.226.329.436.524.629l-.011.023a9.012 9.012 0 0 1-.777.834c-.261.22-.544.412-.846.573l-.033-.01.001.004Zm3.6 10.64 2.23 1.031a9.239 9.239 0 0 0 3.497-3.919 13.839 13.839 0 0 0 1.364-4.313l-1.789-.581-.357.073a15.655 15.655 0 0 1-1.618 4.192 11.63 11.63 0 0 1-2.649 3.034l-.678.483Zm4.94 18.12c.282-.439.59-.861.922-1.264.41-.413.849-.797 1.312-1.15.163-.011.327.014.48.071a8.677 8.677 0 0 1-.526 2.751c-.08.344-.211.674-.39.979a4.17 4.17 0 0 1-.476.518c-.51-.742-1.33-1.297-1.322-1.906v.001Zm33.01 1.85a7.508 7.508 0 0 1 2.936 1.482c.055.155.076.319.063.483a9.11 9.11 0 0 1-1.53.251c-.419.031-.84.031-1.259 0a3.49 3.49 0 0 1-1.048-.105 4.404 4.404 0 0 1-.63-.314c.573-.696.88-1.637 1.468-1.797Zm-9.76-2.04a7.515 7.515 0 0 1 2.936 1.482c.055.154.076.318.063.482a8.534 8.534 0 0 1-2.789.252 3.49 3.49 0 0 1-1.048-.105 4.404 4.404 0 0 1-.63-.314c.573-.696.88-1.637 1.468-1.797Zm-17.34 2.13c.5.149.99.329 1.469.538.509.282 1 .597 1.468.944a1.2 1.2 0 0 1 .063.483 9.138 9.138 0 0 1-1.531.251 8.52 8.52 0 0 1-1.258 0 3.433 3.433 0 0 1-1.049-.105 4.252 4.252 0 0 1-.63-.314c.573-.696.88-1.637 1.468-1.797Zm-8.98-29.8c-.613-.278-1.05-1.045-.66-1.594.155-.22.412-.174.565-.395.144-.254.192-.552.136-.839a5.237 5.237 0 0 0-.21-.944 5.007 5.007 0 0 1-.135-1.048 2.25 2.25 0 0 1 .345-1.573c.211-.279.497-.491.825-.612.147.136-.057.502-.033.822a3.8 3.8 0 0 0 .288 1.153c.202.563.479.809.703 1.363.23.421.373.885.42 1.363.031.396-.041.794-.21 1.154a2.007 2.007 0 0 1-.61.839 1.85 1.85 0 0 1-.796.419 1.152 1.152 0 0 1-.628-.108Z"/>
			<g fill="#D52B1E">
				<path fill-rule="evenodd" d="m524.097 348.191.594-.281v-.002a9.178 9.178 0 0 1 3 .907c.754.359 1.485.766 2.187 1.218.241-.249.528-.45.844-.593a3.154 3.154 0 0 1 1.219-.344c.31-.059.627-.059.937 0a2.2 2.2 0 0 1 .937.437c-.203.209-.348.405-.49.596-.093.125-.185.249-.29.373-.179.208-.249.395-.32.581a1.814 1.814 0 0 1-.242.482c-.34.519-.866.888-1.47 1.031l2.157.687 3.843-.187c2.047-.167 2.973-.41 3.808-.63.673-.177 1.287-.339 2.38-.433.667-.057 1.525.035 2.493.138 1.008.108 2.135.228 3.288.206a43.343 43.343 0 0 0 4.906-.406c.849-.098 1.54-.228 2.209-.353.902-.17 1.763-.331 2.916-.397a26.85 26.85 0 0 1 4.282.062 13.94 13.94 0 0 1 4.125.562 5.443 5.443 0 0 1 2.718 1.469c.231.25.422.534.563.844.159.291.265.609.312.937.011.153.028.296.044.435.024.205.047.399.05.597a3.438 3.438 0 0 1-.312 1.468 4.091 4.091 0 0 1-1.995 2.298l-.302.14-.078.031-.05.028-.476.22a6.291 6.291 0 0 1-2.401.456l-.042.002c-1.232.093-2.232-.151-3.237-.396l-.076-.018c-1.126-.275-2.262-.543-3.685-.433-.794.061-1.371.385-1.948.757l-.153.1c-.419.273-.854.558-1.44.704l-.004.001a8.986 8.986 0 0 1-.73.16l.555-1.121-.99.203a13.13 13.13 0 0 1-2.024.254 7.458 7.458 0 0 1-.398-.004l.973-.907-.992-.162a6.742 6.742 0 0 1-1.059-.262l.425-.089c.671-.166 1.152-.393 1.616-.619l.073-.036c.581-.286 1.149-.565 2.138-.66 1.131-.109 2.981-.038 7.515.713 3.193.528 4.608.256 5.821-.296l.009-.004a2.502 2.502 0 0 0 1.383-2.228 2.62 2.62 0 0 0-1.071-2.21 2.232 2.232 0 0 0-1.422-.462.494.494 0 0 0 .026.987c.289-.008.57.084.798.26l.005.004a1.653 1.653 0 0 1 .678 1.396l-.001.01a1.505 1.505 0 0 1-.819 1.351c-1.096.497-2.374.693-5.245.218-4.688-.776-6.602-.834-7.771-.721-.999.096-1.63.348-2.221.63l-.263.128c-.424.21-.859.424-1.466.576l-2.683.56.784.654a4.42 4.42 0 0 0 1.193.709l.46.152-1.05.98.958.181a8.018 8.018 0 0 0 1.622.138h.008c.415-.019.822-.056 1.227-.11l-.465.94.86-.061a9.765 9.765 0 0 0 1.79-.296c.729-.184 1.268-.532 1.788-.869l.097-.062c.443-.286.879-.556 1.489-.603 1.295-.101 2.332.153 3.357.403l.018.005c1.121.274 2.233.542 3.607.44a7.282 7.282 0 0 0 2.565-.455v1.827c.019.62-.035 1.1-.083 1.524-.049.435-.091.813-.042 1.226.084.555.322 1.074.687 1.5.191.287.386.523.567.741.625.755 1.065 1.287.496 2.915a6.576 6.576 0 0 0-.406 1.687l-.407 1.907-.625 4.5c-.018.21-.049.419-.093.625-.069.242-.258.259-.528.284-.078.007-.163.014-.254.028-.297.046-.312.461-.329.925-.009.258-.019.53-.077.763l-.375.343-1.625-.437-1.125-.376.125-1.03c.084-.058.158-.106.23-.151.12-.076.231-.146.364-.256a3.84 3.84 0 0 0 1.156-1.562c.252-.64.41-1.314.469-2a7.42 7.42 0 0 0 .312-2.313c-.035-.402-.15-.691-.267-.986-.105-.264-.212-.532-.264-.889-.041-.277-.017-.513.006-.741.031-.304.06-.594-.068-.946-.077-.207-.091-.35-.103-.464-.021-.204-.032-.314-.369-.527a.485.485 0 0 0-.152-.119l-.847-.429-.328-.159-.003-.001c-1.026-.489-1.589-1.022-2.14-1.582l-.141-.145-.001-.001c-.516-.529-1.074-1.101-1.99-1.613a3.507 3.507 0 0 1-.571-.412l-.129-.112a6.605 6.605 0 0 0-.446-.367 2.344 2.344 0 0 0-.794-.387 2.776 2.776 0 0 0-1.093-.039 7.489 7.489 0 0 1-.777.064.494.494 0 1 0 .03.987 8.65 8.65 0 0 0 .88-.072l.005-.001c.752-.108 1.391.4 1.98.867l.029.023c-.166.058-.333.122-.502.191-.45.184-.936.412-1.449.652l-.271.127c-1.229.573-2.648 1.225-4.351 1.654a.469.469 0 0 0-.091.024l-.001-.002s-.581.213-.75.25c-2.74.652-5.57.822-8.364.506a.456.456 0 0 0 .026-.098l.099-.617.937-3.435.355-1.336a.494.494 0 0 0-.954-.253l-.353 1.33-.001.003-.95 3.482-.108.671a.486.486 0 0 0-.003.126l-.028-.004a21.65 21.65 0 0 1-.375 2.468c-.096.415-.217.73-.335 1.039a6.297 6.297 0 0 0-.353 1.149 9.313 9.313 0 0 0-.156 1.562c-.056.92-.003 1.843.156 2.75.04.272.086.488.131.693.064.298.123.572.151.964.008.124.023.219.035.299.029.184.045.282-.067.451-.078.118-.225.098-.4.073-.156-.021-.335-.046-.505.021-.238.092-.342.284-.47.531a1.18 1.18 0 0 0-.156.625l-.688.281-1.28-.312-1.125-.469.093-1a3.36 3.36 0 0 1 .379-.231c.215-.117.408-.223.59-.457.245-.304.397-.673.437-1.062.107-.578.18-1.163.22-1.75v-1.875a1.717 1.717 0 0 0-.22-.656 3.36 3.36 0 0 0-.281-.563c-.208-.338-.184-1.315-.161-2.243.01-.428.021-.845.008-1.184l.035-.804-.082-.402a20.295 20.295 0 0 0-.244-2.114l-.003-.018-.004-.018a8.074 8.074 0 0 0-.558-1.562l-.412-.811a.494.494 0 0 0-.88.447l.404.794c.206.433.368.885.483 1.349.113.672.19 1.349.231 2.029l.002.034.072.351-.006.127a2.183 2.183 0 0 1-.76-.099c-.33-.094-.572-.178-.759-.243-.31-.108-.473-.165-.647-.132-.185.04-.375.043-.558.011a.494.494 0 0 0-.244-.4c-.172-.101-.337-.317-.486-.683-.146-.359-.249-.792-.346-1.247l-.049-.237c-.076-.363-.153-.738-.25-1.038a2.108 2.108 0 0 0-.246-.54.916.916 0 0 0-.554-.401.493.493 0 0 0-.268.948l.005.006c.033.049.076.139.124.289.078.245.142.553.217.913l.056.265c.096.455.214.966.397 1.414.155.381.378.773.725 1.043l-1.461 1.344c-.297.292-.427.446-.375.719.129.67.534.967.969 1.287.222.162.451.331.656.557.084.093.188.18.29.267.293.246.576.485.367.826-.094.154-.239.221-.374.283-.16.074-.308.143-.346.342a.775.775 0 0 0 .25.782l-.03.906-.625 1.187-.657.657-.968-.375a7.643 7.643 0 0 0-.313-1.969 8.181 8.181 0 0 0-.782-1.969 13.646 13.646 0 0 0-.942-1.508c-.182-.26-.361-.515-.588-.899-.757-1.275-.573-1.529-.081-2.207.116-.161.25-.346.393-.573a8.998 8.998 0 0 1 1.656-1.813c.047-.045.093-.084.138-.122a2.16 2.16 0 0 0 .206-.19c-.071-.127-.134-.254-.196-.378-.248-.493-.469-.933-.96-1.122-.309-.119-.839-1.3-1.469-3.188-.08-.423.01-.861.25-1.219l-2.062-.906h-.062v-.062c.002-.001 0-.008-.001-.015-.001-.008-.003-.016.001-.016l.03-.375a.523.523 0 0 0-.125 0 1.555 1.555 0 0 0-.295.077c-.1.034-.198.066-.33.079a3.012 3.012 0 0 1-1-.094 5.178 5.178 0 0 1-1.28-.437 4.293 4.293 0 0 1-.713-.414c-.222-.15-.441-.299-.757-.43a10.82 10.82 0 0 0-2.031-.469 3.1 3.1 0 0 1-1.312-.125c-.169-.052-.254-.235-.349-.44a2.451 2.451 0 0 0-.183-.341c-.05-.102-.193-.348-.349-.615-.181-.31-.378-.648-.463-.822-.056-.111-.083-.205-.11-.298a1.497 1.497 0 0 0-.108-.296c.113-.065.201-.179.293-.299.126-.166.262-.342.487-.42.108-.037.196-.035.285-.033.086.002.172.004.278-.029.121-.049.236-.112.344-.187a4.973 4.973 0 0 0 1.093-1c.376-.31.731-.644 1.063-1 .266-.276.487-.593.656-.938a1.17 1.17 0 0 0 .091-.465c.01-.183.019-.357.159-.535.173-.177.374-.325.594-.438.433-.255.851-.536 1.25-.843.278-.253.539-.525.781-.813Zm2.625 11.625h-.062l.032.031a.067.067 0 0 0 .014-.015l.016-.016Zm-8.424-4.357a2.37 2.37 0 0 1-.918-.07 1.516 1.516 0 0 0 1.837.645.61.61 0 0 0 .051.505.712.712 0 0 0 .706.353c.364.038.7-.193.798-.545a.829.829 0 0 0-.161-.605 1.079 1.079 0 0 0-.364-.444 1.252 1.252 0 0 0-.888-.163c-.224.008-.385.084-.549.161-.151.071-.304.143-.512.163Zm5.093-3.773a2.098 2.098 0 0 1 1.523-.328l.007.001.298.069.011.193a1.812 1.812 0 0 1-.487 1.335 1.588 1.588 0 0 1-.898.591c-.29.07-.519.016-.719-.058a4.166 4.166 0 0 1-.19-.076c-.115-.047-.215-.089-.35-.119l-.394-.089.248-.319c.111-.142.184-.269.262-.405a5.84 5.84 0 0 1 .116-.199c.13-.211.29-.42.573-.596Z" clip-rule="evenodd"/>
				<path d="M553.263 369.312a8.632 8.632 0 0 0 1.74.878c-.006.101-.015.845 0 .968.012.092.012.175.012.252 0 .165 0 .306.113.468a.583.583 0 0 0 .375.28.66.66 0 0 0 .657-.156c.164-.146.187-.32.212-.518.01-.074.02-.151.038-.232a3.94 3.94 0 0 0 0-.687c.289.049.582.069.875.062.292.012.585.002.875-.031l.03.468c.011.096.002.183-.007.267-.014.132-.027.255.039.39.082.215.273.37.5.406a.654.654 0 0 0 .531-.094c.241-.15.264-.386.291-.655.006-.061.013-.125.022-.189.015-.11.011-.692 0-.781l.991-.36.02-.011c.853-.44 1.343-.745 1.847-1.184a9.393 9.393 0 0 1-1.16-1.035l-.139-.142c-.356-.364-.688-.704-1.116-1.023-.339.056-.729.183-1.187.371-.425.174-.885.389-1.399.63h-.001l-.276.129c-1.086.507-2.37 1.088-3.883 1.529Z"/>
				<path d="M560.253 371.783a5.21 5.21 0 0 0 .193-.646l.359-.167a8.63 8.63 0 0 0 2.481-1.572c.125.068.257.135.396.201l.315.153.844.427a.466.466 0 0 0 .085.033l.027.057c.061.128.117.245.112.42-.008.295-.154.453-.328.641-.065.071-.135.146-.202.234-.304.397-.609.618-.932.851-.231.166-.47.339-.725.587a12.671 12.671 0 0 0-3 3.905c-.111.223-.177.453-.239.669-.093.323-.176.615-.386.801-.198.175-.444.184-.698.193a2.476 2.476 0 0 0-.333.025 1.084 1.084 0 0 0-.966.76 1.006 1.006 0 0 0-.034.397l-.437.25-1.282-.25-1.438-.532.22-1.031c.505-.393.87-.449 1.207-.501.293-.045.564-.087.886-.343.365-.304.681-.662.938-1.062.122-.165.205-.304.288-.442.087-.146.174-.291.306-.464l.563-.657c.384-.492.729-1.015 1.03-1.562.299-.429.55-.891.75-1.375Z"/>
			</g>
			<path fill="#005EB8" d="M525.201 365.171a15.473 15.473 0 0 1-1.966-.826c.323-.25.587-.265.863-.555.39-.408.373-.788.593-1.319.215-.52.184-.954.671-1.343.329-.22.74-.281 1.118-.165.389.106.703.39.848.766.137.561-.16.886-.246 1.454-.155.47-.221.965-.195 1.46.093.311.212.614.354.907a15.17 15.17 0 0 1-2.04-.38v.001Zm-.99.95a.625.625 0 1 1 1.252-.014.626.626 0 0 1-1.252.018v-.004Zm-1.76-16.51-.144-.104c-.383-.31-.42-.653-.601-1.11a4.093 4.093 0 0 1-.315-1.154 7.331 7.331 0 0 1 0-1.048c.02-.314.02-.63 0-.944a2.172 2.172 0 0 0-.21-.944c-.097-.18-.394-.337-.314-.42.094-.096.257-.02.42 0 .351.035.682.182.943.42.338.262.576.632.672 1.049l.407 1.468c.058.257.154.505.284.734.154.226.329.436.524.629l-.011.023a9.012 9.012 0 0 1-.777.834c-.261.22-.544.412-.846.573l-.033-.01.001.004Zm3.6 10.64 2.23 1.031a9.239 9.239 0 0 0 3.497-3.919 13.839 13.839 0 0 0 1.364-4.313l-1.789-.581-.357.073a15.655 15.655 0 0 1-1.618 4.192 11.63 11.63 0 0 1-2.649 3.034l-.678.483Zm4.94 18.12c.282-.439.59-.861.922-1.264.41-.413.849-.797 1.312-1.15.163-.011.327.014.48.071a8.677 8.677 0 0 1-.526 2.751c-.08.344-.211.674-.39.979a4.17 4.17 0 0 1-.476.518c-.51-.742-1.33-1.297-1.322-1.906v.001Zm33.01 1.85a7.508 7.508 0 0 1 2.936 1.482c.055.155.076.319.063.483a9.11 9.11 0 0 1-1.53.251c-.419.031-.84.031-1.259 0a3.458 3.458 0 0 1-1.048-.105 4.204 4.204 0 0 1-.63-.314c.573-.696.88-1.637 1.468-1.797Zm-9.76-2.04a7.528 7.528 0 0 1 2.936 1.482c.055.154.076.319.063.482a8.534 8.534 0 0 1-2.789.252 3.458 3.458 0 0 1-1.048-.105 4.204 4.204 0 0 1-.63-.314c.573-.696.88-1.637 1.468-1.797Zm-17.34 2.13c.5.15.99.329 1.469.538.509.282 1 .597 1.468.944a1.2 1.2 0 0 1 .063.483 9.138 9.138 0 0 1-1.531.251 8.52 8.52 0 0 1-1.258 0 3.433 3.433 0 0 1-1.049-.105 4.252 4.252 0 0 1-.63-.314c.573-.696.88-1.637 1.468-1.797Zm-8.98-29.8c-.613-.278-1.05-1.045-.66-1.594.155-.22.412-.174.565-.395.144-.254.192-.552.136-.839a5.237 5.237 0 0 0-.21-.944 5.007 5.007 0 0 1-.135-1.048 2.25 2.25 0 0 1 .345-1.573c.211-.279.497-.491.825-.612.147.136-.057.502-.033.822a3.8 3.8 0 0 0 .288 1.153c.202.563.479.809.703 1.363.23.421.373.885.42 1.363.031.396-.041.794-.21 1.154a2.007 2.007 0 0 1-.61.839 1.85 1.85 0 0 1-.796.419 1.152 1.152 0 0 1-.628-.108Z"/>
			<path fill="none" stroke="#713F2A" stroke-width=".797" d="M585.551 403.389a20.728 20.728 0 0 1-2.163 6.608c-1.477 2.333-.932 2.27-4.275 6.001a23.963 23.963 0 0 1-6.228 4.495 26.921 26.921 0 0 1-6.841 2.495 50.944 50.944 0 0 1-16.574 1.599 98.69 98.69 0 0 1-10.25-1.062 108.633 108.633 0 0 0-11.117-1.01c-2.133-.09-4.15-.11-6.142 0-2.458.162-4.9.499-7.309 1.01a82.398 82.398 0 0 0-11.033 3.188l.057-85.655 82.193-.023v58.543s-.168 2.86-.318 3.81v.001Z"/>
		</g>
	</g>
</svg>