<svg xmlns="http://www.w3.org/2000/svg" viewBox="0 0 800 400">
	<title>Flag of Bosnia and Herzegovina</title>
	<path fill="#002395" d="M800 0H0v400h800V0Z"/>
	<g class="flagindex-emblem">
		<path fill="#FECB00" d="M210 0h400v400L210 0Z"/>
		<g class="flagindex-stars" fill="#fff">
			<path d="M117.751 25.5 140-42.5l22.249 68L104-16.526h72L117.751 25.5Z"/>
			<path d="M167.751 75.5 190 7.5l22.249 68L154 33.474h72L167.751 75.5Z"/>
			<path d="M217.751 125.5 240 57.5l22.249 68L204 83.474h72L217.751 125.5Z"/>
			<path d="m267.751 175.5 22.249-68 22.249 68L254 133.474h72L267.751 175.5Z"/>
			<path d="m317.751 225.5 22.249-68 22.249 68L304 183.474h72L317.751 225.5Z"/>
			<path d="m367.751 275.5 22.249-68 22.249 68L354 233.474h72L367.751 275.5Z"/>
			<path d="m417.751 325.5 22.249-68 22.249 68L404 283.474h72L417.751 325.5Z"/>
			<path d="m467.751 375.5 22.249-68 22.249 68L454 333.474h72L467.751 375.5Z"/>
			<path d="m517.751 425.5 22.249-68 22.249 68L504 383.474h72L517.751 425.5Z"/>
		</g>
	</g>
</svg>