<svg xmlns="http://www.w3.org/2000/svg" viewBox="0 0 1200 600">
	<title>Flag of Croatia (simplified version)</title>
	<path fill="#f00" d="M0 0h1200v200H0V0Z"/>
	<path fill="#fff" d="M0 200h1200v200H0V0Z"/>
	<path fill="#171796" d="M0 400h1200v200H0V0Z"/>
	<g class="flagindex-emblem">
		<g>
			<path fill="#fff" d="M600.037 453.317c62.928 0 114.411-51.486 114.411-114.411V202.2H485.623v136.706c0 62.928 51.486 114.411 114.414 114.411Z"/>
			<g fill="#f00">
				<path d="M533.916 206.5h-44.03v48.376h44.03V206.5Z"/>
				<path d="M533.916 303.249h44.03v-48.373h-44.03v48.373Z"/>
				<path d="M489.886 338.636c0 4.393.272 8.726.779 12.989h43.251v-48.376h-44.03v35.387Z"/>
				<path d="M621.98 303.249h-44.034v48.376h44.034v-48.376Z"/>
				<path d="M621.98 399.997h44.031v-48.372H621.98v48.372Z"/>
				<path d="M666.011 426.46A111.473 111.473 0 0 0 691.149 400h-25.138v26.46Z"/>
				<path d="M533.919 399.997h44.03v-48.372h-44.03v48.372Z"/>
				<path d="M508.739 399.998a111.498 111.498 0 0 0 25.18 26.492v-26.492h-25.18Z"/>
				<path d="M607.632 448.373c4.872-.34 9.662-.998 14.345-1.958v-46.417h-44.031v46.423c4.668.957 9.446 1.612 14.304 1.949 5.127.317 10.254.299 15.379 0l.003.003Z"/>
				<path d="M709.218 351.625c.509-4.277.782-8.626.782-13.033v-35.34h-43.992v48.376h43.21v-.003Z"/>
				<path d="M621.98 303.249h44.031v-48.373H621.98v48.373Z"/>
				<path d="M621.98 206.5h-44.031v48.376h44.031V206.5Z"/>
				<path d="M710 254.876V206.5h-43.989v48.376H710Z"/>
			</g>
		</g>
		<g>
			<path fill="#0093DD" d="m516.259 118.552-.05.059-34.173-12.653-19.123 30.876 7.325 16.655 18.557 42.126a274.522 274.522 0 0 1 43.228-14.952l-15.761-62.108-.003-.003Z"/>
			<path fill="#171796" d="m571.874 109.257-.06.048-31.613-18.116-23.942 27.363 15.761 62.108a274.678 274.678 0 0 1 45.147-7.542l-5.296-63.861h.003Z"/>
			<path fill="#0093DD" d="m628.259 109.269-.068.039-28.19-23.086-28.13 23.038 5.296 63.861a277.358 277.358 0 0 1 22.834-.953c7.725 0 15.373.334 22.938.962l5.317-63.861h.003Z"/>
			<path fill="#171796" d="m683.871 118.585-.074.026-23.992-27.422-31.546 18.08-5.32 63.861a274.668 274.668 0 0 1 45.145 7.556l15.784-62.098.003-.003Z"/>
			<path fill="#0093DD" d="m711.169 195.594 25.923-58.757-19.123-30.877-34.101 12.628-15.785 62.098a274.247 274.247 0 0 1 43.083 14.911l.003-.003Z"/>
		</g>
  </g>
</svg>
