<svg xmlns="http://www.w3.org/2000/svg" viewBox="0 0 900 600">
	<title>Flag of Portugal (lo-fi version)</title>
	<path d="M0 0H360V600H0V0Z" fill="#00613c"/>
	<path d="M360 0H900V600H360V0Z" fill="#ed192d"/>
	<g class="flagindex-emblem">
		<circle cx="360" cy="300" r="150" fill="#fbdf21"/>
		<g class="flagindex-shield">
			<path d="M275 325V325C275 348 285 370 300 385C315.491 400 336.774 410 360 410C383.458 410 404.695 400.471 420 385.095C435.464 370 445 350 445 325H445V210.03L275 210L275 325Z" fill="#ed192d"/>
			<path d="M410 317L410 245.181L310 245L310 324.744C310 338 315.434 350.764 324.779 360C333.89 369 346 375 360 375C373.649 375 386 370 395.243 360C403 352.588 408 342.644 409.585 331.234C409.818 329.285 410 326.994 410 325H410L410 317Z" fill="#fff"/>
		</g>
	</g>
</svg>
