<svg viewBox="0 0 900 600" fill="none" xmlns="http://www.w3.org/2000/svg">
	<title>Flag of Portugal (simplified version)</title>
	<path d="M0 0H360V600H0V0Z" fill="#00613c"/>
	<path d="M360 0H900V600H360V0Z" fill="#ed192d"/>
	<g class="flagindex-emblem">
		<path fill-rule="evenodd" clip-rule="evenodd" d="M360 448.847C161.111 448.847 161.16 152.491 360 152.491C561 152.491 561 448.847 360 448.847ZM482.009 352.212C486.569 341.565 489.769 330.214 491.385 318.378C478.148 322.207 464.619 325.033 450.966 327.145C463.83 336.551 474.447 345.092 482.009 352.212ZM431.959 313.736C452.531 311.432 472.917 307.687 492.59 301.59C492.595 301.021 492.596 300.45 492.593 299.881C458.108 286.185 418.788 282.167 381.299 281.278C399.591 292.337 416.77 303.359 431.959 313.736ZM353.085 265.073C355.407 265.042 357.741 265.024 360.087 265.02C403.356 264.939 450.415 267.669 491.438 283.094C489.492 268.518 485.146 254.671 478.815 241.964C440.413 252.914 400.012 255.985 360.234 256.023C352.153 256.031 344.035 255.941 335.909 255.694C341.465 258.684 347.195 261.813 353.085 265.073ZM300.766 237.528C287.76 231.138 276.328 225.978 266.766 222.237C297.304 215.846 328.966 214.943 360.034 215.047C396.893 214.952 433.819 216.943 469.6 226.265C469.901 226.705 470.198 227.146 470.493 227.589C435.553 238.381 396.808 239.978 360.582 240.014C340.869 240.034 320.709 239.562 300.766 237.528ZM360.076 198.976C391.235 198.89 423.195 199.764 453.643 207.026C429.604 182.99 396.47 168.068 360.131 168.068C323.737 168.068 290.557 183.035 266.508 207.136C297.017 200.092 328.891 199.06 360.076 198.976ZM251.053 375.385C250.71 374.889 250.371 374.391 250.036 373.89C294.311 356.213 345.322 356.496 392.406 359.369C409.197 368.494 424.379 376.179 437.183 382.064C411.828 386.27 386.258 388.548 360.563 389.095C321.768 388.454 285.89 383.245 251.053 375.385ZM346.657 333.248C351.832 336.334 356.936 339.336 361.954 342.246C321.783 341.46 279.336 344.637 241.686 359.595C235.199 346.705 230.757 332.631 228.798 317.805C266.65 329.47 307.275 332.571 346.657 333.248ZM228.883 282.648C236.137 280.002 245.137 277.398 255.295 275.148C246.954 269.216 239.874 263.812 234.371 259.082C231.846 266.663 229.993 274.542 228.883 282.648ZM227.668 301.254C227.665 300.635 227.666 300.014 227.671 299.396C242.498 293.79 258.129 290.362 273.745 287.791C286.983 296.585 302.099 306.144 318.334 316.11C287.9 314.255 256.849 310.439 227.668 301.254ZM360.131 433.011C396.209 433.011 429.128 418.302 453.125 394.569C422.658 401.916 391.212 405.251 359.891 405.266C323.153 404.727 290.733 399.878 266.519 393.955C290.568 418.048 323.743 433.011 360.131 433.011Z" fill="#fbdf21"/>
		<g class="flagindex-shield">
			<path d="M271 317.977V318.046C271 342.27 281.033 364.333 297.125 380.35C313.248 396.395 335.455 406.372 359.749 406.372C384.168 406.372 406.328 396.465 422.382 380.481C438.434 364.498 448.384 342.435 448.387 318.125H448.384V198.494L271.109 198.463L271 317.977Z" fill="#ED192D"/>
			<path d="M412.597 310.171L412.59 234.04L306.79 233.85L306.811 317.97C306.811 331.925 312.542 345.419 322.43 355.26C332.07 364.853 345.013 370.986 359.538 370.986C374.137 370.986 387.386 365.062 396.985 355.505C405.182 347.343 410.718 336.854 412.16 324.817C412.406 322.761 412.534 320.345 412.534 318.225H412.532L412.597 310.171Z" fill="white"/>
			<g fill="#154281">
				<path d="M348.425 304.365V304.375C348.425 307.688 349.698 310.709 351.739 312.899C353.785 315.097 356.603 316.461 359.685 316.461C362.783 316.461 365.594 315.105 367.632 312.918C369.668 310.731 370.931 307.711 370.931 304.385V288.249L348.464 288.232L348.425 304.365Z"/>
				<path d="M348.425 342.962V342.972C348.425 346.286 349.697 349.305 351.739 351.497C353.785 353.693 356.602 355.059 359.685 355.059C362.782 355.059 365.594 353.703 367.631 351.516C369.668 349.328 370.932 346.31 370.932 342.982V326.847L348.465 326.831L348.425 342.963"/>
				<path d="M317.312 304.366V304.375C317.312 307.69 318.584 310.709 320.626 312.9C322.672 315.097 325.49 316.462 328.571 316.462C331.671 316.462 334.482 315.106 336.518 312.919C338.555 310.732 339.819 307.711 339.819 304.385V288.25L317.352 288.232L317.312 304.365"/>
				<path d="M379.567 304.365V304.375C379.567 307.69 380.842 310.709 382.883 312.9C384.929 315.096 387.746 316.461 390.828 316.461C393.927 316.461 396.738 315.105 398.776 312.919C400.813 310.731 402.074 307.711 402.074 304.385V288.25L379.609 288.232L379.568 304.365"/>
				<path d="M348.424 265.342V265.351C348.424 268.667 349.697 271.685 351.738 273.876C353.784 276.073 356.602 277.438 359.684 277.438C362.783 277.438 365.594 276.082 367.63 273.895C369.667 271.708 370.929 268.688 370.931 265.361H370.929V249.226L348.464 249.209L348.424 265.342Z"/>
			</g>
			<g fill="#fbdf21">
				<rect x="278.491" y="204.138" width="22" height="25" />
				<rect x="278.491" y="276.398" width="22" height="25"/>
				<rect x="349.131" y="204.138" width="22" height="25"/>
				<rect x="419.612" y="204.138" width="22" height="25"/>
				<rect x="419.612" y="276.398" width="22" height="25"/>
				<path d="m290.774 364.352 15.556-15.556 17.678 17.677-15.556 15.557z"/>
				<path d="m413.46 348.768 15.556 15.556-17.677 17.678-15.557-15.556z"/>
			</g>
		</g>
	</g>
</svg>