<svg xmlns="http://www.w3.org/2000/svg" fill="none" viewBox="0 0 1350 900">
	<title>Flag of Serbia</title>
    <path fill="#C6363C" d="M0 0h1350v300H0V0Z"/>
    <path fill="#0C4076" d="M0 300h1350v300H0V0Z"/>
    <path fill="#fff" d="M0 600h1350v300H0V0Z"/>
    <g class="flagindex-emblem">
      <path fill="#0C4076" stroke="#21231E" d="M482.143 139c9.389 0 17-7.611 17-17s-7.611-17-17-17-17 7.611-17 17 7.611 17 17 17Z"/>
      <g fill="#EDB92E" stroke="#21231E" stroke-linejoin="round">
        <path d="M485.143 85a2.998 2.998 0 0 0 3-3 2.999 2.999 0 0 0-3-3 2.999 2.999 0 0 0-5.121-2.121 2.999 2.999 0 0 0-.879 2.121 2.998 2.998 0 0 0-3 3 2.999 2.999 0 0 0 3 3v6.5h-5.5a2.999 2.999 0 0 0-5.121-2.121 2.999 2.999 0 0 0-.879 2.121 2.998 2.998 0 0 0-3 3 2.999 2.999 0 0 0 3 3 2.999 2.999 0 0 0 5.121 2.121 2.999 2.999 0 0 0 .879-2.121h5.5V119h6V97.5h5.5a2.999 2.999 0 0 0 5.121 2.121 2.999 2.999 0 0 0 .879-2.121 2.998 2.998 0 0 0 3-3 2.999 2.999 0 0 0-3-3 2.999 2.999 0 0 0-5.121-2.121 2.999 2.999 0 0 0-.879 2.121h-5.5V85Z"/>
        <path d="M485.143 105.2a17.035 17.035 0 0 0-6 0v17h6v-17Z"/>
        <path d="M498.943 119a16.987 16.987 0 0 1 0 6 352.56 352.56 0 0 0-33.6 0 16.987 16.987 0 0 1 0-6c11.2-.534 22.4-.534 33.6 0Z"/>
        <path d="M583.143 264c4-8 7.667-14 11-18-11.333 8.667-17.333 6.667-18-6-10.667 14.667-19.667 13.333-27-4-12.667 18-23 17.333-31-2-13.333 16.667-25.333 16-36-2-10.667 18-22.667 18.667-36 2-8 19.333-18.333 20-31 2-7.333 17.333-16.333 18.667-27 4-.667 12.667-6.667 14.667-18 6 3.333 4 7 10 11 18h202Z"/>
        <path d="m381.143 264.699 6 31h190l6-31-101-5-101 5Z"/>
        <path d="M593.143 235.699c-7 18-13 18-14 2 1-1 .8-3.8 2.6-2.6.9.6 2.3-1.2 1.4-2-1.8-1.6-4-1.4-6 .6-.5-3-2.5-4-5-3-1 .4-1 2.5 0 2.4 2-.2 1.5 1.6 2 2.6-13.333 16.667-19 14.334-17-7l-10-2c-11.333 22.667-20 23.667-26 3 1-1 1-3.4 3-2.6 1 .4 2-1.4.8-2.4-2.4-2-4.8-1-6.8 1-1-3-3.9-3.8-6.6-2-1.2.8-.4 2.9.8 2.6 2.4-.6 1.3 2.4 2.8 3.4-5 20-31 21-26.5-8h-13c4.5 29-21.5 28-26.5 8 1.5-1 .4-4 2.8-3.4 1.2.3 2-1.8.8-2.6-2.7-1.8-5.6-1-6.6 2-2-2-4.4-3-6.8-1-1.2 1-.2 2.8.8 2.4 2-.8 2 1.6 3 2.6-6 20.667-14.667 19.667-26-3l-10 2c2 21.334-3.667 23.667-17 7 .5-1 0-2.8 2-2.6 1 .1 1-2 0-2.4-2.5-1-4.5 0-5 3-2-2-4.2-2.2-6-.6-.9.8.5 2.6 1.4 2 1.8-1.2 1.6 1.6 2.6 2.6-1 16-7 16-14-2l-4 1c0 4 1.5 9 4 12 10 12 18 10 18.5-5 13.5 16 24.5 14 26.5-3 11 22 30 11 30.5-2 5.5 19 33.5 19 35.5-3 2 22 30 22 35.5 3 .5 13 19.5 24 30.5 2 2 17 13 19 26.5 3 .5 15 8.5 17 18.5 5 2.5-3 4-8 4-12l-4-1Z"/>
        <path d="M381.143 267.499c-5 .5-5-4.5 0-5a1012.575 1012.575 0 0 1 202 0c5 .5 5 5.5 0 5a1012.575 1012.575 0 0 0-202 0Z"/>
        <path d="m472.143 199.5-7-9c2-19.334 2-37 0-53-1.333-4.667 0-6 4-4 8.667 4.333 17.333 4.333 26 0 4-2 5.333-.667 4 4-2 16-2 33.666 0 53l-7 9h-20Z"/>
      </g>
      <path fill="#EDB92E" stroke="#21231E" stroke-linecap="round" d="m505.143 276-23 11.5-23-11.5 23-11.5 23 11.5Z"/>
      <g>
        <g fill="#EDB92E" stroke="#21231E" stroke-linejoin="round">
          <path d="m581.843 159 27.6 13 3 12-10.9 17 1 14h8.9l14.8-40-18.8-16-43.4-15 17.8 15Z"/>
          <path d="M603.443 213.6a34.296 34.296 0 0 0 1.229-4.719c.536-2.71.306-5.517-.583-8.152 2.935-4.209 6.229-8.783 8.606-13.328 1.697-3.245 3-6.857 2.01-10.558-1.064-3.947-4.435-6.636-7.48-9.011-3.646-2.846-8.51-5.338-13.433-7.466-11.024-4.634-19.789-6.902-26.212-7.108l4.076 3.835c11.953 3.917 26.058 9.084 32.844 14.379 8.781 6.85 8.563 8.472-4.174 26.753-.397.57-1.316 2.025-1 2.688.611 1.309 1.738 7.341-.135 11.483 1.1 2.101 2.694 1 4.258 1.204h-.006Z"/>
          <path d="M520.043 202.151c-3.416-.232-2.571 5.894-1.897 7.259.88 1.782 1.698 1.839 2.808.191.851-1.262 2.504-7.218-.911-7.45Z"/>
          <path d="M584.543 210.801c-3.262-1.047-3.891 5.106-3.559 6.594.433 1.942 1.214 2.192 2.682.86 1.124-1.021 4.14-6.408.877-7.454Z"/>
        </g>
        <g fill="#fff" stroke="#21231E" stroke-linejoin="round">
          <path d="M569.143 151.4a6.4 6.4 0 1 0 0-12.8 6.4 6.4 0 0 0 0 12.8Z"/>
          <path d="M581.143 155.4a6.4 6.4 0 1 0 0-12.8 6.4 6.4 0 0 0 0 12.8Z"/>
          <path d="M593.143 159.4a6.4 6.4 0 1 0 0-12.8 6.4 6.4 0 0 0 0 12.8Z"/>
          <path d="M605.143 164.9a6.4 6.4 0 1 0 0-12.8 6.4 6.4 0 0 0 0 12.8Z"/>
          <path d="M616.143 171.4a6.4 6.4 0 1 0 0-12.8 6.4 6.4 0 0 0 0 12.8Z"/>
          <path d="M611.143 216.4a6.4 6.4 0 1 0 0-12.8 6.4 6.4 0 0 0 0 12.8Z"/>
          <path d="M617.143 205.4a6.4 6.4 0 1 0 0-12.8 6.4 6.4 0 0 0 0 12.8Z"/>
          <path d="M622.143 194.4a6.4 6.4 0 1 0 0-12.8 6.4 6.4 0 0 0 0 12.8Z"/>
          <path d="M624.143 181.4a6.4 6.4 0 1 0 0-12.8 6.4 6.4 0 0 0 0 12.8Z"/>
          <path d="M506.143 287.199a3.2 3.2 0 1 0 0-6.4 3.2 3.2 0 0 0 0 6.4Z"/>
          <path d="M555.143 290.199a3.2 3.2 0 1 0 0-6.4 3.2 3.2 0 0 0 0 6.4Z"/>
          <path d="M557.143 275.199a3.2 3.2 0 1 0 0-6.4 3.2 3.2 0 0 0 0 6.4Z"/>
          <path d="M507.143 272.199a3.2 3.2 0 1 0 0-6.4 3.2 3.2 0 0 0 0 6.4Z"/>
          <path d="M521.943 222.999c2-3 5.8-17-2.2-17.5s-6 14-4.5 17c2 4 4.1 4.4 6.7.5Z"/>
          <path d="M575.243 229.499c1 4.5 2.7 5.1 6.3 1.9 2.7-2.4 9.7-14.9 2-17.4-7.7-2.5-9.1 11.9-8.3 15.5Z"/>
        </g>
        <g fill="#EDB92E" stroke="#21231E" stroke-linejoin="round">
          <path d="m498.143 140 35 1 22 7 6 14-16 31 7 20 21-18 10-37-27-23-57-4-1 9Z"/>
          <path d="M499.943 137.801c17.233-1.568 34.854.195 52.298 7.171 14.703 5.881 13.262 23.054-4.666 46.89 1.622 3.02 2.545 6.775 2.69 11.109-1.896-.104-3.226-.055-4.9-.097 1.299-2.888-.155-6.425-1.796-8.917-1.071-1.627-1.289-1.341 0-3.154 10.672-15 17.744-28.125 13.584-36.055-5.055-9.637-24.656-14.657-57.715-13.922.06-.879.122-1.767.181-2.663.105-.12.212-.239.324-.362Z"/>
          <path d="M569.943 144c-.605.819-1.217 1.637-1.838 2.456 9.701 5.361 13.717 11.016 12.77 16.702-.161.976-3.111 11.382-9.7 31.549-4.503 3.133-7.859 5.937-10.07 8.412.248.282-.71 1.16-.424 1.4-.673 3.08 2.775 2.454 5.1 1.694 1.115-2.961 4.516-6.103 6.47-7.446.399-.273 1.837-.98 1.98-1.44 3.526-11.349 7.068-21.843 10.106-31.615 3.052-9.819-3.561-16.781-14.384-21.712h-.01Z"/>
        </g>
        <g fill="#fff" stroke="#21231E" stroke-linejoin="round">
          <path d="M504.143 136.4a6.4 6.4 0 1 0 0-12.8 6.4 6.4 0 0 0 0 12.8Z"/>
          <path d="M516.643 136.4a6.4 6.4 0 1 0 0-12.8 6.4 6.4 0 0 0 0 12.8Z"/>
          <path d="M529.143 137.9a6.4 6.4 0 1 0 0-12.8 6.4 6.4 0 0 0 0 12.8Z"/>
          <path d="M541.143 140.4a6.4 6.4 0 1 0 0-12.8 6.4 6.4 0 0 0 0 12.8Z"/>
          <path d="M553.143 144.4a6.4 6.4 0 1 0 0-12.8 6.4 6.4 0 0 0 0 12.8Z"/>
          <path d="M564.143 149.4a6.4 6.4 0 1 0 0-12.8 6.4 6.4 0 0 0 0 12.8Z"/>
          <path d="M571.143 157.4a6.4 6.4 0 1 0 0-12.8 6.4 6.4 0 0 0 0 12.8Z"/>
          <path d="M558.143 203.4a6.4 6.4 0 1 0 0-12.8 6.4 6.4 0 0 0 0 12.8Z"/>
          <path d="M563.143 192.4a6.4 6.4 0 1 0 0-12.8 6.4 6.4 0 0 0 0 12.8Z"/>
          <path d="M568.143 181.4a6.4 6.4 0 1 0 0-12.8 6.4 6.4 0 0 0 0 12.8Z"/>
          <path d="M572.143 169.4a6.4 6.4 0 1 0 0-12.8 6.4 6.4 0 0 0 0 12.8Z"/>
        </g>
        <g fill="#EDB92E" stroke="#21231E" stroke-linejoin="round">
          <path d="m606.143 217 .363 1.98c2.787.66 5.171.825 7.15.494-3.311-3.299-5.777-4-7.513-2.474Z"/>
          <path d="M607.143 212.301c-1.77.434-1.934.735-2.706.87-1 .172-2.359.102-3.3-.729-3.838-2.319-3.92 1.858-2.429 4.986 1.081 2.266 2.078 5.171 1.047 7.111-1.22 2.291-.961 3.34-.098 3.959.597.393 1.166.762 1.677 1.091 1.034 1.229 1.819 1.017 1.965-.591 3.831-1.588 3.549-5.636 4.696-8.895 1.677-4.766 7.771-5.893-.852-7.802Z"/>
          <path d="M605.143 212.5c-3.336 1.198-3.709-.666-5.96-.571.887 5.141 1.784 7.802 7.11 5.043 2.938-1.524 6.701.706 7.416 2.359.261.604 1.971-.65 2.595-2.025 2.615-5.757-6.688-6.411-11.161-4.806Z"/>
          <path d="M593.343 237.401c-2.417-.743-6.195 4.636-7.094 4.543-1.189-3.076 1.237-10.433 5.533-16.257 2.918-.958 3.18-2.848 3.783-7.23.18-1.311 2.679-.408 2.725 1.823.05 2.391.234 3.715-.297 5.756-.209.805-.093 1.576.798 2.31-4.55 1.815-5.667 4.04-5.448 9.055Z"/>
          <path d="M595.543 218.5c.417 1 .543 1.835.643 3.368.077 1.167-.349 2.261-1.092 3.229-.745.973-1.811 1.829-3 2.524-.741.432-1.592 1.625-2.265 2.981-.67 1.35-1.161 2.872-1.188 3.955-.096 3.58-.789 6.708-2.417 7.325-1.065.404-1.491.342-2.316.149.233-.643.144-1.549.719-2.446.738-1.157 1.387-2.486 1.445-3.649.051-.904.475-1.508.125-3.29-.225-1.155-.972-1.591-.84-2.656.257-2.062 1.874-6.02 4.249-6.02 2.34 0 3.434-.254 4.645-3.37.412-1.06.951-1.57 1.3-2.1h-.008Z"/>
          <path d="M604.343 227.1c-.635-.49-1.405-.852-2.128-1.135-1.231-.481-2.544-.554-3.812-.171-5.613 1.697-8.071 11.668-1.921 14.064 1.212.148 2.329-.948 3.417-3.354 1.282-3.185 2.645-5.395 4.106-6.747.895-1.129.925-2.085.338-2.657Z"/>
          <path d="M601.543 227.699c-5.392-2.104-9.361 8.226-4.322 10.189 2.704 1.054 2.962-2.33 3.488-4.211.709-2.542 6.012-3.956.834-5.978Z"/>
          <path d="M489.843 198c2.701-5.03 5.566-8.248 8.596-9.65-4.176-13.155-5.158-30.146-2.703-51.096.249-3.13 1.021-4.479 2.213-4.457 1.046.019 1.679 1.617 1.781 5.221-.759 11.525-1.692 21.606-1.169 30.165.468 7.643 2.262 14 4.237 21.155.274 1-.431 1.775-3.869 3.712-2.536 1.444-4.133 3.218-4.666 5.073-.735-.296-1.207-.207-1.472-.13-2.547.739-3.622.538-2.948 0V198Z"/>
          <path d="M505.843 214.6c-1.565-.986-1.872-.724-2.374-1.371-.647-.832-.655-2.198-.453-3.508.819-5.285-2.334-4.547-5.882-2.211-1.774 1.169-3.558 3.883-5.083 5.299-1.524 1.416-2.788 1.537-3.168 2.096-.048 2.028-.057 3.78-.043 4.573-.014.792 0 2.542.043 4.57.381.559 1.645.68 3.168 2.096 1.525 1.417 3.309 4.13 5.083 5.298 3.548 2.338 6.701 3.074 5.882-2.211-.201-1.309-.194-2.675.453-3.508.502-.647.809-.384 2.374-1.371 1.016-.638 1.777-1.408 2.285-2.243.507-.835.231-1.735.231-2.635 0-.9.276-1.8-.231-2.635-.508-.835-1.269-1.605-2.285-2.239Z"/>
          <path d="M503.143 207.301c-1.141.469-2.384.972-3.436 2-1.6 1.552-.564 4.13 1.504 6.624.651.787.967 2.177.962 3.561 0 1.384-.332 2.762-.962 3.524-2.067 2.494-3.104 5.071-1.504 6.624 1.051 1.022 2.294 1.523 3.435 2 .11-.601.098-1.39-.058-2.402-.203-1.309-.196-2.676.451-3.508.503-.647.809-.385 2.375-1.37 1.015-.639 1.776-1.409 2.285-2.244.507-.834.231-1.734.231-2.635 0-.9.277-1.8-.231-2.635-.509-.836-1.27-1.605-2.285-2.244-1.566-.986-1.872-.724-2.375-1.371-.647-.832-.654-2.198-.451-3.508.156-1.012.168-1.802.059-2.403v-.013Z"/>
          <path d="M553.543 200.001c-1.329 1.686-1.169 2.09-1.89 2.573-.94.624-2.216.407-3.4-.046-4.858-1.859-4.86 2-3.448 6.429.684 2.145 2.756 4.471 3.68 6.296.908 1.787.713 3.125 1.12 3.582 1.762.292 3.275.507 3.964.586.674.108 2.175.302 3.907.488.567-.323 1-1.593 2.612-2.987 1.613-1.401 4.402-2.918 5.903-4.63 3.044-3.474 4.662-6.811-.124-6.694-1.192.03-2.383-.188-2.917-1.044-.422-.669-.105-.972-.515-2.929-.269-1.283-.739-2.307-1.343-3.043-.614-.749-1.509-.584-2.334-.738-.832-.156-1.589-.647-2.508-.182-.918.466-1.846 1.238-2.707 2.339Z"/>
          <path d="M545.943 202c.18 1.422.365 2.953 1.072 4.318 1.064 2.054 3.684 1.263 6.483-.698.881-.619 2.231-.762 3.477-.542 1.243.219 2.383.792 2.879 1.613 1.596 2.639 3.512 4.121 5.31 2.614 1.191-1 2-2.291 2.751-3.477-.482-.211-1.165-.315-2.09-.293-1.191.03-2.382-.187-2.916-1.043-.423-.669-.107-.972-.517-2.924-.27-1.287-.738-2.308-1.342-3.048-.613-.749-1.51-.579-2.334-.734-.832-.155-1.588-.651-2.507-.184-.918.464-1.846 1.237-2.712 2.336-1.328 1.687-1.163 2.091-1.89 2.578-.939.62-2.217.4-3.4-.05-.915-.346-1.662-.491-2.264-.466Z"/>
          <path d="M572.543 221.201c-.775-.942-1.083-.733-1.225-1.325-.179-.764.271-1.962.854-3.104 2.331-4.57-.149-4.185-3.512-2.382-.852.457-1.842 1.268-2.824 2.103-1 .843-1.975 1.726-2.798 2.318-1.667 1.2-2.696 1.235-3.181 1.72a157.953 157.953 0 0 0-1.612 4.193c-.284.724-.882 2.328-1.541 4.178.106.516 1.065.659 1.781 1.978.704 1.3 1.258 3.659 2.12 4.795 1.264 1.666 2.42 2.658 3.32 2.495.897-.164 1.537-1.477 1.777-4.382.094-1.128.739-2.322 1.483-3.029.58-.552.709-.32 2.144-1.128a9.287 9.287 0 0 0 2.345-1.865c.627-.698.724-1.479 1.015-2.248.292-.774.778-1.534.703-2.267a3.787 3.787 0 0 0-.849-2.05Z"/>
          <path d="M572.943 213.8c-1 .365-1.659.821-2.802 1.766-.87.721-1.344 1.761-1.513 2.948-.171 1.193-.04 2.545.293 3.885.206.831-.046 2.248-.536 3.644-.487 1.388-1.217 2.761-1.956 3.5-2.444 2.45-4.16 5.039-3.477 6.642.446 1.05.784 1.322 1.484 1.798.291-.599.986-1.135 1.221-2.153.303-1.312.791-2.671 1.566-3.486.6-.639.732-1.352 2.22-2.279.963-.603 1.782-.344 2.438-1.15 1.269-1.56 2.933-5.376 1.306-7.117-1.604-1.719-2.178-2.689-.824-5.649.461-1 .449-1.739.58-2.349Z"/>
          <path d="M530.243 226.201c1.277 1.102 1.6.884 1.956 1.549.453.845.242 2.129-.148 3.334-1.537 4.753 1.361 4.335 4.842 2.517 1.732-.905 3.754-3.217 5.325-4.379 1.578-1.159 2.686-1.151 3.118-1.631.442-1.877.796-3.525.943-4.283.171-.749.52-2.43.891-4.407-.217-.59-1.305-.861-2.373-2.46-1.085-1.617-2.166-4.636-3.569-6.105-2.877-3.013-5.766-4.307-5.926 1.479-.039 1.402-.286 2.82-1.037 3.586-.589.603-.832.292-2.471 1.102-1.069.527-1.922 1.216-2.534 2-.615.789-.489 1.729-.625 2.63-.135.897-.533 1.764-.178 2.643.351.87.946 1.698 1.786 2.425Z"/>
          <path d="M531.643 233.3c1.085-.336 2.272-.688 3.364-1.531 1.664-1.287 1.18-3.78-.248-6.354-.459-.825-.513-2.209-.275-3.566.239-1.363.772-2.7 1.49-3.386 2.345-2.262 3.78-4.757 2.589-6.586-.796-1.221-1.881-1.932-2.875-2.604-.211.63-.351 1.47-.379 2.555-.037 1.402-.282 2.819-1.033 3.586-.588.603-.832.292-2.471 1.102-1.068.526-1.921 1.216-2.534 2-.615.789-.488 1.729-.624 2.63-.135.897-.534 1.764-.178 2.643.351.869.945 1.699 1.786 2.421 1.277 1.102 1.6.884 1.956 1.549.453.846.24 2.128-.148 3.334-.296.915-.431 1.642-.42 2.203v.004Z"/>
        </g>
        <g fill="#EDB92E" stroke="#21231E" stroke-linecap="round">
          <path d="m555.443 279.099-22-12.9-23.4 10.1 22 12.8 23.4-10Z"/>
          <path d="m581.943 269.9-23.8 9.4 19.652 12.848c5.088-1.705 9.123-19.12 4.148-22.298v.05Z"/>
        </g>
        <g fill="#21231E">
          <path d="M488.843 221.099c3.6.467 6.8 1.9 9.6 4.3-1.933-2.8-5.167-4.533-9.7-5.2l.1.9Z"/>
          <path d="M488.843 217.7c3.6-.466 6.8-1.9 9.6-4.3-1.933 2.8-5.167 4.534-9.7 5.2l.1-.9Z"/>
          <path d="M601.843 225.8c1.467-2.067 1.9-4.167 1.3-6.3 1.4 1.733 1.2 3.933-.6 6.6l-.7-.3Z"/>
          <path d="M555.043 219.399c1.334-3.667 3.433-6.867 6.3-9.6-3 1.666-5.367 4.866-7.1 9.6h.8Z"/>
          <path d="M552.143 219c.467-3.867-.066-7.5-1.6-10.9 2.067 2.466 2.834 6.166 2.3 11.1l-.7-.2Z"/>
          <path d="M557.543 227c2.734.733 4.734 2.366 6 4.9-.666-3-2.6-4.934-5.8-5.8l-.2.9Z"/>
          <path d="M558.743 223.599c3.134-.333 6.2-1.633 9.2-3.9-2.733 2.8-5.933 4.4-9.6 4.8l.4-.9Z"/>
          <path d="M546.443 221.699c-3.067-.8-5.667-2.6-7.8-5.4 1.2 3.066 3.767 5.166 7.7 6.3l.1-.9Z"/>
          <path d="M545.743 224.9c-3.2.066-6.266 1.133-9.2 3.2 2.2-2.534 5.367-3.867 9.5-4l-.3.8Z"/>
        </g>
        <path fill="#C6363C" stroke="#21231E" d="M532.155 284.482c5.509.385 10.194-2.429 10.464-6.286.269-3.856-3.978-7.295-9.488-7.68-5.509-.385-10.194 2.429-10.464 6.285-.269 3.857 3.978 7.296 9.488 7.681Z"/>
        <path fill="#EDB92E" stroke="#21231E" stroke-linejoin="round" d="M553.743 216.5c-4.026-.198-7.914 3.324-8.486 7.635-.57 4.31 2.244 7.656 6.104 7.701 3.859.046 7.445-3.113 8.182-7.273.738-4.16-1.774-7.864-5.8-8.063Z"/>
        <path fill="#EDB92E" stroke="#21231E" stroke-linejoin="round" d="M553.443 218.6c-2.945-.128-5.769 2.422-6.202 5.575-.435 3.152 1.586 5.647 4.458 5.695 2.834.051 5.521-2.337 6.039-5.377.534-3.106-1.351-5.764-4.295-5.893Z"/>
        <g fill="#0C4076" stroke="#21231E">
          <path d="M600.936 229.269c-2.628-1.025-6.238 5.136-2.948 6.536 2.221.945 3.977-.298 4.69-2.155.714-1.857.102-3.662-1.742-4.381Z"/>
          <path d="M581.143 274c-5.7-.6-10.5 2-10.9 5.8-.4 3.8 3.9 7.2 9.6 7.8 3.8.4 5.9-2 6.3-5.8.4-3.8-1.2-7.4-5-7.8Z"/>
          <path d="M553.143 220.699c-1.842-.068-3.602 1.515-3.888 3.489-.285 1.975.986 3.569 2.789 3.607 1.804.037 3.501-1.464 3.822-3.406.321-1.943-.882-3.619-2.723-3.69Z"/>
        </g>
      </g>
      <g>
        <g fill="#EDB92E" stroke="#21231E" stroke-linejoin="round">
          <path d="m382.443 159-27.6 13-3 12 10.9 17-1 14h-8.9l-14.8-40 18.8-16 43.4-15-17.8 15Z"/>
          <path d="M360.843 213.6a34.296 34.296 0 0 1-1.229-4.719c-.536-2.71-.306-5.517.583-8.152-2.935-4.209-6.229-8.783-8.606-13.328-1.697-3.245-3-6.857-2.01-10.558 1.065-3.947 4.435-6.636 7.48-9.011 3.647-2.846 8.51-5.338 13.433-7.466 11.025-4.634 19.789-6.902 26.213-7.108l-4.077 3.835c-11.953 3.917-26.058 9.084-32.844 14.379-8.781 6.85-8.563 8.472 4.174 26.753.397.57 1.316 2.025 1 2.688-.611 1.309-1.738 7.341.135 11.483-1.1 2.101-2.694 1-4.258 1.204h.006Z"/>
          <path d="M444.243 202.151c3.416-.232 2.571 5.894 1.897 7.259-.88 1.782-1.698 1.839-2.808.191-.851-1.262-2.504-7.218.911-7.45Z"/>
          <path d="M379.743 210.801c3.262-1.047 3.891 5.106 3.56 6.594-.434 1.942-1.215 2.192-2.683.86-1.124-1.021-4.139-6.408-.877-7.454Z"/>
        </g>
        <g fill="#fff" stroke="#21231E" stroke-linejoin="round">
          <path d="M395.143 151.4a6.4 6.4 0 1 1 0-12.8 6.4 6.4 0 0 1 0 12.8Z"/>
          <path d="M383.143 155.4a6.4 6.4 0 1 1 0-12.8 6.4 6.4 0 0 1 0 12.8Z"/>
          <path d="M371.143 159.4a6.4 6.4 0 1 1 0-12.8 6.4 6.4 0 0 1 0 12.8Z"/>
          <path d="M359.143 164.9a6.4 6.4 0 1 1 0-12.8 6.4 6.4 0 0 1 0 12.8Z"/>
          <path d="M348.143 171.4a6.4 6.4 0 1 1 0-12.8 6.4 6.4 0 0 1 0 12.8Z"/>
          <path d="M353.143 216.4a6.4 6.4 0 1 1 0-12.8 6.4 6.4 0 0 1 0 12.8Z"/>
          <path d="M347.143 205.4a6.4 6.4 0 1 1 0-12.8 6.4 6.4 0 0 1 0 12.8Z"/>
          <path d="M342.143 194.4a6.4 6.4 0 1 1 0-12.8 6.4 6.4 0 0 1 0 12.8Z"/>
          <path d="M340.143 181.4a6.4 6.4 0 1 1 0-12.8 6.4 6.4 0 0 1 0 12.8Z"/>
          <path d="M458.143 287.199a3.2 3.2 0 1 1 0-6.4 3.2 3.2 0 0 1 0 6.4Z"/>
          <path d="M409.143 290.199a3.2 3.2 0 1 1 0-6.4 3.2 3.2 0 0 1 0 6.4Z"/>
          <path d="M407.143 275.199a3.2 3.2 0 1 1 0-6.4 3.2 3.2 0 0 1 0 6.4Z"/>
          <path d="M457.143 272.199a3.2 3.2 0 1 1 0-6.4 3.2 3.2 0 0 1 0 6.4Z"/>
          <path d="M442.343 222.999c-2-3-5.8-17 2.2-17.5s6 14 4.5 17c-2 4-4.1 4.4-6.7.5Z"/>
          <path d="M389.043 229.499c-1 4.5-2.7 5.1-6.3 1.9-2.7-2.4-9.7-14.9-2-17.4 7.7-2.5 9.1 11.9 8.3 15.5Z"/>
        </g>
        <g fill="#EDB92E" stroke="#21231E" stroke-linejoin="round">
          <path d="m466.143 140-35 1-22 7-6 14 16 31-7 20-21-18-10-37 27-23 57-4 1 9Z"/>
          <path d="M464.343 137.801c-17.233-1.568-34.854.195-52.298 7.171-14.703 5.881-13.262 23.054 4.666 46.89-1.622 3.02-2.545 6.775-2.69 11.109 1.896-.104 3.226-.055 4.9-.097-1.299-2.888.155-6.425 1.796-8.917 1.071-1.627 1.289-1.341 0-3.154-10.672-15-17.744-28.125-13.584-36.055 5.055-9.637 24.656-14.657 57.715-13.922-.06-.879-.122-1.767-.181-2.663-.105-.12-.211-.239-.324-.362Z"/>
          <path d="M394.343 144a261.19 261.19 0 0 0 1.838 2.456c-9.701 5.361-13.717 11.016-12.77 16.702.161.976 3.111 11.382 9.7 31.549 4.503 3.133 7.86 5.937 10.07 8.412-.248.282.711 1.16.424 1.4.673 3.08-2.775 2.454-5.1 1.694-1.115-2.961-4.516-6.103-6.47-7.446-.398-.273-1.837-.98-1.98-1.44-3.526-11.349-7.068-21.843-10.106-31.615-3.052-9.819 3.561-16.781 14.384-21.712h.01Z"/>
        </g>
        <g fill="#fff" stroke="#21231E" stroke-linejoin="round">
          <path d="M460.143 136.4a6.4 6.4 0 1 1 0-12.8 6.4 6.4 0 0 1 0 12.8Z"/>
          <path d="M447.643 136.4a6.4 6.4 0 1 1 0-12.8 6.4 6.4 0 0 1 0 12.8Z"/>
          <path d="M435.143 137.9a6.4 6.4 0 1 1 0-12.8 6.4 6.4 0 0 1 0 12.8Z"/>
          <path d="M423.143 140.4a6.4 6.4 0 1 1 0-12.8 6.4 6.4 0 0 1 0 12.8Z"/>
          <path d="M411.143 144.4a6.4 6.4 0 1 1 0-12.8 6.4 6.4 0 0 1 0 12.8Z"/>
          <path d="M400.143 149.4a6.4 6.4 0 1 1 0-12.8 6.4 6.4 0 0 1 0 12.8Z"/>
          <path d="M393.143 157.4a6.4 6.4 0 1 1 0-12.8 6.4 6.4 0 0 1 0 12.8Z"/>
          <path d="M406.143 203.4a6.4 6.4 0 1 1 0-12.8 6.4 6.4 0 0 1 0 12.8Z"/>
          <path d="M401.143 192.4a6.4 6.4 0 1 1 0-12.8 6.4 6.4 0 0 1 0 12.8Z"/>
          <path d="M396.143 181.4a6.4 6.4 0 1 1 0-12.8 6.4 6.4 0 0 1 0 12.8Z"/>
          <path d="M392.143 169.4a6.4 6.4 0 1 1 0-12.8 6.4 6.4 0 0 1 0 12.8Z"/>
        </g>
        <g fill="#EDB92E" stroke="#21231E" stroke-linejoin="round">
          <path d="m358.143 217-.363 1.98c-2.787.66-5.171.825-7.15.494 3.311-3.299 5.777-4 7.513-2.474Z"/>
          <path d="M357.143 212.301c1.77.434 1.934.735 2.706.87 1 .172 2.359.102 3.3-.729 3.838-2.319 3.92 1.858 2.429 4.986-1.081 2.266-2.078 5.171-1.046 7.111 1.22 2.291.96 3.34.097 3.959-.596.393-1.166.762-1.677 1.091-1.033 1.229-1.819 1.017-1.965-.591-3.831-1.588-3.549-5.636-4.696-8.895-1.677-4.766-7.771-5.893.852-7.802Z"/>
          <path d="M359.143 212.5c3.337 1.198 3.709-.666 5.96-.571-.887 5.141-1.784 7.802-7.109 5.043-2.939-1.524-6.702.706-7.417 2.359-.261.604-1.971-.65-2.595-2.025-2.615-5.757 6.688-6.411 11.161-4.806Z"/>
          <path d="M370.943 237.401c2.417-.743 6.195 4.636 7.094 4.543 1.189-3.076-1.237-10.433-5.533-16.257-2.918-.958-3.18-2.848-3.783-7.23-.18-1.311-2.679-.408-2.725 1.823-.05 2.391-.234 3.715.297 5.756.209.805.094 1.576-.798 2.31 4.55 1.815 5.668 4.04 5.448 9.055Z"/>
          <path d="M368.743 218.5c-.417 1-.543 1.835-.643 3.368-.077 1.167.349 2.261 1.092 3.229.745.973 1.811 1.829 3 2.524.741.432 1.592 1.625 2.265 2.981.67 1.35 1.161 2.872 1.188 3.955.096 3.58.789 6.708 2.417 7.325 1.065.404 1.491.342 2.316.149-.233-.643-.144-1.549-.718-2.446-.739-1.157-1.388-2.486-1.446-3.649-.051-.904-.475-1.508-.125-3.29.225-1.155.972-1.591.84-2.656-.257-2.062-1.874-6.02-4.248-6.02-2.341 0-3.435-.254-4.646-3.37-.412-1.06-.95-1.57-1.3-2.1h.008Z"/>
          <path d="M359.943 227.1c.635-.49 1.405-.852 2.129-1.135 1.23-.481 2.543-.554 3.811-.171 5.613 1.697 8.071 11.668 1.921 14.064-1.212.148-2.329-.948-3.417-3.354-1.282-3.185-2.645-5.395-4.106-6.747-.895-1.129-.925-2.085-.338-2.657Z"/>
          <path d="M362.743 227.699c5.392-2.104 9.361 8.226 4.323 10.189-2.705 1.054-2.963-2.33-3.488-4.211-.71-2.542-6.013-3.956-.835-5.978Z"/>
          <path d="M474.443 198c-2.701-5.03-5.566-8.248-8.596-9.65 4.176-13.155 5.158-30.146 2.703-51.096-.248-3.13-1.021-4.479-2.213-4.457-1.046.019-1.679 1.617-1.781 5.221.759 11.525 1.692 21.606 1.17 30.165-.468 7.643-2.262 14-4.238 21.155-.273 1 .431 1.775 3.869 3.712 2.536 1.444 4.134 3.218 4.666 5.073.735-.296 1.207-.207 1.472-.13 2.547.739 3.623.538 2.948 0V198Z"/>
          <path d="M458.443 214.6c1.565-.986 1.872-.724 2.374-1.371.647-.832.656-2.198.453-3.508-.819-5.285 2.335-4.547 5.882-2.211 1.774 1.169 3.559 3.883 5.083 5.299 1.524 1.416 2.789 1.537 3.168 2.096.048 2.028.057 3.78.043 4.573.014.792 0 2.542-.043 4.57-.381.559-1.645.68-3.168 2.096-1.524 1.417-3.309 4.13-5.083 5.298-3.547 2.338-6.701 3.074-5.882-2.211.201-1.309.194-2.675-.453-3.508-.502-.647-.809-.384-2.374-1.371-1.016-.638-1.777-1.408-2.285-2.243-.507-.835-.231-1.735-.231-2.635 0-.9-.276-1.8.231-2.635.508-.835 1.269-1.605 2.285-2.239Z"/>
          <path d="M461.143 207.301c1.141.469 2.384.972 3.437 2 1.6 1.552.563 4.13-1.505 6.624-.651.787-.966 2.177-.962 3.561 0 1.384.332 2.762.962 3.524 2.067 2.494 3.104 5.071 1.505 6.624-1.052 1.022-2.295 1.523-3.436 2-.11-.601-.098-1.39.059-2.402.203-1.309.195-2.676-.452-3.508-.503-.647-.809-.385-2.375-1.37-1.015-.639-1.776-1.409-2.285-2.244-.507-.834-.231-1.734-.231-2.635 0-.9-.277-1.8.231-2.635.509-.836 1.27-1.605 2.285-2.244 1.566-.986 1.872-.724 2.375-1.371.647-.832.655-2.198.452-3.508-.157-1.012-.169-1.802-.06-2.403v-.013Z"/>
          <path d="M410.743 200.001c1.329 1.686 1.169 2.09 1.89 2.573.94.624 2.216.407 3.4-.046 4.858-1.859 4.86 2 3.448 6.429-.684 2.145-2.756 4.471-3.68 6.296-.908 1.787-.713 3.125-1.12 3.582a95.095 95.095 0 0 1-3.964.586c-.674.108-2.175.302-3.907.488-.567-.323-1-1.593-2.612-2.987-1.612-1.401-4.402-2.918-5.902-4.63-3.044-3.474-4.663-6.811.124-6.694 1.191.03 2.382-.188 2.916-1.044.422-.669.105-.972.516-2.929.268-1.283.738-2.307 1.342-3.043.614-.749 1.509-.584 2.334-.738.832-.156 1.589-.647 2.508-.182.918.466 1.846 1.238 2.707 2.339Z"/>
          <path d="M418.343 202c-.18 1.422-.365 2.953-1.072 4.318-1.063 2.054-3.684 1.263-6.483-.698-.881-.619-2.231-.762-3.477-.542-1.243.219-2.383.792-2.879 1.613-1.596 2.639-3.512 4.121-5.31 2.614-1.191-1-2-2.291-2.751-3.477.482-.211 1.165-.315 2.09-.293 1.191.03 2.383-.187 2.916-1.043.423-.669.108-.972.517-2.924.27-1.287.738-2.308 1.342-3.048.613-.749 1.51-.579 2.335-.734.832-.155 1.587-.651 2.506-.184.918.464 1.846 1.237 2.712 2.336 1.328 1.687 1.163 2.091 1.89 2.578.94.62 2.217.4 3.4-.05.916-.346 1.662-.491 2.264-.466Z"/>
          <path d="M391.743 221.201c.775-.942 1.083-.733 1.225-1.325.179-.764-.271-1.962-.854-3.104-2.331-4.57.149-4.185 3.512-2.382.852.457 1.842 1.268 2.824 2.103 1 .843 1.975 1.726 2.798 2.318 1.667 1.2 2.696 1.235 3.182 1.72a156.95 156.95 0 0 1 1.611 4.193c.284.724.882 2.328 1.541 4.178-.106.516-1.065.659-1.781 1.978-.704 1.3-1.258 3.659-2.12 4.795-1.264 1.666-2.42 2.658-3.32 2.495-.897-.164-1.537-1.477-1.777-4.382-.094-1.128-.739-2.322-1.483-3.029-.58-.552-.709-.32-2.144-1.128a9.287 9.287 0 0 1-2.345-1.865c-.627-.698-.724-1.479-1.015-2.248-.292-.774-.778-1.534-.703-2.267a3.787 3.787 0 0 1 .849-2.05Z"/>
          <path d="M391.343 213.8c1 .365 1.659.821 2.802 1.766.87.721 1.344 1.761 1.513 2.948.171 1.193.04 2.545-.293 3.885-.206.831.046 2.248.536 3.644.487 1.388 1.217 2.761 1.956 3.5 2.444 2.45 4.16 5.039 3.477 6.642-.446 1.05-.784 1.322-1.483 1.798-.292-.599-.986-1.135-1.222-2.153-.303-1.312-.791-2.671-1.566-3.486-.6-.639-.731-1.352-2.22-2.279-.963-.603-1.782-.344-2.438-1.15-1.268-1.56-2.932-5.376-1.305-7.117 1.603-1.719 2.177-2.689.823-5.649-.461-1-.449-1.739-.58-2.349Z"/>
          <path d="M434.043 226.201c-1.277 1.102-1.6.884-1.956 1.549-.453.845-.241 2.129.148 3.334 1.537 4.753-1.361 4.335-4.842 2.517-1.732-.905-3.754-3.217-5.325-4.379-1.578-1.159-2.686-1.151-3.118-1.631a129.732 129.732 0 0 1-.943-4.283c-.171-.749-.519-2.43-.891-4.407.218-.59 1.305-.861 2.373-2.46 1.085-1.617 2.166-4.636 3.57-6.105 2.876-3.013 5.765-4.307 5.925 1.479.039 1.402.287 2.82 1.037 3.586.589.603.832.292 2.471 1.102 1.069.527 1.922 1.216 2.534 2 .615.789.489 1.729.625 2.63.135.897.533 1.764.178 2.643-.351.87-.946 1.698-1.786 2.425Z"/>
          <path d="M432.643 233.3c-1.085-.336-2.272-.688-3.364-1.531-1.664-1.287-1.18-3.78.249-6.354.458-.825.512-2.209.274-3.566-.239-1.363-.772-2.7-1.49-3.386-2.345-2.262-3.78-4.757-2.589-6.586.797-1.221 1.882-1.932 2.875-2.604.211.63.351 1.47.379 2.555.037 1.402.282 2.819 1.033 3.586.588.603.832.292 2.471 1.102 1.068.526 1.922 1.216 2.534 2 .615.789.488 1.729.624 2.63.135.897.534 1.764.178 2.643-.351.869-.945 1.699-1.786 2.421-1.277 1.102-1.6.884-1.956 1.549-.453.846-.24 2.128.148 3.334.296.915.431 1.642.42 2.203v.004Z"/>
        </g>
        <g fill="#EDB92E" stroke="#21231E" stroke-linecap="round">
          <path d="m408.843 279.099 22-12.9 23.4 10.1-22 12.8-23.4-10Z"/>
          <path d="m382.343 269.9 23.8 9.4-19.652 12.848c-5.088-1.705-9.122-19.12-4.148-22.298v.05Z"/>
        </g>
        <g fill="#21231E">
          <path d="M475.443 221.099c-3.6.467-6.8 1.9-9.6 4.3 1.933-2.8 5.167-4.533 9.7-5.2l-.1.9Z"/>
          <path d="M475.443 217.7c-3.6-.466-6.8-1.9-9.6-4.3 1.933 2.8 5.167 4.534 9.7 5.2l-.1-.9Z"/>
          <path d="M362.443 225.8c-1.467-2.067-1.9-4.167-1.3-6.3-1.4 1.733-1.2 3.933.6 6.6l.7-.3Z"/>
          <path d="M409.243 219.399c-1.333-3.667-3.433-6.867-6.3-9.6 3 1.666 5.367 4.866 7.1 9.6h-.8Z"/>
          <path d="M412.143 219c-.467-3.867.067-7.5 1.6-10.9-2.067 2.466-2.833 6.166-2.3 11.1l.7-.2Z"/>
          <path d="M406.743 227c-2.733.733-4.733 2.366-6 4.9.667-3 2.6-4.934 5.8-5.8l.2.9Z"/>
          <path d="M405.543 223.599c-3.133-.333-6.2-1.633-9.2-3.9 2.733 2.8 5.933 4.4 9.6 4.8l-.4-.9Z"/>
          <path d="M417.843 221.699c3.067-.8 5.667-2.6 7.8-5.4-1.2 3.066-3.767 5.166-7.7 6.3l-.1-.9Z"/>
          <path d="M418.543 224.9c3.2.066 6.267 1.133 9.2 3.2-2.2-2.534-5.367-3.867-9.5-4l.3.8Z"/>
        </g>
        <path fill="#C6363C" stroke="#21231E" d="M432.131 284.482c-5.509.385-10.194-2.429-10.464-6.286-.269-3.856 3.978-7.295 9.488-7.68 5.509-.385 10.194 2.429 10.464 6.285.269 3.857-3.978 7.296-9.488 7.681Z"/>
        <path fill="#EDB92E" stroke="#21231E" stroke-linejoin="round" d="M410.543 216.5c4.026-.198 7.914 3.324 8.486 7.635.571 4.31-2.244 7.656-6.103 7.701-3.86.046-7.446-3.113-8.183-7.273-.738-4.16 1.774-7.864 5.8-8.063Z"/>
        <path fill="#EDB92E" stroke="#21231E" stroke-linejoin="round" d="M410.843 218.6c2.945-.128 5.769 2.422 6.202 5.575.435 3.152-1.586 5.647-4.458 5.695-2.834.051-5.521-2.337-6.039-5.377-.533-3.106 1.351-5.764 4.295-5.893Z"/>
        <g fill="#0C4076" stroke="#21231E">
          <path d="M363.35 229.269c2.628-1.025 6.238 5.136 2.948 6.536-2.221.945-3.977-.298-4.69-2.155-.714-1.857-.102-3.662 1.742-4.381Z"/>
          <path d="M383.143 274c5.7-.6 10.5 2 10.9 5.8.4 3.8-3.9 7.2-9.6 7.8-3.8.4-5.9-2-6.3-5.8-.4-3.8 1.2-7.4 5-7.8Z"/>
          <path d="M411.143 220.699c1.842-.068 3.602 1.515 3.888 3.489.285 1.975-.986 3.569-2.789 3.607-1.803.037-3.501-1.464-3.822-3.406-.321-1.943.882-3.619 2.723-3.69Z"/>
        </g>
      </g>
      <g fill="#fff" stroke="#21231E" stroke-linejoin="round">
        <path d="M482.143 195.4a6.4 6.4 0 1 0 0-12.8 6.4 6.4 0 0 0 0 12.8Z"/>
        <path d="M482.143 183.4a6.4 6.4 0 1 0 0-12.8 6.4 6.4 0 0 0 0 12.8Z"/>
        <path d="M482.143 171.9a6.4 6.4 0 1 0 0-12.8 6.4 6.4 0 0 0 0 12.8Z"/>
        <path d="M482.143 139.4a6.4 6.4 0 1 0 0-12.8 6.4 6.4 0 0 0 0 12.8Z"/>
        <path d="M482.143 149.4a6.4 6.4 0 1 0 0-12.8 6.4 6.4 0 0 0 0 12.8Z"/>
        <path d="M482.143 160.4a6.4 6.4 0 1 0 0-12.8 6.4 6.4 0 0 0 0 12.8Z"/>
      </g>
      <path fill="#EDB92E" stroke="#21231E" stroke-linejoin="round" d="M482.143 192.999c.9 0 1.8-.3 2.6.2s1.6 1.3 2.2 2.3c.9 1.5.6 2 1.4 2.4 1 .5 2.2.7 3.5.5 5.2-.8 4.6 2.3 2.2 5.9-1.2 1.8-3.9 3.6-5.3 5.1-1.4 1.5-1.5 2.8-2.1 3.2h-9c-.6-.4-.7-1.7-2.1-3.2-1.4-1.5-4.1-3.3-5.3-5.1-2.4-3.6-3-6.7 2.2-5.9 1.3.2 2.5 0 3.5-.5.8-.4.5-.9 1.4-2.4.6-1 1.4-1.8 2.2-2.3.8-.5 1.7-.2 2.6-.2Z"/>
      <path fill="#21231E" d="M483.743 212.6c.467-3.6 1.933-6.8 4.4-9.6-2.867 1.933-4.633 5.2-5.3 9.8l.9-.2Z" class="g"/>
      <path fill="#21231E" d="M480.543 212.6c-.467-3.6-1.933-6.8-4.4-9.6 2.867 1.933 4.633 5.2 5.3 9.8l-.9-.2Z" class="g"/>
      <g fill="#EDB92E" stroke="#21231E" stroke-linejoin="round">
        <path d="M482.143 192.999c.9 0 1.8-.3 2.6.2s1.6 1.3 2.2 2.3c.9 1.5.6 2 1.4 2.4 1 .5 2.2.7 3.5.5 1-.2 1.8-.2 2.4-.1-.5 1.1-1 2.5-2 3.5-1.5 1.5-3.6.4-6.6-1.6-.9-.6-2.1-.9-3.5-.9s-2.6.3-3.5.9c-3 2-5.1 3.1-6.6 1.6-1-1-1.5-2.4-2-3.5.6-.1 1.4-.1 2.4.1 1.3.2 2.5 0 3.5-.5.8-.4.5-.9 1.4-2.4.6-1 1.4-1.8 2.2-2.3.8-.5 1.7-.2 2.6-.2Z"/>
        <path d="M482.143 211.648c4.27 0 7.732 3.488 7.732 7.79s-3.462 7.79-7.732 7.79-7.73-3.488-7.73-7.79 3.46-7.79 7.73-7.79Z"/>
        <path d="M580.143 296.5c0-1.8-1.633-2.834-4.9-3.1a1142.3 1142.3 0 0 0-186.2 0c-3.267.266-4.9 1.3-4.9 3.1s1.633 2.833 4.9 3.1a1142.525 1142.525 0 0 0 186.2 0c3.267-.267 4.9-1.3 4.9-3.1Z"/>
        <path d="M482.143 227.099a7.7 7.7 0 1 0 0-15.4 7.7 7.7 0 0 0 0 15.4Z"/>
        <path d="M482.143 225.099a5.7 5.7 0 1 0 0-11.4 5.7 5.7 0 0 0 0 11.4Z"/>
      </g>
      <g fill="#0C4076" stroke="#21231E">
        <path d="M482.143 283c5.523 0 10-3.134 10-7s-4.477-7-10-7-10 3.134-10 7 4.477 7 10 7Z"/>
        <path d="M482.143 223.099a3.7 3.7 0 1 0 .001-7.399 3.7 3.7 0 0 0-.001 7.399Z"/>
      </g>
      <path stroke="#21231E" stroke-linecap="round" d="M435.143 300c-7.067-.533-14.733-1.233-23-2.1a981.348 981.348 0 0 1 140 0c-8.267.867-15.933 1.567-23 2.1"/>
      <path fill="#C6363C" stroke="#fff" stroke-width="2.5" d="M650.893 301.25V576c0 45-20 89-50 121s-72 54-118.75 54-88.75-22-118.75-54-50-76-50-121V301.25h337.5Z"/>
      <g fill="#fff" stroke="#21231E" stroke-linejoin="round">
        <path d="M480.613 734.79c-1.456-.24-3.913.067-5.769-1.394-2.47-1.942-1.491-9.787-1.268-14.751 1.135-25.354 2.173-68.034 3.463-127.97 2.113-.288 3.65-.14 5.095.079 1.444-.219 2.982-.367 5.094-.079 1.29 59.939 2.328 102.62 3.465 127.97.221 4.964 1.202 12.809-1.269 14.751-1.857 1.461-4.314 1.153-5.77 1.394h-3.041Z"/>
        <path d="M464.733 734.06c1.472-.106 3.89.423 5.872-.862 2.636-1.71 2.853-9.733 3.08-14.696 1.163-25.353 3.508-67.829 7.646-127.64-2.077-.479-3.623-.47-5.081-.385a29.566 29.566 0 0 0-.693-.161c-9.527 59.168-13.124 101.14-19.648 126.46-.9 3.496-2.835 12.254.176 15.1 1.717 1.623 4.192 1.541 5.619 1.911l3.029.276v-.003Z"/>
        <path d="M446.043 731.401c1.475.027 3.836.774 5.926-.327 2.78-1.464 2.668-9.472 3.906-14.28 6.525-25.321 10.122-67.309 19.653-126.5-2.025-.666-3.564-.798-5.024-.845-15.15 57.536-19.692 98.095-31.451 123.15-1.089 3.472-4.053 12.691-1.219 15.903 1.565 1.773 4.036 1.914 5.424 2.413l3 .55-.215-.064Z"/>
        <path d="M427.303 726.081c1.465.174 3.935 1.539 6.123.651 2.911-1.181 3.367-9.747 5.461-14.209 11.813-25.169 16.342-65.982 31.66-123.94-1.95-.862-3.469-1.145-4.918-1.337-1.327-.61-1.075-.923-3.185-1.232-17.797 57.241-23.578 97.056-40.366 121.76-2.71 3.987-4.694 11.975-2.856 14.525 1.382 1.918 3.827 2.304 5.16 2.938l2.922.842-.001.002Z"/>
        <path d="M499.533 734.06c-1.472-.106-3.89.423-5.872-.862-2.637-1.71-2.853-9.733-3.08-14.696-1.164-25.353-3.508-67.829-7.646-127.64 2.077-.479 3.622-.47 5.081-.385.227-.056.457-.109.693-.161 9.527 59.168 13.124 101.14 19.648 126.46.9 3.496 2.833 12.254-.176 15.1-1.718 1.623-4.192 1.541-5.62 1.911l-3.029.276.001-.003Z"/>
        <path d="M518.243 731.401c-1.474.027-3.836.774-5.926-.327-2.779-1.464-2.666-9.472-3.905-14.28-6.524-25.321-10.122-67.309-19.655-126.5 2.026-.666 3.566-.798 5.026-.845 15.151 57.536 19.693 98.095 31.451 123.15 1.088 3.472 4.053 12.691 1.219 15.903-1.564 1.773-4.036 1.914-5.425 2.413l-3 .55.215-.064Z"/>
        <path d="M536.973 726.081c-1.465.174-3.935 1.539-6.123.651-2.911-1.181-3.366-9.747-5.462-14.209-11.812-25.169-16.341-65.982-31.659-123.94 1.95-.862 3.469-1.145 4.918-1.337 1.327-.61 1.075-.923 3.185-1.232 17.797 57.241 23.578 97.056 40.366 121.76 2.709 3.987 4.694 11.975 2.856 14.525-1.382 1.918-3.827 2.304-5.16 2.938l-2.922.842.001.002Z"/>
        <path d="M437.233 682.841c1.341.081 3.36.898 5.464-.105 2.799-1.335 4.626-9.067 6.126-13.873 11.915-23.54 22.791-65.347 40.632-123.45-1.728-.728-3.108-.914-4.432-1.013-1.175-.517-2.454-.988-4.378-1.162-19.215 57.497-27.843 99.074-46.623 121.97-3.101 3.78-5.407 12.025-3.932 14.414 1.107 1.798 3.337 2.027 4.515 2.568l2.629.648-.001.003Z"/>
        <path d="M452.433 685.82c1.344-.027 3.449.628 5.427-.54 2.632-1.552 3.562-9.394 4.501-14.3 4.802-25.052 13.658-67.097 26.244-126.12-1.804-.586-3.2-.66-4.528-.654-1.229-.421-2.556-.788-4.492-.808-14.871 58.657-18.311 102.58-32.376 125.13-2.563 4.109-4 12.402-2.257 14.663 1.31 1.7 3.556 1.751 4.8 2.195l2.692.436-.011-.002Z"/>
        <path d="M467.903 687.581c1.335-.134 3.504.349 5.34-.971 2.441-1.756 2.464-9.635 2.835-14.592 1.897-25.321 5.876-67.88 11.614-127.64-1.863-.439-3.261-.403-4.583-.289-1.272-.32-2.634-.58-4.563-.445-8.055 59.573-12.736 102.71-17.833 127.14-1.017 4.872-2.552 12.664-.558 14.776 1.498 1.587 3.74 1.458 5.018 1.802l2.73.219Z"/>
        <path d="M527.043 682.841c-1.34.081-3.36.898-5.464-.105-2.799-1.335-4.626-9.067-6.126-13.873-11.915-23.54-22.791-65.347-40.632-123.45 1.728-.728 3.108-.914 4.432-1.013 1.174-.517 2.454-.988 4.378-1.162 19.215 57.497 27.843 99.074 46.623 121.97 3.1 3.78 5.407 12.025 3.932 14.414-1.107 1.798-3.337 2.027-4.514 2.568l-2.63.648.001.003Z"/>
        <path d="M511.843 685.82c-1.343-.027-3.448.628-5.427-.54-2.632-1.552-3.561-9.394-4.5-14.3-4.801-25.052-13.659-67.097-26.245-126.12 1.805-.586 3.2-.66 4.53-.654 1.228-.421 2.554-.788 4.491-.808 14.871 58.657 18.311 102.58 32.378 125.13 2.562 4.109 4 12.402 2.255 14.663-1.31 1.7-3.555 1.751-4.789 2.195l-2.693.436v-.002Z"/>
        <path d="M496.363 687.581c-1.335-.134-3.505.349-5.34-.971-2.441-1.756-2.464-9.635-2.836-14.592-1.898-25.321-5.876-67.88-11.614-127.64 1.864-.439 3.26-.403 4.582-.289 1.273-.32 2.634-.58 4.565-.445 8.054 59.573 12.735 102.71 17.832 127.14 1.017 4.872 2.553 12.664.559 14.776-1.5 1.587-3.74 1.458-5.019 1.802l-2.731.219h.002Z"/>
        <path d="M480.763 688.091c-1.312-.24-3.528.068-5.203-1.393-2.228-1.942-1.344-9.788-1.143-14.752 1.024-25.356 1.96-68.036 3.123-127.98 1.906-.288 3.292-.14 4.595.079 1.303-.217 2.688-.367 4.594-.079 1.164 59.942 2.1 102.62 3.124 127.98.2 4.964 1.084 12.81-1.143 14.752-1.676 1.461-3.891 1.153-5.204 1.393h-2.743Z"/>
        <path d="M447.743 647.97c1.028.081 2.575.9 4.186-.103 2.143-1.336 3.542-9.067 4.691-13.873 9.126-23.54 17.457-65.347 31.123-123.45l-6.748-2.175c-14.718 57.497-21.327 99.074-35.711 121.97-2.375 3.78-4.141 12.025-3.012 14.415.849 1.797 2.557 2.027 3.458 2.566l2.013.65Z"/>
        <path d="M459.383 650.961c1.03-.027 2.641.626 4.157-.54 2.016-1.552 2.728-9.395 3.448-14.3 3.677-25.054 10.461-67.1 20.101-126.12l-6.909-1.462c-11.391 58.657-14.025 102.58-24.8 125.13-1.964 4.109-3.063 12.402-1.729 14.663 1 1.7 2.723 1.751 3.668 2.195.686.146 1.381.291 2.063.433l.001.001Z"/>
        <path d="M471.233 652.72c1.022-.135 2.684.349 4.09-.972 1.869-1.755 1.887-9.635 2.172-14.592 1.452-25.32 4.5-67.88 8.895-127.64l-7-.733c-6.169 59.573-9.755 102.71-13.659 127.14-.779 4.872-1.955 12.664-.428 14.776 1.148 1.587 2.865 1.458 3.844 1.801l2.093.22h-.007Z"/>
        <path d="M516.533 647.97c-1.027.081-2.574.9-4.186-.103-2.143-1.336-3.542-9.067-4.691-13.873-9.126-23.54-17.457-65.347-31.123-123.45l6.748-2.175c14.718 57.497 21.327 99.074 35.711 121.97 2.375 3.78 4.142 12.025 3.012 14.415-.849 1.797-2.557 2.027-3.457 2.566l-2.014.65Z"/>
        <path d="M504.893 650.961c-1.029-.027-2.641.626-4.157-.54-2.015-1.552-2.728-9.395-3.447-14.3-3.678-25.054-10.462-67.1-20.101-126.12l6.909-1.462c11.391 58.657 14.025 102.58 24.8 125.13 1.962 4.109 3.062 12.402 1.727 14.663-1 1.7-2.723 1.751-3.667 2.195-.687.146-1.381.291-2.064.433v.001Z"/>
        <path d="M493.033 652.72c-1.023-.135-2.684.349-4.09-.972-1.87-1.755-1.888-9.635-2.172-14.592-1.453-25.32-4.5-67.88-8.895-127.64l7-.733c6.171 59.573 9.756 102.71 13.66 127.14.779 4.872 1.956 12.664.427 14.776-1.148 1.587-2.864 1.458-3.843 1.801l-2.092.22h.005Z"/>
        <path d="M481.083 653.231c-1-.24-2.703.068-3.987-1.393-1.706-1.942-1.029-9.786-.876-14.751.785-25.357 1.503-68.037 2.394-127.98h7.038c.892 59.942 1.61 102.62 2.394 127.98.154 4.964.831 12.809-.876 14.751-1.283 1.461-2.98 1.153-3.986 1.393h-2.101Z"/>
        <path d="M500.243 575.201c0 4.8-11.9 55.4-18.1 55.4-6.2 0-18.1-50.6-18.1-55.4h36.2Z"/>
      </g>
      <g stroke="#21231E" class="b">
        <g fill="#EDB92E" stroke-linejoin="round">
          <path d="M564.143 638c.3 0 .6.7.7 1 1 3 4.9 8 7.9 11 4.7 4.7 3.4 12 .4 16-3.3 4.4-5.2 9.2-5.9 12.7-.5 2.5-1.2 7.6-.6 15.6.3 4 2.7 5.9 4.9 7.7 1.1.9-.8 3.3-4.4 6-.4.3-1.4.9-2 3-.1.3-1.9.3-2 0-.6-2.1-1.6-2.7-2-3-3.6-2.7-5.5-5.1-4.4-6 2.2-1.8 4.6-3.7 4.9-7.7.6-8-.1-13.1-.6-15.6-.7-3.5-2.6-8.3-5.9-12.7-3-4-4.3-11.3.4-16 3-3 6.9-8 7.9-11 .1-.3.4-1 .7-1Z"/>
          <path d="M576.843 701.202c-8 6-15.4-8.4-8.2-27.6 5.4-14.4 31.3-8.4 16.6 10.5-.7.9-1.7.5-1.5-.5.8-4-1.4-6.3-5.6-5.5-10.5 2-10.9 22 .6 17.5 2.1-.2.1 4.1-1.9 5.6Z" class="c"/>
          <path d="M551.443 701.202c8 6 15.4-8.4 8.2-27.6-5.4-14.4-31.3-8.4-16.6 10.5.7.9 1.7.5 1.5-.5-.8-4 1.4-6.3 5.6-5.5 10.5 2 10.9 22-.6 17.5-2.1-.2-.1 4.1 1.9 5.6Z" class="c"/>
          <path d="M558.143 685.5a3.503 3.503 0 0 0-3.5 3.5 3.503 3.503 0 0 0 3.5 3.5h12a3.502 3.502 0 0 0 2.475-5.975 3.502 3.502 0 0 0-2.475-1.025h-12Z"/>
          <path d="M570.243 596.001c5 11 11 21 17 30 3 1 5 2.5 7 3.1 2 .6 16 .4 16.5-.6 4.5-3.5 11.5-.5 8.5 3.5 2 2-2 7.4-5 5-3-2.4-13 0-16-1 1 3 11 4.7 17 5 6 .3 5 6 3 11l-2 1c-2 4-7.8 2.8-8-1-.2-3.8-14-9-16-12 2 6 8 12 11 18 3 3 5 3 1 9l-7 1c-6 0-7-2-6-7s-3.7-14-5-16.6c-1.2-2.4-1.5-4.9-2.7-6.3-2.1-2.8-12.8-7.4-15.3-6.1-5 2.6-8.5 1-9-4 1-1 0-8 3.6-8.6 3-.5 4.4 1 6.9 3 4 3.2 6.2 5 7.4 4.7 3.2-.8-5.7-5.1-13.7-15.7-8-10.6-11.2-26.4 6.8-15.4Z"/>
          <path d="M619.063 634.54c4.012-2.352 6.318-2.259 7.875-.508.855.962 1.948.464 1.308-1.047-2.668-6.314-6.923-7.1-10.741-4.14a134.02 134.02 0 0 0-2.787 2.691c.64.948 3.828 2.277 4.345 3v.004Z"/>
          <path d="M561.603 628.891c-4.258-2.9-8.25-3.468-10.436-1.839-1.202.895-2.39.253-1.332-1.236 4.417-6.22 9.594-6.536 13.5-3.029 1.06 1.149 1.903 2.13 2.745 3.109-1.337 1.466-4.291 3.12-4.476 3l-.001-.005Z"/>
          <path d="M595.153 664.551c-.129-.257.978-5.44 2.712-7.059 1.348 1.081 2.863 2.035 4.286 3.523 4.26 4.451 4.241 11.011-2.413 16.728-1.643 1.412-2.393-.077-1.729-1.7 1.135-2.777-.244-6.319-2.856-11.492Z"/>
          <path d="M611.743 650.901c3.956 1.644 5.321 3.727 5.177 6.463-.078 1.505.909 2.066 1.467.316 4.837-11.243-.18-13.347-7.43-12.938-.416 1.959.615 6.087.786 6.159Z"/>
        </g>
        <path stroke-linecap="round" d="M558.443 603.9c1.9-1.8 3.9-3.7 5.8-1.5s.9 4.3-1.9 7.2c1.8-1.2 4-5.2 6-2.4 2 2.8.2 5.2-2 7.5 2.3-1.9 4.1-4.8 6.1-2.4s0 4.8-1.8 6.6c2-1.6 4-3.1 5.2-1.7 1.8 2.1.3 3.5-1.6 5.3 2.2-1.6 3.7-3.2 5.3-1.4 1.6 1.8-.5 4-1.7 4.8"/>
        <g fill="#fff" stroke-linejoin="round">
          <path d="M558.793 469c-.182 8.678 1.356 66.559 1.84 74.738.483 8.144 4.092 13.695 7.938 16.877 3.527-4.849 5.632-11.392 6.134-19.156.254-3.958-.474-58.733-.778-70L558.793 469Z"/>
          <path d="m596.413 454.83 2.456 79.583c.775 7.06-8.418 49.073-13.442 57.361-12.436-5.318-15.062-33.821-12.721-61.594 2.34-27.775-.392-51.76-2.288-56.751l25.995-18.599Z"/>
          <path d="m611.153 467.85-1.689 79.603c.406 7.094-10.96 48.541-16.409 56.542-12.613-9.79-10.075-49.808-8.142-61.917 3.852-24.13 3.197-52.079 1.869-56.621l24.371-17.607Z"/>
          <path d="m622.093 486.701-20.911-.533c1.777 8.684.355 35.655-3.252 56.214-3.383 19.277-8.107 69.272 11.96 81.276 12.444-26.379 2.969-52.014 9.241-74.92l2.962-62.037Z"/>
          <path d="m542.143 454.381 4.103 74.644c.729 8.124 4.503 13.556 8.444 16.614 3.379-4.959 5.285-11.567 5.55-19.342.136-3.964-2.252-58.69-2.896-69.933l-15.201-1.983Z"/>
          <path d="M579.293 407.23c.557 18.646.875 59.108.759 62.547-.265 7.776-3.331 17.672-6.709 22.631-3.941-3.058-7.716-8.489-8.446-16.615-.6-6.679-.81-39.483-.911-55.923l15.307-12.64Z"/>
          <path d="M564.353 419.25c.371 20.09.154 51.736.066 54.309-.265 7.775-2.172 14.383-5.55 19.344-3.941-3.059-8.104-8.685-8.832-16.809-.448-5-1.838-26.451-1.968-42.913l16.284-13.931Z"/>
          <path d="m577.203 405.551 14.24-20.52c2.878 10.123 6.387 82.767 2.268 88.725-.265 7.776-3.071 14.355-6.45 19.314-3.941-3.058-9.823-8.555-8.123-16.78 1.698-8.224-.207-62.257-1.935-70.739Z"/>
          <path d="m606.403 451.24.966 22.814c-.266 7.776-2.172 14.383-5.55 19.344-3.942-3.059-8.96-8.475-8.445-16.615 2-31.459-1.448-61.093-5.453-89.577l12.451-7.634 6.031 71.668Z"/>
          <path d="m620.643 471.82-3.861 14.631c-.266 7.776-5.067 14.196-8.446 19.156-3.94-3.058-7.52-8.088-6.515-16.18 5.779-46.464 3.713-77.204-6.033-115.07 22.039 15.045 32.255 46.787 24.855 97.453v.01Z"/>
          <path d="m619.513 486.221 20.223-6.717c2.577 20.221-1.384 45.621-6.829 79.114-4.677 28.76-2.218 51.522 1.357 66.121-21.575-2.955-30.695-30.772-19.88-83.093 2.831-13.695 5.676-31.201 5.129-55.425Z"/>
          <path d="M611.682 392.777c4.964 24.275 8.236 52.876 4.484 84.249-1.392 11.641-3.861 21.161-7.48 28.518 14.559-1.653 23.89-15.872 22.683-40.67l-3.27-69.313-16.417-2.784Z"/>
          <path d="M622.249 395.934c1.09 6.289 4.831 13.704 5.605 21.729 2.566 26.596 2.576 59.898-5.416 81.186 14.559-1.653 19.556-14.853 20.028-39.678.389-20.523.456-44.72-4.693-72.661l-15.524 9.424Z"/>
          <path d="m591.993 389.97 13.435-1.568c2.469 12.704 4.357 21.686 4.815 26.212.898 8.877-1.793 17.014-4.868 23.075-4.954-2.986-7.255-9.51-9.339-18.659l-4.043-29.06Z"/>
          <path d="m557.143 418.58 11.924.125c.408 10.961.704 18.379.509 22.241-.382 7.575-2.272 14-5.506 18.795-3.622-3.02-7.049-8.349-7.59-16.274-.543-7.958.589-16.429.663-24.887Z"/>
          <path d="M556.206 424.781c.027 10.969.065 18.392-.264 22.246-.645 7.557-2.757 13.906-6.156 18.59-3.516-3.144-6.755-8.589-7.02-16.528l13.44-24.308Z"/>
          <path d="m569.283 412.421 11.895-.845c1.294 10.893 2.19 18.263 2.308 22.127.234 7.582-1.13 14.133-3.966 19.18-3.856-2.714-7.703-7.748-8.882-15.603-1.186-7.888-.744-16.423-1.355-24.859Z"/>
          <path d="M593.469 394.162c2.225 8.824 5.231 37.867-.111 50.133-4.347-2.954-8.726-8.493-10.188-17.225-1.468-8.769-1.907-18.098-2.747-27.489l13.046-5.419Z"/>
          <path d="m546.77 568.277 19.732 10.136c5.682 12.56 11.058 19.246 17.873 25.141-9.878 1.845-18.248-.11-23.641-7.356-7.277-9.775-11.167-15.697-13.581-17l-.383-10.921Z"/>
          <path d="M550.912 575.666c4.833 9.853 8.123 16.512 9.493 20.127 2.687 7.09 3.421 13.768 2.178 19.535-4.786-1.218-10.314-4.633-14.051-11.652l2.38-28.01Z"/>
          <path d="M548.376 578.689c2.285 10.735 3.853 18.001 4.3 21.84.877 7.532-.038 14.186-2.65 19.477-4.344-2.352-8.872-7.016-10.786-14.736-1.921-7.752-2.155-16.298-3.508-24.649l12.644-1.932Z"/>
          <path d="M522.631 585.253c6.655 12.071 8.793 20.385 9.438 29.382 7.38-6.831 10.818-14.723 8.243-23.384-3.474-11.687-6.853-25.118-6.459-27.841l-11.222 21.843Z"/>
          <path d="M542.548 553.881c4.261 10.115 7.164 16.951 8.325 20.639 2.276 7.233 2.628 13.941 1.056 19.629-4.709-1.492-10.675-4.575-14-11.796-3.342-7.252-4.535-16.245-7.432-24.192l12.051-4.28Z"/>
          <path d="M541.328 533.335c2.769-.75 6.448 5.729 10.048 9.51.83.872 1.784 1.692 2.509 2.767a23.314 23.314 0 0 1 3.416 7.955c3.012 13.456 7.4 20.454 12.874 27.615-10.045-.208-17.844-3.829-21.652-12.023-5.137-11.055-7.743-17.645-9.84-19.419l2.645-16.405Z"/>
          <path d="M511.276 597.439c-8.504 10.843-11.947 18.704-14.025 27.481-6.189-7.929-8.318-16.27-4.388-24.406 14.549-16.722 14.443-16.644 18.413-3.075Z"/>
          <path d="M508.916 589.512c-8.503 10.843-17.338 19.044-19.415 27.819-6.19-7.928-8.823-16.271-4.894-24.407l24.309-3.412Z"/>
          <path d="M524.466 586c-8.505 10.844-11.947 18.706-14.025 27.482-6.191-7.929-8.319-16.271-4.389-24.407L524.466 586Z"/>
        </g>
      </g>
      <g stroke="#21231E" class="b">
        <g fill="#EDB92E" stroke-linejoin="round">
          <path d="M400.143 638c-.3 0-.6.7-.7 1-1 3-4.9 8-7.9 11-4.7 4.7-3.4 12-.4 16 3.3 4.4 5.2 9.2 5.9 12.7.5 2.5 1.2 7.6.6 15.6-.3 4-2.7 5.9-4.9 7.7-1.1.9.8 3.3 4.4 6 .4.3 1.4.9 2 3 .1.3 1.9.3 2 0 .6-2.1 1.6-2.7 2-3 3.6-2.7 5.5-5.1 4.4-6-2.2-1.8-4.6-3.7-4.9-7.7-.6-8 .1-13.1.6-15.6.7-3.5 2.6-8.3 5.9-12.7 3-4 4.3-11.3-.4-16-3-3-6.9-8-7.9-11-.1-.3-.4-1-.7-1Z"/>
          <path d="M387.443 701.202c8 6 15.4-8.4 8.2-27.6-5.4-14.4-31.3-8.4-16.6 10.5.7.9 1.7.5 1.5-.5-.8-4 1.4-6.3 5.6-5.5 10.5 2 10.9 22-.6 17.5-2.1-.2-.1 4.1 1.9 5.6Z" class="c"/>
          <path d="M412.843 701.202c-8 6-15.4-8.4-8.2-27.6 5.4-14.4 31.3-8.4 16.6 10.5-.7.9-1.7.5-1.5-.5.8-4-1.4-6.3-5.6-5.5-10.5 2-10.9 22 .6 17.5 2.1-.2.1 4.1-1.9 5.6Z" class="c"/>
          <path d="M406.143 685.5a3.502 3.502 0 0 1 2.475 5.975 3.502 3.502 0 0 1-2.475 1.025h-12a3.503 3.503 0 0 1-3.5-3.5 3.503 3.503 0 0 1 3.5-3.5h12Z"/>
          <path d="M394.043 596.001c-5 11-11 21-17 30-3 1-5 2.5-7 3.1-2 .6-16 .4-16.5-.6-4.5-3.5-11.5-.5-8.5 3.5-2 2 2 7.4 5 5 3-2.4 13 0 16-1-1 3-11 4.7-17 5-6 .3-5 6-3 11l2 1c2 4 7.8 2.8 8-1 .2-3.8 14-9 16-12-2 6-8 12-11 18-3 3-5 3-1 9l7 1c6 0 7-2 6-7s3.7-14 5-16.6c1.2-2.4 1.5-4.9 2.7-6.3 2.1-2.8 12.8-7.4 15.3-6.1 5 2.6 8.5 1 9-4-1-1 0-8-3.6-8.6-3-.5-4.4 1-6.9 3-4 3.2-6.2 5-7.4 4.7-3.2-.8 5.7-5.1 13.7-15.7 8-10.6 11.2-26.4-6.8-15.4Z"/>
          <path d="M345.223 634.54c-4.012-2.352-6.318-2.259-7.874-.508-.855.962-1.948.464-1.309-1.047 2.668-6.314 6.923-7.1 10.741-4.14 1.069 1 1.928 1.842 2.788 2.691-.641.948-3.829 2.277-4.346 3v.004Z"/>
          <path d="M402.683 628.891c4.259-2.9 8.25-3.468 10.436-1.839 1.202.895 2.39.253 1.332-1.236-4.417-6.22-9.593-6.536-13.5-3.029-1.06 1.149-1.903 2.13-2.745 3.109 1.337 1.466 4.291 3.12 4.477 3v-.005Z"/>
          <path d="M369.133 664.551c.129-.257-.978-5.44-2.711-7.059-1.349 1.081-2.863 2.035-4.287 3.523-4.26 4.451-4.241 11.011 2.413 16.728 1.644 1.412 2.393-.077 1.729-1.7-1.135-2.777.244-6.319 2.856-11.492Z"/>
          <path d="M352.543 650.901c-3.956 1.644-5.321 3.727-5.177 6.463.079 1.505-.909 2.066-1.467.316-4.837-11.243.18-13.347 7.43-12.938.416 1.959-.615 6.087-.786 6.159Z"/>
        </g>
        <path stroke-linecap="round" d="M405.843 603.9c-1.9-1.8-3.9-3.7-5.8-1.5s-.9 4.3 1.9 7.2c-1.8-1.2-4-5.2-6-2.4-2 2.8-.2 5.2 2 7.5-2.3-1.9-4.1-4.8-6.1-2.4s0 4.8 1.8 6.6c-2-1.6-4-3.1-5.2-1.7-1.8 2.1-.3 3.5 1.6 5.3-2.2-1.6-3.7-3.2-5.3-1.4-1.6 1.8.5 4 1.7 4.8"/>
        <g fill="#fff" stroke-linejoin="round">
          <path d="M405.493 469c.182 8.678-1.356 66.559-1.84 74.738-.483 8.144-4.092 13.695-7.938 16.877-3.527-4.849-5.632-11.392-6.134-19.156-.254-3.958.474-58.733.778-70L405.493 469Z"/>
          <path d="m367.873 454.83-2.456 79.583c-.775 7.06 8.418 49.073 13.442 57.361 12.436-5.318 15.062-33.821 12.721-61.594-2.34-27.775.392-51.76 2.288-56.751l-25.995-18.599Z"/>
          <path d="m353.133 467.85 1.689 79.603c-.406 7.094 10.96 48.541 16.409 56.542 12.613-9.79 10.075-49.808 8.142-61.917-3.852-24.13-3.197-52.079-1.868-56.621l-24.372-17.607Z"/>
          <path d="m342.193 486.701 20.911-.533c-1.777 8.684-.355 35.655 3.252 56.214 3.383 19.277 8.107 69.272-11.96 81.276-12.444-26.379-2.969-52.014-9.24-74.92l-2.963-62.037Z"/>
          <path d="m422.143 454.381-4.103 74.644c-.729 8.124-4.503 13.556-8.444 16.614-3.379-4.959-5.285-11.567-5.55-19.342-.136-3.964 2.252-58.69 2.896-69.933l15.201-1.983Z"/>
          <path d="M384.993 407.23c-.557 18.646-.875 59.108-.759 62.547.265 7.776 3.331 17.672 6.709 22.631 3.941-3.058 7.716-8.489 8.446-16.615.6-6.679.81-39.483.911-55.923l-15.307-12.64Z"/>
          <path d="M399.933 419.25c-.371 20.09-.154 51.736-.066 54.309.266 7.775 2.173 14.383 5.55 19.344 3.941-3.059 8.104-8.685 8.832-16.809.448-5 1.838-26.451 1.968-42.913l-16.284-13.931Z"/>
          <path d="m387.083 405.551-14.24-20.52c-2.878 10.123-6.387 82.767-2.268 88.725.265 7.776 3.071 14.355 6.45 19.314 3.941-3.058 9.823-8.555 8.124-16.78-1.699-8.224.206-62.257 1.934-70.739Z"/>
          <path d="m357.883 451.24-.966 22.814c.266 7.776 2.172 14.383 5.55 19.344 3.942-3.059 8.96-8.475 8.445-16.615-2-31.459 1.448-61.093 5.453-89.577l-12.451-7.634-6.031 71.668Z"/>
          <path d="m343.643 471.82 3.861 14.631c.266 7.776 5.067 14.196 8.446 19.156 3.941-3.058 7.52-8.088 6.515-16.18-5.779-46.464-3.713-77.204 6.033-115.07-22.039 15.045-32.255 46.787-24.855 97.453v.01Z"/>
          <path d="m344.773 486.221-20.223-6.717c-2.577 20.221 1.384 45.621 6.83 79.114 4.676 28.76 2.217 51.522-1.357 66.121 21.575-2.955 30.695-30.772 19.88-83.093-2.832-13.695-5.677-31.201-5.13-55.425Z"/>
          <path d="M352.604 392.777c-4.964 24.275-8.236 52.876-4.484 84.249 1.392 11.641 3.861 21.161 7.48 28.518-14.559-1.653-23.89-15.872-22.683-40.67l3.27-69.313 16.417-2.784Z"/>
          <path d="M342.037 395.934c-1.089 6.289-4.831 13.704-5.605 21.729-2.566 26.596-2.575 59.898 5.416 81.186-14.559-1.653-19.556-14.853-20.028-39.678-.389-20.523-.456-44.72 4.693-72.661l15.524 9.424Z"/>
          <path d="m372.293 389.97-13.435-1.568c-2.469 12.704-4.357 21.686-4.814 26.212-.899 8.877 1.792 17.014 4.867 23.075 4.954-2.986 7.255-9.51 9.339-18.659l4.043-29.06Z"/>
          <path d="m407.143 418.58-11.924.125c-.408 10.961-.704 18.379-.509 22.241.382 7.575 2.272 14 5.506 18.795 3.622-3.02 7.049-8.349 7.59-16.274.543-7.958-.589-16.429-.663-24.887Z"/>
          <path d="M408.08 424.781c-.027 10.969-.064 18.392.264 22.246.645 7.557 2.757 13.906 6.156 18.59 3.516-3.144 6.755-8.589 7.02-16.528l-13.44-24.308Z"/>
          <path d="m395.003 412.421-11.895-.845c-1.294 10.893-2.19 18.263-2.308 22.127-.233 7.582 1.131 14.133 3.967 19.18 3.855-2.714 7.702-7.748 8.882-15.603 1.185-7.888.743-16.423 1.354-24.859Z"/>
          <path d="M370.817 394.162c-2.225 8.824-5.231 37.867.111 50.133 4.347-2.954 8.726-8.493 10.188-17.225 1.468-8.769 1.907-18.098 2.747-27.489l-13.046-5.419Z"/>
          <path d="m417.517 568.277-19.732 10.136c-5.683 12.56-11.058 19.246-17.873 25.141 9.877 1.845 18.248-.11 23.641-7.356 7.276-9.775 11.167-15.697 13.58-17l.384-10.921Z"/>
          <path d="M413.374 575.666c-4.833 9.853-8.123 16.512-9.493 20.127-2.687 7.09-3.421 13.768-2.178 19.535 4.787-1.218 10.314-4.633 14.051-11.652l-2.38-28.01Z"/>
          <path d="M415.91 578.689c-2.285 10.735-3.853 18.001-4.3 21.84-.877 7.532.038 14.186 2.65 19.477 4.344-2.352 8.872-7.016 10.786-14.736 1.921-7.752 2.155-16.298 3.508-24.649l-12.644-1.932Z"/>
          <path d="M441.655 585.253c-6.655 12.071-8.793 20.385-9.438 29.382-7.38-6.831-10.818-14.723-8.243-23.384 3.474-11.687 6.853-25.118 6.459-27.841l11.222 21.843Z"/>
          <path d="M421.738 553.881c-4.261 10.115-7.164 16.951-8.325 20.639-2.276 7.233-2.628 13.941-1.055 19.629 4.709-1.492 10.675-4.575 14-11.796 3.341-7.252 4.534-16.245 7.431-24.192l-12.051-4.28Z"/>
          <path d="M422.958 533.335c-2.769-.75-6.448 5.729-10.048 9.51-.83.872-1.784 1.692-2.508 2.767a23.296 23.296 0 0 0-3.417 7.955c-3.012 13.456-7.4 20.454-12.874 27.615 10.045-.208 17.844-3.829 21.652-12.023 5.137-11.055 7.743-17.645 9.84-19.419l-2.645-16.405Z"/>
          <path d="M453.01 597.439c8.504 10.843 11.947 18.704 14.025 27.481 6.19-7.929 8.318-16.27 4.388-24.406-14.549-16.722-14.442-16.644-18.413-3.075Z"/>
          <path d="M455.37 589.512c8.503 10.843 17.338 19.044 19.415 27.819 6.19-7.928 8.823-16.271 4.894-24.407l-24.309-3.412Z"/>
          <path d="M439.82 586c8.505 10.844 11.947 18.706 14.025 27.482 6.191-7.929 8.319-16.271 4.389-24.407L439.82 586Z"/>
        </g>
      </g>
      <path fill="#fff" stroke="#21231E" stroke-linejoin="round" d="M482.143 387.5c-1.9-21.5-5.8-36.5-15.1-51.5 4.3.5 8.8-.4 6.7-10.8-6.1-1.4-8.4.9-25.4-7.2-13.9-6.5-34.3-8.9-33-1.9 2.6 14 11.8 24 21.3 31.1 4.5 11.2 15.5 32.4 7.9 44.1-7.6 11.7-13.9 17.3-21.5 22.1 1.7.6 3.3 1.1 4.9 1.4-1.2 1.6-11 4.6-12.2 3.8-7.8-5.2-15-17.9-21.4-25.2-18.3-20.7-27.9-36.9-24.2-49.6 4.1-14.1 21-29.5-.7-26.8-21.7 2.7-39.9 33.1-45.3 68.2-2 13-3.4 24.4-4.9 33.5 11.8-4.2 17.1-8.5 20.2-13.7-1.4 5-2.5 9.7-3.2 14.1 9.7-1.7 16.4-6.6 19.2-15.1 1-3.4 2.3-6.4 3.6-8.9 3 1.1 6.8 1 11.5-.1 1.8 4.2 15.1 19.1 22.3 30 8 12.3 20.2 21.7 24.2 22.3h130.2c4-.6 16.2-10 24.2-22.3 7.2-10.9 20.5-25.8 22.3-30 4.7 1.1 8.5 1.2 11.5.1 1.3 2.5 2.6 5.5 3.6 8.9 2.8 8.5 9.5 13.4 19.2 15.1-.7-4.4-1.8-9.1-3.2-14.1 3.1 5.2 8.4 9.5 20.2 13.7-1.5-9.1-2.9-20.5-4.9-33.5-5.4-35.1-23.6-65.5-45.3-68.2-21.7-2.7-4.8 12.7-.7 26.8 3.7 12.7-5.9 28.9-24.2 49.6-6.4 7.3-13.6 20-21.4 25.2-1.2.8-11-2.2-12.2-3.8 1.6-.3 3.2-.8 4.9-1.4-7.6-4.8-13.9-10.4-21.5-22.1-7.6-11.7 3.4-32.9 7.9-44.1 9.5-7.1 18.7-17.1 21.3-31.1 1.3-7-19.1-4.6-33 1.9-17 8.1-19.3 5.8-25.4 7.2-2.1 10.4 2.4 11.3 6.7 10.8-9.3 15-13.2 30-15.1 51.5Z"/>
      <g class="d">
        <g fill="#EDB92E" stroke="#21231E" stroke-linejoin="round">
          <path d="m522.543 356.401 19.1 2.8c14.8.7 23.4-4 25.3-13.5-5.5 6.6-12.3 9.9-19.8 8.1-10-2.4-16.3-4.6-18.6-4l-6 6.6Z"/>
          <path d="M558.343 317.8c16.6 1.8 15.8 12.5.3 28-3.2 3.1-3.8 3-4.6-.2-1.4-5.6-7.1-8.3-10.1-4.4-2 2.6-1.7 4.3-8.7 3.3-8.9 7.5-16 12.8-4.5 12.3 4.6-.2 9.1 2.8 15.7 2.5-1.9 3.9-2.3 4.4-3.4 4.6-6.6 1-13.2-2.7-19.8-1.5-14.3 2.6 22.9-38.7 22.5-40.3-1-4 8.9-11.6 12.6-4.3Z"/>
        </g>
        <g fill="#21231E">
          <path d="m534.643 330.901 2.19-2.193c1.067-1.351.45-3.151-1.853-5.401-1.684.73-3.032 1.293-4.381 1.856.899 3.037 2.247 4.951 4.044 5.738Z"/>
          <path d="M560.143 327.402a1.4 1.4 0 1 0 0-2.8 1.4 1.4 0 0 0 0 2.8Z"/>
        </g>
        <g stroke="#21231E" stroke-linecap="round" stroke-linejoin="round">
          <path d="M629.843 496.701c-.8 18-2 32-5.5 47s-4 25-4.5 40"/>
          <path d="M622.443 498.802c8.4-22.3 8.2-56.8 5.3-79.6-2.9-22.8-17.2-52.7-22.4-56.1"/>
          <path d="M558.343 317.801c-.667 3.333-3.467 6.866-8.4 10.6"/>
          <path d="M513.743 407.201c7.133 8 16.267 10.1 27.4 6.3"/>
          <path d="M512.543 401.102c0 3 1.567 8.5 4.7 16.5-6.667-1.534-11.633-4.567-14.9-9.1"/>
          <path d="M503.683 400.301c-.867 6.866-2.7 12.2-5.5 16-3.733-2.734-6.333-6.734-7.8-12"/>
          <path d="M524.943 327.601c1.6 3.1 4.5 7.1 8 5 5-3 5.9-6.8 8.2-10.3"/>
          <path d="M520.243 328.201c2.1.1 4.4-.8 9.5-2.6s10.6-4 15.8-3.6"/>
          <path d="M506.943 334c-2.6.8-5.833 1.467-9.7 2"/>
        </g>
      </g>
      <g class="d">
        <g fill="#EDB92E" stroke="#21231E" stroke-linejoin="round">
          <path d="m441.743 356.401-19.1 2.8c-14.8.7-23.4-4-25.3-13.5 5.5 6.6 12.3 9.9 19.8 8.1 10-2.4 16.3-4.6 18.6-4l6 6.6Z"/>
          <path d="M405.943 317.8c-16.6 1.8-15.8 12.5-.3 28 3.2 3.1 3.8 3 4.6-.2 1.4-5.6 7.1-8.3 10.1-4.4 2 2.6 1.7 4.3 8.7 3.3 8.9 7.5 16 12.8 4.5 12.3-4.6-.2-9.1 2.8-15.7 2.5 1.9 3.9 2.3 4.4 3.4 4.6 6.6 1 13.2-2.7 19.8-1.5 14.3 2.6-22.9-38.7-22.5-40.3 1-4-8.9-11.6-12.6-4.3Z"/>
        </g>
        <g fill="#21231E">
          <path d="m429.643 330.901-2.19-2.193c-1.067-1.351-.45-3.151 1.853-5.401 1.685.73 3.032 1.293 4.381 1.856-.898 3.037-2.247 4.951-4.044 5.738Z"/>
          <path d="M404.143 327.402a1.4 1.4 0 1 1 0-2.8 1.4 1.4 0 0 1 0 2.8Z"/>
        </g>
        <g stroke="#21231E" stroke-linecap="round" stroke-linejoin="round">
          <path d="M334.443 496.701c.8 18 2 32 5.5 47s4 25 4.5 40"/>
          <path d="M341.843 498.802c-8.4-22.3-8.2-56.8-5.3-79.6 2.9-22.8 17.2-52.7 22.4-56.1"/>
          <path d="M405.943 317.801c.667 3.333 3.467 6.866 8.4 10.6"/>
          <path d="M450.543 407.201c-7.133 8-16.267 10.1-27.4 6.3"/>
          <path d="M451.743 401.102c0 3-1.567 8.5-4.7 16.5 6.667-1.534 11.633-4.567 14.9-9.1"/>
          <path d="M460.603 400.301c.867 6.866 2.7 12.2 5.5 16 3.733-2.734 6.333-6.734 7.8-12"/>
          <path d="M439.343 327.601c-1.6 3.1-4.5 7.1-8 5-5-3-5.9-6.8-8.2-10.3"/>
          <path d="M444.043 328.201c-2.1.1-4.4-.8-9.5-2.6s-10.6-4-15.8-3.6"/>
          <path d="M457.343 334c2.6.8 5.833 1.467 9.7 2"/>
        </g>
      </g>
      <g>
        <path fill="#fff" d="M473.243 398.699c.533 7.8 3.5 15.2 8.9 22.2 5.467-7 8.433-14.4 8.9-22.2"/>
        <path stroke="#21231E" stroke-linejoin="round" d="M473.243 398.699c.533 7.8 3.5 15.2 8.9 22.2 5.467-7 8.433-14.4 8.9-22.2"/>
      </g>
      <path fill="#C6363C" stroke="#21231E" stroke-width="2.5" d="M549.643 422v108.5c0 19.4-8 37.1-20 49.8-12 12.7-29.5 21.7-47.5 21.7s-35.5-9-47.5-21.7-20-30.4-20-49.8V422h135Z"/>
      <path fill="#fff" stroke="#21231E" stroke-linecap="round" d="M549.143 488.5v28h-53.5v83c-9 2-18 2-27 0v-83h-53.5v-28h53.5v-66h27v66h53.5Z"/>
      <path fill="#fff" stroke="#21231E" stroke-linejoin="round" d="M505.143 527.999c8-3 30-10 30 7.5 0 8.4-10.2 13.9-13 6.5-1.4-3.7.1-6.1 2.2-6.9 2.1-.8 4.4 1 3.8 3.7 8.8-4.7-8.3-14.3-15.5-1.7-2 3.5 3.7 7.6 3.7 10.4 0 2.8-5.7 6.9-3.7 10.4 7.2 12.6 24.3 3 15.5-1.7.6 2.7-1.7 4.5-3.8 3.7-2.1-.8-3.6-3.2-2.2-6.9 2.8-7.4 13-1.9 13 6.5 0 17.5-22 10.5-30 7.5v-39Z" class="e"/>
      <path fill="#fff" stroke="#21231E" stroke-linejoin="round" d="M459.143 437.999c-8-3-30-10-30 7.5 0 8.4 10.2 13.9 13 6.5 1.4-3.7-.1-6.1-2.2-6.9-2.1-.8-4.4 1-3.8 3.7-8.8-4.7 8.3-14.3 15.5-1.7 2 3.5-3.7 7.6-3.7 10.4 0 2.8 5.7 6.9 3.7 10.4-7.2 12.6-24.3 3-15.5-1.7-.6 2.7 1.7 4.5 3.8 3.7 2.1-.8 3.6-3.2 2.2-6.9-2.8-7.4-13-1.9-13 6.5 0 17.5 22 10.5 30 7.5v-39Z" class="e"/>
      <path fill="#fff" stroke="#21231E" stroke-linejoin="round" d="M505.143 437.999c8-3 30-10 30 7.5 0 8.4-10.2 13.9-13 6.5-1.4-3.7.1-6.1 2.2-6.9 2.1-.8 4.4 1 3.8 3.7 8.8-4.7-8.3-14.3-15.5-1.7-2 3.5 3.7 7.6 3.7 10.4 0 2.8-5.7 6.9-3.7 10.4 7.2 12.6 24.3 3 15.5-1.7.6 2.7-1.7 4.5-3.8 3.7-2.1-.8-3.6-3.2-2.2-6.9 2.8-7.4 13-1.9 13 6.5 0 17.5-22 10.5-30 7.5v-39Z" class="e"/>
      <path fill="#fff" stroke="#21231E" stroke-linejoin="round" d="M459.143 527.999c-8-3-30-10-30 7.5 0 8.4 10.2 13.9 13 6.5 1.4-3.7-.1-6.1-2.2-6.9-2.1-.8-4.4 1-3.8 3.7-8.8-4.7 8.3-14.3 15.5-1.7 2 3.5-3.7 7.6-3.7 10.4 0 2.8 5.7 6.9 3.7 10.4-7.2 12.6-24.3 3-15.5-1.7-.6 2.7 1.7 4.5 3.8 3.7 2.1-.8 3.6-3.2 2.2-6.9-2.8-7.4-13-1.9-13 6.5 0 17.5 22 10.5 30 7.5v-39Z" class="e"/>
    </g>
</svg>
