<svg xmlns="http://www.w3.org/2000/svg" viewBox="0 0 900 600">
	<title>Flag of Singapore</title>
	<path d="M0,0H900v300H0Z" fill="#e62625"/>
	<path d="M0,300H900v300H0Z" fill="#fff"/>
	<g class="flagindex-emblem" fill="#fff">
		<path fill-rule="evenodd" d="M220.072 256.628A107.534 107.534 0 0 1 189.636 261C129.086 261 80 210.856 80 149S129.086 37 189.636 37A107.46 107.46 0 0 1 223 42.28c-53.335 3.829-95.468 50.406-95.468 107.301 0 55.85 40.598 101.758 92.54 107.047Z" clip-rule="evenodd"/>
		<g>
			<path d="m254.5 56-16.996 52L282 75.862h-55L271.496 108 254.5 56Z"/>
			<path d="m193.5 100-16.996 52L221 119.862h-55L210.496 152 193.5 100Z"/>
			<path d="m315.5 100-16.996 52L343 119.862h-55L332.496 152 315.5 100Z"/>
			<path d="m292.5 172-16.996 52L320 191.862h-55L309.496 224 292.5 172Z"/>
			<path d="m216.5 172-16.996 52L244 191.862h-55L233.496 224 216.5 172Z"/>
		</g>
	</g>
</svg>