<svg xmlns="http://www.w3.org/2000/svg" fill="none" viewBox="0 0 341 171">
    <title>Flag of Slovenia</title>
    <path d="M0,0H341v57H0Z" fill="#fff"/>
    <path d="M0,57H341v57H0Z" fill="#00F"/>
    <path d="M0,114H341v57H0Z" fill="#f00"/>
    <g class="flagindex-emblem">
        <path fill="#f00" d="M64.384 33.669c-.524.232-1.045.472-1.561.72l1.627 25.746a28.981 28.981 0 0 0 20.589 25.928 28.982 28.982 0 0 0 20.59-25.928l1.627-25.746a55.096 55.096 0 0 0-1.561-.72l-1.666 26.356A27.375 27.375 0 0 1 85.04 84.384a27.38 27.38 0 0 1-18.991-24.36L64.384 33.67Z"/>
        <path fill="#00F" d="M105.695 33.67a51.18 51.18 0 0 0-41.311 0l1.665 26.355a27.381 27.381 0 0 0 18.99 24.36 27.375 27.375 0 0 0 18.99-24.359l1.666-26.356Z"/>
        <path fill="#fff" d="M101.702 63.862 93.37 52.754l-3.332 4.443-4.999-9.997-4.998 9.997-3.333-4.443-8.331 11.108a5.553 5.553 0 0 0 8.332 4.81l-.002.001a5.555 5.555 0 0 1 5.556-.001c.851.492 1.81.744 2.777.744-.004 0 .004 0 0 0 .967 0 1.925-.252 2.776-.744a5.554 5.554 0 0 1 5.555.001c.006.003-.006-.004-.001 0a5.554 5.554 0 0 0 8.332-4.81Z"/>
        <path fill="#fff" d="M70.351 69.894c.382.76.802 1.5 1.259 2.221a5.561 5.561 0 0 0 5.099-.237c.005-.003-.007.004-.001.001a5.557 5.557 0 0 1 2.777-.744c.002 0-.002 0 0 0a5.56 5.56 0 0 1 2.778.744 5.556 5.556 0 0 0 5.554 0c.006-.004-.006.003-.001 0a5.558 5.558 0 0 1 2.778-.744c-.002 0 .002 0 0 0 .967 0 1.925.252 2.776.744a5.559 5.559 0 0 0 5.099.236c.457-.72.877-1.462 1.259-2.22a5.523 5.523 0 0 0-.804.381c-.005.003.007-.004.001 0a5.554 5.554 0 0 1-5.555 0 5.558 5.558 0 0 0-2.777-.745c.002 0-.002 0 0 0-.984 0-1.94.261-2.777.745-.005.003.007-.004.001 0a5.551 5.551 0 0 1-5.554 0 5.57 5.57 0 0 0-2.778-.745c.002 0-.002 0 0 0-.983 0-1.94.261-2.777.745-.006.003.006-.004.001 0a5.554 5.554 0 0 1-5.555 0 5.607 5.607 0 0 0-.803-.382Z"/>
        <path fill="#fff" d="M97.03 74.156a25.767 25.767 0 0 1-11.991 8.54 25.77 25.77 0 0 1-11.991-8.54 5.558 5.558 0 0 0 3.661-.674c.005-.003-.007.004-.001.001a5.547 5.547 0 0 1 2.777-.744c.002 0-.002 0 0 0a5.56 5.56 0 0 1 2.778.744 5.556 5.556 0 0 0 5.554 0c.006-.004-.006.003-.001 0a5.548 5.548 0 0 1 2.778-.744c-.002 0 .002 0 0 0 .967 0 1.925.252 2.776.744a5.558 5.558 0 0 0 3.66.673Z"/>
        <g fill="#FF0" class="flagindex-stars">
            <path d="m86.289 41.647.915-1.25-1.54.168-.625-1.417-.625 1.416-1.539-.166.915 1.248-.915 1.25 1.539-.168.625 1.419.625-1.419 1.54.169-.915-1.25Zm-5.832-7.776.915-1.25-1.539.167-.625-1.417-.625 1.417-1.54-.167.915 1.25-.915 1.25 1.54-.168.625 1.417.625-1.417 1.539.167-.915-1.249Zm11.664 0 .915-1.25-1.54.167-.625-1.417-.625 1.417-1.539-.167.915 1.25-.915 1.25 1.539-.168.625 1.417.625-1.417 1.54.167-.915-1.249Z"/>
        </g>
    </g>
</svg>
