<svg xmlns="http://www.w3.org/2000/svg" viewBox="0 0 600 400" title="Flag of Slovakia">
    <path fill="#254AA5" d="M.359 133.58h600v133.334h-600V133.58z" />
    <path fill="#fff" d="M.359.248h600V133.58h-600V.248z" />
    <path fill="#ED1C24" d="M.359 266.914h600v133.334h-600V266.914z" />
    <g class="flagindex-emblem">
        <path fill="#fff" fill-rule="evenodd" d="M117.105 195.493c0-59.325 3.516-92.587 3.516-92.587h158.19s3.517 33.262 3.517 92.587c0 63.152-47.978 94.646-79.567 109.861l-3.046 1.467-3.044-1.467c-31.588-15.215-79.566-46.709-79.566-109.861z" clip-rule="evenodd"/>
        <path fill="#ED1C24" d="M199.714 299.032c-31.101-14.983-75.59-44.717-75.59-103.539 0-58.82 2.812-85.571 2.812-85.571H272.495s2.815 26.751 2.815 85.571c0 58.822-44.491 88.556-75.596 103.539z" />
        <path fill="#fff" d="M206.367 180.072c8.421.136 24.853.466 39.484-4.43 0 0-.388 5.236-.388 11.334 0 6.1.388 11.336.388 11.336-13.421-4.491-29.994-4.585-39.484-4.464v32.488h-13.302v-32.488c-9.49-.121-26.062-.027-39.483 4.464 0 0 .386-5.236.386-11.336 0-6.098-.386-11.334-.386-11.334 14.63 4.896 31.062 4.566 39.483 4.43v-20.404c-7.676-.068-18.736.299-31.243 4.484 0 0 .386-5.235.386-11.335 0-6.099-.386-11.335-.386-11.335 12.488 4.179 23.534 4.551 31.208 4.484-.394-12.92-4.158-29.204-4.158-29.204s7.746.604 10.842.604c3.102 0 10.846-.604 10.846-.604s-3.764 16.284-4.159 29.204c7.675.067 18.722-.305 31.21-4.484 0 0-.388 5.236-.388 11.335 0 6.1.388 11.335.388 11.335-12.507-4.185-23.568-4.552-31.244-4.484v20.404z" />
        <path fill="#254AA5" d="M260.287 249.062c-15.731 25.03-40.844 40.467-60.573 49.971-19.726-9.504-44.839-24.941-60.569-49.971 4.051-7.122 10.43-14.823 19.075-14.823 12.779 0 17.443 10.302 17.443 10.302s8.39-21.719 24.051-21.719c15.665 0 24.055 21.719 24.055 21.719s4.664-10.302 17.444-10.302c8.645 0 15.024 7.702 19.074 14.823z" />
    </g>
</svg>
