<svg xmlns="http://www.w3.org/2000/svg" viewBox="0 0 400 300">
	<title>Flag of NATO (Flagindex version)</title>
	<path fill="#012169" d="M0 0h400v300H0"/>
  <g class="flagindex-emblem" fill="#fff">
    <path d="M370.191 148.203v3.359h-85v-3.359h85ZM201.87 64.893h-3.359V29.889h3.359v35.004Z"/>
    <path d="M30.2 151.406v-3.359h85v3.359h-85Zm168.321 83.311h3.359v35.004h-3.359v-35.004Z"/>
    <path d="M200.171 225.196v-74.767l13.516 13.517 52.929-11.796c.587 0 .587.546 0 .546l-49.529 15.741-16.916 56.759Zm9.567-18.013c23.674-3.908 42.811-22.462 47.303-46.641l-4.492 1.72c-4.529 20.196-20.858 36.525-41.678 41.013l-1.133 3.908Z"/>
    <path d="M275.049 150h-74.767l13.517-13.515-11.796-52.93c0-.587.546-.587.546 0l15.742 49.53L275.049 150Zm-18.012-9.567c-3.909-23.673-22.463-42.81-46.642-47.303l1.721 4.492c20.196 4.529 36.525 20.858 41.012 41.678l3.909 1.133Z"/>
    <path d="M200.22 74.415v74.766l-13.516-13.516-52.929 11.795c-.587 0-.587-.545 0-.545l49.529-15.742 16.916-56.758Zm-9.567 18.012c-23.674 3.908-42.811 22.463-47.303 46.642l4.492-1.721c4.529-20.196 20.858-36.525 41.678-41.013l1.133-3.908Z"/>
    <path d="M125.342 149.609h74.767l-13.517 13.516 11.796 52.929c0 .588-.546.588-.546 0L182.1 166.525l-56.758-16.916Zm18.012 9.567c3.909 23.674 22.463 42.811 46.642 47.303l-1.721-4.492c-20.196-4.529-36.525-20.858-41.012-41.678l-3.909-1.133Z"/>
  </g>
</svg>